<svg width="66" height="87" viewBox="0 0 66 87" fill="none" xmlns="http://www.w3.org/2000/svg">
<path fill-rule="evenodd" clip-rule="evenodd" d="M53.1734 38.0312C53.7216 36.822 54.0069 35.5065 54.0069 34.1586C54.0069 28.9795 49.7933 24.7661 44.6144 24.7661C43.0515 24.7661 41.5347 25.1485 40.1752 25.8794C38.4075 24.021 35.9804 22.9723 33.3804 22.9723C29.9916 22.9723 26.8878 24.7994 25.227 27.6997C24.4706 27.5068 23.6919 27.4093 22.9017 27.4093C17.7226 27.4093 13.5092 31.6228 13.5092 36.8018C13.5092 37.7609 13.6518 38.6997 13.9344 39.603C11.8811 41.3782 10.677 43.9797 10.677 46.7142C10.677 51.6606 14.5205 55.7264 19.3777 56.0816C19.3672 56.2631 19.3619 56.445 19.3619 56.6266C19.3619 61.8057 23.5754 66.0191 28.7544 66.0191C31.8326 66.0191 34.7025 64.4908 36.4429 62.0204C38.1916 63.778 40.5844 64.7919 43.1038 64.7919C48.0284 64.7919 52.0798 60.9826 52.4661 56.1555C56.6868 55.1958 59.7652 51.4116 59.7652 46.9976C59.7652 42.855 57.02 39.2365 53.1734 38.0312ZM51.2751 54.1639C50.7237 54.2325 50.313 54.7068 50.3242 55.2624L50.3254 55.3284C50.3258 55.352 50.326 55.3757 50.326 55.3993C50.326 59.3818 47.086 62.6218 43.1036 62.6218C40.7424 62.6218 38.5253 61.4629 37.173 59.5219C36.9513 59.2036 36.5751 59.0281 36.19 59.061C35.8036 59.0941 35.4642 59.331 35.2999 59.6823C34.1159 62.2136 31.5465 63.849 28.7542 63.849C24.7717 63.849 21.5317 60.6091 21.5317 56.6266C21.5317 56.1531 21.5783 55.6782 21.6699 55.2148C21.7353 54.8843 21.6435 54.5424 21.4216 54.289C21.2149 54.0531 20.917 53.919 20.6055 53.919C20.5825 53.919 20.5596 53.9197 20.5369 53.9212C20.3728 53.9316 20.2199 53.9367 20.0692 53.9367C16.0868 53.9367 12.8468 50.6968 12.8468 46.7143C12.8468 44.3982 13.9708 42.2057 15.8536 40.8496C16.2616 40.5556 16.4142 40.02 16.2224 39.5551C15.8618 38.6813 15.6788 37.755 15.6788 36.8019C15.6788 32.8195 18.9188 29.5795 22.9012 29.5795C23.7619 29.5795 24.6039 29.7294 25.4036 30.0248C25.941 30.2233 26.5402 29.9699 26.7719 29.4461C27.9286 26.8318 30.5225 25.1426 33.3798 25.1426C35.6302 25.1426 37.7126 26.1647 39.0933 27.9469C39.444 28.4 40.0867 28.502 40.5608 28.18C41.7583 27.3663 43.1598 26.9363 44.6137 26.9363C48.5962 26.9363 51.8362 30.1763 51.8362 34.1588C51.8362 35.5933 51.4164 36.9794 50.6224 38.167C50.4147 38.4776 50.3816 38.8733 50.5345 39.2142C50.6874 39.5552 51.0051 39.7933 51.3752 39.8448C54.9208 40.3368 57.5946 43.4119 57.5946 46.9976C57.5951 50.6346 54.8781 53.7156 51.2751 54.1639ZM17.3781 61.3579C17.3781 59.0877 15.5311 57.2409 13.261 57.2409C12.1206 57.2409 11.061 57.7006 10.2939 58.5018C10.0064 58.4387 9.71194 58.4071 9.41257 58.4071C7.14251 58.407 5.29565 60.2539 5.29565 62.5241C5.29565 64.5864 6.81995 66.2994 8.80117 66.5958C9.37353 68.2013 10.904 69.3233 12.6781 69.3233C14.9481 69.3233 16.7951 67.4765 16.7951 65.2062C16.7951 64.7326 16.7138 64.2653 16.5567 63.8241C17.0852 63.1177 17.3781 62.2535 17.3781 61.3579ZM14.5495 62.8169C14.1556 63.1652 14.0681 63.7459 14.342 64.1948C14.5271 64.4984 14.6249 64.8481 14.6249 65.2064C14.6249 66.2799 13.7516 67.1533 12.6781 67.1533C11.6849 67.1533 10.8533 66.4104 10.7438 65.425C10.6822 64.8715 10.2138 64.4598 9.66641 64.4598C9.63652 64.4598 9.6063 64.461 9.57588 64.4636C9.51417 64.4687 9.46066 64.4712 9.41279 64.4712C8.33925 64.4712 7.46593 63.5978 7.46593 62.5243C7.46593 61.4508 8.33925 60.5773 9.41279 60.5773C9.69567 60.5773 9.96897 60.6371 10.2249 60.755C10.7234 60.9845 11.3143 60.8056 11.6023 60.3388C11.9605 59.7581 12.5806 59.4114 13.2612 59.4114C14.3347 59.4114 15.2082 60.2847 15.2082 61.3582C15.2082 61.9149 14.968 62.4468 14.5495 62.8169ZM42.9296 59.0509C43.9565 59.0509 44.9266 58.6562 45.6618 57.9398C46.0909 57.5216 46.7779 57.5305 47.1962 57.9595C47.6143 58.3887 47.6056 59.0756 47.1764 59.4939C46.0338 60.6079 44.5255 61.2212 42.9296 61.2212C41.8707 61.2212 40.8275 60.9447 39.9128 60.4215C39.3927 60.124 39.2121 59.4611 39.5096 58.9408C39.8071 58.4208 40.4698 58.24 40.9903 58.5376C41.5775 58.8734 42.2481 59.0509 42.9296 59.0509ZM48.0182 54.618C47.4215 54.5514 46.886 54.9809 46.8198 55.5765C46.8104 55.6611 46.798 55.7467 46.7829 55.8311C46.6775 56.4209 47.0703 56.9846 47.6602 57.09C47.7248 57.1015 47.789 57.1071 47.8523 57.1071C48.368 57.1071 48.8253 56.7381 48.9192 56.2128C48.9426 56.0816 48.9619 55.9482 48.9766 55.8164C49.0429 55.2207 48.6138 54.6842 48.0182 54.618ZM27.0822 47.0321C27.1176 46.5709 27.4901 46.4113 28.0043 46.4113C28.6605 46.4113 28.962 46.6064 28.9622 47.3867C28.9622 49.3374 27.3485 50.7029 24.9189 50.7029C22.7731 50.7029 20.9997 49.6211 20.9997 46.7483V41.5879C20.9997 38.715 22.7908 37.6333 24.9366 37.6333C27.3661 37.6333 28.9621 38.9632 28.9621 40.8431C28.9621 41.641 28.6606 41.8184 28.0222 41.8184C27.4546 41.8184 27.0999 41.6233 27.0823 41.1978C27.0467 40.577 26.834 39.3003 25.0074 39.3003C23.642 39.3003 22.8794 40.0273 22.8794 41.5879V46.7483C22.8794 48.3089 23.642 49.036 25.0429 49.036C26.8517 49.036 27.0113 47.8123 27.0822 47.0321ZM34.5657 37.6332C32.3136 37.6332 30.5933 38.715 30.5933 41.5878V46.7483C30.5933 49.6211 32.3136 50.7028 34.5657 50.7028C36.8 50.7028 38.5558 49.6211 38.5558 46.7483V41.5878C38.5557 38.715 36.8001 37.6332 34.5657 37.6332ZM36.6759 46.7484C36.6759 48.3089 35.8779 49.036 34.5658 49.036C33.2357 49.036 32.4732 48.3089 32.4732 46.7484V41.5879C32.4732 40.0273 33.2357 39.3003 34.5658 39.3003C35.878 39.3003 36.6759 40.0273 36.6759 41.5879V46.7484ZM42.0496 48.9296H47.2634C47.5825 48.9296 47.8841 49.3022 47.8841 49.7456C47.8841 50.1888 47.5827 50.5968 47.2634 50.5968H40.9502C40.5954 50.5968 40.1166 50.3485 40.1166 49.9761V48.2559C40.1166 46.8012 41.6033 45.7148 43.0712 44.6422C44.5023 43.5964 45.9155 42.5637 45.9155 41.2156C45.9155 40.3466 45.348 39.3535 44.0002 39.3535C43.0071 39.3535 42.2091 39.9033 42.2091 41.1091C42.2091 41.4638 41.8368 41.8184 41.2161 41.8184C40.7196 41.8184 40.3649 41.5702 40.3649 40.7721C40.3649 38.8745 42.0673 37.6332 44.0002 37.6332C46.0574 37.6332 47.7953 39.0341 47.7953 41.1623C47.7953 43.3644 45.8786 44.7088 44.2592 45.8445C43.0749 46.6752 42.0496 47.3943 42.0496 48.2557V48.9296Z" fill="white"/>
<path d="M51.5709 2.58646L62.9085 13.02H51.9492C51.7403 13.02 51.5709 12.8506 51.5709 12.6417V2.58646ZM49.3014 1.13478V12.6417C49.3014 14.1041 50.4868 15.2895 51.9492 15.2895H64.6826V85.487C64.6826 85.6959 64.5133 85.8652 64.3043 85.8652H1.51304C1.30414 85.8652 1.13478 85.6959 1.13478 85.487V1.51305C1.13478 1.30414 1.30414 1.13478 1.51304 1.13478H49.3014Z" stroke="white" stroke-width="2.26957" stroke-linecap="round" stroke-linejoin="round"/>
</svg>
