<svg width="88" height="88" viewBox="0 0 88 88" fill="none" xmlns="http://www.w3.org/2000/svg">
<path fill-rule="evenodd" clip-rule="evenodd" d="M86.2921 51.6833C85.2067 51.0843 83.8294 51.216 82.5131 52.0446L58.1977 67.3561C57.5211 67.7823 57.3179 68.6763 57.744 69.3529C58.1702 70.0296 59.0642 70.2328 59.7408 69.8067L84.0561 54.4952C84.5697 54.1719 84.8507 54.1956 84.8923 54.2187C84.9344 54.2419 85.1039 54.4667 85.1039 55.0736C85.1039 56.7047 83.8932 58.898 82.5131 59.7671L58.9406 74.6106C57.6873 75.3998 56.5414 75.6168 55.7968 75.206C55.0524 74.795 54.6255 73.7098 54.6255 72.2284C54.6255 68.4757 57.3083 63.6159 60.4838 61.6165L87.3237 44.7157C87.7448 44.4507 88 43.9878 88 43.4904C88 42.993 87.7446 42.5301 87.3237 42.2651L35.7507 9.78931C35.2792 9.49231 34.679 9.49231 34.2076 9.78931L7.04103 26.896C3.18072 29.3269 0.156578 34.8047 0.156578 39.3668V40.139C0.156578 44.7011 3.18072 50.1789 7.04103 52.6097L47.4469 78.0534C48.1236 78.4795 49.0177 78.2762 49.4438 77.5997C49.8699 76.923 49.6667 76.0289 48.99 75.6028L8.5843 50.1591C5.58559 48.2711 3.0525 43.6824 3.0525 40.139V39.3668C3.0525 35.8234 5.58559 31.2347 8.5843 29.3466L34.9791 12.7258L83.8348 43.49L58.9407 59.1657C54.897 61.7121 51.7296 67.4498 51.7296 72.2284C51.7296 74.8337 52.6769 76.7915 54.3972 77.7413C55.0882 78.1229 55.8503 78.3119 56.6577 78.3119C57.8607 78.3119 59.1647 77.8919 60.4837 77.061L84.0561 62.2175C86.2677 60.825 87.9998 57.6869 87.9998 55.0736C88 53.5183 87.3775 52.2827 86.2921 51.6833ZM68.4351 44.9381C68.9162 44.9381 69.3865 44.6985 69.6618 44.2616C70.0879 43.5849 69.8847 42.6908 69.2081 42.2648L35.7507 21.1968C35.0738 20.7708 34.1799 20.9741 33.7538 21.6506C33.3278 22.3273 33.5309 23.2213 34.2076 23.6474L67.665 44.7153C67.9045 44.8661 68.1713 44.9381 68.4351 44.9381ZM63.8744 48.1016C63.5998 48.5401 63.1285 48.7807 62.6464 48.7807C62.3836 48.7807 62.1177 48.7092 61.8786 48.5592L47.7445 39.6968C47.0668 39.2721 46.8621 38.3787 47.2869 37.701C47.7115 37.0236 48.6049 36.8184 49.2827 37.2434L63.4169 46.1058C64.0946 46.5305 64.2993 47.4241 63.8744 48.1016ZM43.3833 41.0541C42.7051 40.6306 41.8119 40.837 41.3882 41.5155C40.9647 42.1939 41.1711 43.087 41.8497 43.5107L56.0923 52.4035C56.3308 52.5523 56.5957 52.6233 56.8578 52.6233C57.3406 52.6233 57.8129 52.3818 58.0874 51.942C58.5109 51.2636 58.3045 50.3705 57.6259 49.9469L43.3833 41.0541ZM16.1575 32.5643L28.1909 24.986C28.6615 24.6897 29.2603 24.6888 29.7318 24.9844L43.8673 33.8477C44.2865 34.1107 44.5426 34.5696 44.546 35.0644C44.5493 35.5594 44.2996 36.0217 43.884 36.2906L40.6405 38.3869C39.9695 38.8209 39.0727 38.6284 38.6385 37.9567C38.2045 37.285 38.397 36.3889 39.0687 35.9547L40.4021 35.0929L28.9645 27.9213L19.6591 33.7817L31.2656 40.9982L33.6908 39.4307C34.3625 38.9969 35.2588 39.1892 35.6928 39.8609C36.1268 40.5326 35.9342 41.4288 35.2626 41.8629L32.0662 43.9287C31.8271 44.0832 31.5538 44.1605 31.2802 44.1605C31.015 44.1605 30.75 44.0878 30.5157 43.9423L16.1645 35.0192C15.7408 34.7557 15.4827 34.2929 15.4811 33.7937C15.4796 33.2946 15.7352 32.8302 16.1575 32.5643ZM52.3002 55.7822C52.7225 55.1029 52.5143 54.2102 51.8351 53.7881L37.4835 44.8647C36.8043 44.4422 35.9114 44.6505 35.4894 45.3298C35.0671 46.009 35.2753 46.9017 35.9545 47.3239L50.3061 56.2473C50.544 56.3954 50.8083 56.4659 51.0692 56.4659C51.553 56.4659 52.026 56.2234 52.3002 55.7822ZM10.9558 39.2459C10.2766 38.8238 10.0684 37.9311 10.4907 37.2518C10.9127 36.5728 11.8056 36.3643 12.4848 36.7866L47.9072 58.8115C48.5865 59.2336 48.7946 60.1264 48.3723 60.8056C48.0982 61.2466 47.6252 61.4891 47.1414 61.4891C46.8805 61.4891 46.6161 61.4187 46.3782 61.2705L10.9558 39.2459Z" fill="#7FFFD4"/>
</svg>
