<svg width="88" height="89" viewBox="0 0 88 89" fill="none" xmlns="http://www.w3.org/2000/svg">
<g clip-path="url(#clip0)">
<path fill-rule="evenodd" clip-rule="evenodd" d="M75.8225 6.62722C75.931 3.36298 78.6185 0.740509 81.9087 0.740509C85.2674 0.740509 87.9999 3.47307 87.9999 6.83179V70.4605C87.9999 73.8192 85.2674 76.5518 81.9087 76.5518C78.6185 76.5518 75.931 73.9293 75.8225 70.6651C67.0521 63.1287 57.5025 59.8097 50.9725 58.3533C43.6946 56.7302 38.4696 56.9958 38.4174 56.9986C38.4018 56.9995 38.3862 56.9985 38.3706 56.9988C38.3569 56.9992 38.3435 57.0006 38.3298 57.0012C38.3262 57.0013 38.3225 57.0014 38.3189 57.0014H35.9444L41.2376 85.2624C41.3337 85.7748 41.1964 86.3035 40.8633 86.7048C40.5304 87.106 40.0361 87.3381 39.5146 87.3381H31.0866C25.8415 87.3381 21.334 83.5964 20.3686 78.441L16.3531 57.0014H13.322C12.354 57.0014 11.569 56.2166 11.569 55.2484V50.2121H11.5658C5.18845 50.2121 -4.57764e-05 45.0238 -4.57764e-05 38.6462C-4.57764e-05 32.2687 5.18845 27.0804 11.5656 27.0806H11.5688V22.0442C11.5688 21.076 12.3538 20.2912 13.3218 20.2912H38.3189C38.3284 20.2912 38.3378 20.2919 38.3472 20.2925C38.3541 20.293 38.361 20.2935 38.368 20.2937C38.3748 20.2938 38.3817 20.2937 38.3885 20.2937C38.3988 20.2935 38.409 20.2934 38.4193 20.294C38.4691 20.2967 43.6948 20.5621 50.9725 18.9392C57.5025 17.4828 67.0521 14.1638 75.8225 6.62722ZM11.5658 46.7061H11.569V30.5864H11.5658C7.12147 30.5864 3.50593 34.2021 3.50593 38.6462C3.50593 43.0904 7.12147 46.7061 11.5658 46.7061ZM31.5537 76.119H35.9581L35.2029 72.0871H29.976C29.008 72.0871 28.2231 71.3023 28.2231 70.3341C28.2231 69.366 29.008 68.5811 29.976 68.5811H34.5464L33.7913 64.5493H28.5737C27.6057 64.5493 26.8207 63.7645 26.8207 62.7963C26.8207 61.8281 27.6057 61.0433 28.5737 61.0433H33.1346L32.3775 57.0014H19.9199L23.8146 77.7955C24.4696 81.2935 27.5278 83.8321 31.0866 83.8321H37.4028L36.6148 79.625H31.5537C30.5857 79.625 29.8007 78.8402 29.8007 77.872C29.8007 76.9038 30.5857 76.119 31.5537 76.119ZM15.0748 53.4955H36.5659V23.7969H15.0748V53.4955ZM51.6086 54.9035C58.0033 56.3158 67.118 59.402 75.8176 66.135V11.1576C67.118 17.8907 58.0033 20.9768 51.6086 22.3892C46.4576 23.5269 42.3225 23.7778 40.0719 23.8147V53.4778C42.3225 53.5147 46.4576 53.7654 51.6086 54.9035ZM81.9087 73.0458C83.3342 73.0458 84.494 71.8861 84.494 70.4605V6.83179C84.494 5.40626 83.3342 4.24648 81.9087 4.24648C80.4831 4.24648 79.3234 5.40626 79.3234 6.83179V70.4605C79.3234 71.8861 80.4831 73.0458 81.9087 73.0458ZM66.965 24.2966C67.2074 24.2966 67.4539 24.2459 67.6889 24.1392C69.0307 23.5297 70.3614 22.8744 71.6442 22.1913C72.4988 21.7362 72.8227 20.6746 72.3677 19.82C71.9126 18.9654 70.8513 18.6418 69.9966 19.0967C68.7784 19.7453 67.5142 20.368 66.2391 20.9472C65.3576 21.3476 64.9676 22.3867 65.368 23.2681C65.6616 23.9145 66.2987 24.2966 66.965 24.2966ZM44.367 28.7579C44.4887 29.6351 45.2398 30.2702 46.1012 30.2702C46.1814 30.2702 46.2627 30.2646 46.3444 30.2534C51.5744 29.528 56.7009 28.2943 61.5814 26.5862C62.4952 26.2664 62.9767 25.2663 62.657 24.3525C62.3372 23.4388 61.3375 22.9573 60.4233 23.2772C55.7616 24.9086 50.8629 26.0873 45.8625 26.7807C44.9034 26.9138 44.234 27.7991 44.367 28.7579Z" fill="#7FFFD4"/>
</g>
<defs>
<clipPath id="clip0">
<rect y="0.0393677" width="88" height="88" fill="white"/>
</clipPath>
</defs>
</svg>
