<svg width="88" height="88" viewBox="0 0 88 88" fill="none" xmlns="http://www.w3.org/2000/svg">
<path fill-rule="evenodd" clip-rule="evenodd" d="M26.9558 6.62647C32.3195 4.17553 38.0542 2.93339 44 2.93339C46.9715 2.93339 49.9254 3.25016 52.7985 3.87784C52.668 6.34631 53.7078 7.99631 54.4338 9.14753L54.4349 9.14923C54.6387 9.47324 54.9163 9.91482 54.9457 10.0363C54.9457 16.0951 53.7195 17.3697 53.4791 17.3697C50.8391 17.3697 46.3349 19.8308 44.6995 22.8858C43.6978 24.7545 43.7785 26.7314 44.9254 28.4503C45.742 29.6751 46.4427 31.0301 47.121 32.3417L47.121 32.3418L47.1474 32.3928L47.1498 32.3975C48.5617 35.1317 50.1275 38.1642 52.5345 38.1642C53.0301 38.1642 53.5611 38.0351 54.1346 37.7491C56.0468 36.7923 57.4495 34.0129 58.8064 31.324L58.8103 31.3163L58.8135 31.3099L58.8135 31.3099L58.8136 31.3098L58.8137 31.3096C59.4604 30.0279 60.4159 28.1342 60.956 27.6511C62.8817 27.8417 63.7675 29.4654 64.9703 32.0702L64.9711 32.0718C65.7936 33.8533 66.6443 35.6959 68.2777 36.5128C71.1098 37.9253 80.454 36.4203 85.6341 34.2203C85.6694 34.2051 85.698 34.1822 85.7265 34.1594C85.7477 34.1425 85.7688 34.1256 85.7926 34.1119L85.8073 34.103C85.8871 34.0548 85.9641 34.0084 86.0331 33.9475C86.1035 33.8831 86.1592 33.8111 86.2149 33.7349C86.2706 33.6615 86.3234 33.5883 86.3644 33.5046C86.4069 33.4195 86.4304 33.3331 86.4554 33.2406C86.4789 33.1511 86.5009 33.0646 86.5081 32.9692C86.514 32.8709 86.5023 32.7771 86.489 32.6774C86.4854 32.6507 86.4856 32.6244 86.4857 32.5982V32.5981C86.4859 32.5612 86.4862 32.5244 86.4758 32.4868C82.925 19.3557 73.2774 8.43202 60.6669 3.26786C59.9175 2.96141 59.0609 3.31925 58.7544 4.06862C58.448 4.81817 58.8058 5.67462 59.5552 5.98125C70.9189 10.6365 79.6897 20.3062 83.2654 31.9969C77.8006 33.9814 70.8618 34.5254 69.5887 33.8874C68.876 33.5309 68.2438 32.164 67.6337 30.8411L67.6335 30.8408C66.472 28.3254 64.8819 24.882 60.8767 24.7046C58.8967 24.6342 57.766 26.8723 56.1908 29.9949C55.2111 31.9397 53.8675 34.6032 52.8232 35.1254C52.0635 35.5082 50.8329 33.1396 49.7535 31.048L49.7362 31.0145C49.0511 29.6881 48.2763 28.1882 47.3658 26.824C46.8174 26.0026 46.7925 25.1902 47.2852 24.2691C48.5114 21.9782 52.0857 20.3032 53.4789 20.3032C56.3991 20.3032 57.8789 16.8493 57.8789 10.0366C57.8789 9.11548 57.4124 8.37411 56.9175 7.58764L56.9154 7.58433C56.1689 6.40217 55.3989 5.17894 55.8609 3.06848C56.0311 2.29402 55.5543 1.52694 54.7874 1.33203C51.2835 0.448766 47.6535 0 44 0C37.6303 0 31.4865 1.33169 25.7371 3.95708C25.0008 4.29447 24.6766 5.16416 25.0126 5.90047C25.3498 6.63816 26.2195 6.96369 26.9558 6.62647ZM64.4732 45.1103L64.458 45.1147C63.9224 45.2679 63.2629 45.4566 63.0668 45.4668C60.8272 45.4668 59.4352 47.1653 58.3192 48.5307C57.8074 49.157 57.0315 50.103 56.6488 50.103C56.5857 50.103 56.4948 50.0751 56.3893 50.0224C55.6529 49.6528 54.8816 49.4679 54.0939 49.4679C52.196 49.4679 50.5548 50.5854 50.1911 52.127C49.9388 53.1976 50.3186 54.6657 52.1446 55.5794C54.924 56.9683 57.7986 58.4057 59.0966 59.7037C59.9268 60.5339 61.3788 61.0105 63.0816 61.0105C65.6834 61.0105 69.1403 59.7491 70.3254 56.197C70.8256 54.6965 72.056 53.5188 73.1414 52.4805L73.145 52.477C74.4035 51.2713 75.5922 50.1324 75.6099 48.5499C75.6202 47.6214 75.2036 46.7284 74.3705 45.8967C73.2206 44.7468 71.6469 44.1631 69.6948 44.1631C67.7908 44.1628 65.8738 44.7099 64.4732 45.1103ZM72.6763 48.5174C72.6734 48.8679 71.7348 49.767 71.1128 50.361L71.1084 50.3651C69.8435 51.5759 68.271 53.0811 67.5414 55.2699C66.852 57.3394 64.7855 58.0771 63.0812 58.0771C61.9754 58.0771 61.3167 57.7765 61.1701 57.6297C59.5347 55.9943 56.5824 54.5174 53.4555 52.9554C53.284 52.869 53.1724 52.7882 53.1064 52.7309C53.3426 52.5022 54.2578 52.2353 55.0777 52.6459C55.5954 52.904 56.1249 53.036 56.6484 53.036C58.4217 53.0346 59.5729 51.6296 60.5894 50.3886C61.572 49.1874 62.2746 48.3999 63.0666 48.3999C63.6386 48.3999 64.3264 48.2034 65.2798 47.9305L65.2866 47.9286C66.5195 47.5767 68.2041 47.096 69.6944 47.096C70.856 47.096 71.7081 47.382 72.2963 47.9702C72.6103 48.2842 72.6777 48.4719 72.6763 48.5174ZM38.1334 63.0666C37.758 63.0666 37.3825 62.9229 37.0965 62.6369C36.5229 62.0635 36.5229 61.1364 37.0967 60.5634C38.0544 59.6055 38.4811 58.6083 38.3316 57.6799C38.2085 56.9276 37.7537 56.4508 37.4781 56.3129C37.1862 56.1662 36.557 55.9829 35.9468 55.8054C33.9053 55.2114 31.1097 54.3974 29.9877 52.2546C29.4304 51.1914 29.3704 49.9857 29.8088 48.6702C30.3133 47.1523 30.7847 46.2643 31.1628 45.5518L31.1728 45.5329L31.1736 45.5315C31.8551 44.2505 32.267 43.4764 32.267 38.8669C32.267 37.3431 31.6157 36.268 30.3294 35.6695C29.596 35.3263 29.2779 34.4551 29.6196 33.7203C29.9627 32.9854 30.8354 32.6702 31.5673 33.0089C33.911 34.1002 35.2002 36.1812 35.2002 38.8668C35.2002 43.9721 34.7074 45.1352 33.7614 46.9114L33.7513 46.9305C33.409 47.5771 33.0193 48.313 32.591 49.5969C32.3534 50.314 32.4736 50.6792 32.5851 50.8934C33.1277 51.9283 35.3156 52.5662 36.7647 52.9887L36.7667 52.9892C37.5688 53.2225 38.2611 53.4249 38.7891 53.6874C40.0225 54.3048 40.9788 55.6878 41.2266 57.2103C41.5302 59.0803 40.7999 61.0074 39.1703 62.6369C38.8843 62.9229 38.509 63.0666 38.1334 63.0666ZM16.1334 77.7334C16.1334 78.5429 16.7905 79.2 17.6 79.2C22.4533 79.2 26.4 75.2533 26.4 70.4C26.4 69.5905 25.743 68.9334 24.9334 68.9334C24.1239 68.9334 23.4668 69.5905 23.4668 70.4C23.4668 73.6356 20.8356 76.2666 17.6002 76.2666C16.7905 76.2666 16.1334 76.9237 16.1334 77.7334ZM85.9275 36.6594C86.7224 36.5465 87.472 37.1082 87.582 37.9105C87.8592 39.9125 88 41.9614 88 44C88 68.2615 68.2615 88 44 88C36.9366 88 33.3064 86.4791 33.1555 86.4146C32.412 86.0965 32.0658 85.234 32.3855 84.4889C32.7023 83.7454 33.5648 83.4022 34.3054 83.716L34.3055 83.7161C34.3716 83.7429 37.6407 85.0668 44 85.0668C66.6438 85.0668 85.0666 66.644 85.0666 44.0002C85.0666 42.0965 84.936 40.1823 84.6764 38.3139C84.5651 37.51 85.1252 36.7694 85.9275 36.6594ZM26.4 55.1715V14.6666C26.4 9.81334 22.4532 5.86658 17.6 5.86658C12.7468 5.86658 8.8 9.81334 8.8 14.6666V16.1332C8.8 16.9427 9.45708 17.5998 10.2666 17.5998C11.0761 17.5998 11.7332 16.9427 11.7332 16.1332V14.6666C11.7332 11.431 14.3645 8.79997 17.5998 8.79997C20.8354 8.79997 23.4664 11.4312 23.4664 14.6666V56.0412C23.4664 56.5927 23.7744 57.0972 24.2643 57.348C29.201 59.8735 32.2664 64.8749 32.2664 70.3998C32.2664 78.487 25.6869 85.0664 17.5998 85.0664C9.51277 85.0664 2.93339 78.4872 2.93339 70.4C2.93339 64.875 5.99878 59.8737 10.9355 57.3481C11.4254 57.0974 11.7334 56.5927 11.7334 56.0414V49.8667H13.2C14.0095 49.8667 14.6666 49.2097 14.6666 48.4001C14.6666 47.5906 14.0095 46.9335 13.2 46.9335H11.7334V41.0669H13.2C14.0095 41.0669 14.6666 40.4098 14.6666 39.6003C14.6666 38.7908 14.0095 38.1337 13.2 38.1337H11.7334V32.2671H13.2C14.0095 32.2671 14.6666 31.61 14.6666 30.8005C14.6666 29.991 14.0095 29.3339 13.2 29.3339H11.7334V23.4673H19.0668C19.8763 23.4673 20.5334 22.8102 20.5334 22.0007C20.5334 21.1911 19.8763 20.534 19.0668 20.534H10.2668C9.45725 20.534 8.80017 21.1911 8.80017 22.0007V55.1722C3.34984 58.3175 0 64.0727 0 70.4C0 80.1049 7.89508 88 17.6 88C27.3049 88 35.2 80.1049 35.2 70.4C35.2 64.0727 31.8502 58.3175 26.4 55.1715ZM48.466 77.5574C47.4935 78.5297 46.046 79.0871 44.4957 79.0871C42.9455 79.0871 41.4978 78.5297 40.5255 77.5574C39.5194 76.5513 39.3258 75.045 39.9975 73.4243C40.8775 71.2991 43.2726 68.9334 45.3024 68.9334C45.9654 68.9334 46.552 69.1696 46.9994 69.617C48.9515 71.5705 50.6983 75.3251 48.466 77.5574ZM45.1337 71.9108C44.4884 72.16 43.1215 73.3994 42.658 74.6754C42.5509 74.9673 42.4717 75.3559 42.5994 75.4836C43.4383 76.3225 45.5517 76.324 46.3921 75.4836C46.9141 74.9614 46.2615 73.1648 45.1337 71.9108Z" fill="#7FFFD4"/>
</svg>
