<svg width="88" height="88" viewBox="0 0 88 88" fill="none" xmlns="http://www.w3.org/2000/svg">
<path fill-rule="evenodd" clip-rule="evenodd" d="M77.5867 17.16C77.7333 17.3067 77.7333 17.4533 77.7333 17.6V86.5333C77.7333 87.4133 77.1467 88 76.2667 88H11.7333C10.8533 88 10.2667 87.4133 10.2667 86.5333V1.46667C10.2667 0.586667 10.8533 0 11.7333 0H60.1333C60.2067 0 60.28 0.0366662 60.3533 0.0733326C60.4267 0.11 60.5 0.146667 60.5733 0.146667H60.72C60.7933 0.22 60.8667 0.256666 60.94 0.293333C61.0133 0.33 61.0867 0.366666 61.16 0.44L77.2933 16.5733C77.3667 16.6467 77.4033 16.72 77.44 16.7933C77.4767 16.8667 77.5133 16.94 77.5867 17.0133V17.16ZM61.6 16.1333H72.7467L61.6 4.98667V16.1333ZM13.2 2.93333V85.0667H74.8V19.0667H60.1333C59.2533 19.0667 58.6667 18.48 58.6667 17.6V2.93333H13.2ZM61.4533 42.5333H46.9333C46.0533 42.5333 45.4667 41.9467 45.4667 41.0667V24.9333C45.4667 24.0533 46.0533 23.4667 46.9333 23.4667C55.88 23.4667 63.0667 30.6533 63.0667 39.6C63.0667 39.8933 63.0667 40.1867 62.92 40.48V41.0667C62.92 41.9467 62.3333 42.5333 61.4533 42.5333ZM60.1333 39.6C60.1333 32.8533 55 27.28 48.4 26.5467V39.6H60.1333ZM41.0667 29.3333C32.12 29.3333 24.9333 36.52 24.9333 45.4666C24.9333 54.4133 32.12 61.6 41.0667 61.6C49.4267 61.6 56.1733 55.2933 57.0533 47.08C57.0533 46.64 56.9067 46.2 56.6133 45.9066C56.4667 45.6133 56.0267 45.4666 55.5867 45.4666H42.5333V30.8C42.5333 29.92 41.9467 29.3333 41.0667 29.3333ZM53.8267 48.4C52.5067 54.4133 47.2267 58.6666 41.0667 58.6666C33.7333 58.6666 27.8667 52.8 27.8667 45.4666C27.8667 38.72 33 33.1466 39.6 32.4133V46.9333C39.6 47.8133 40.1867 48.4 41.0667 48.4H53.8267ZM20.5333 7.33331H30.8V10.2666H20.5333V7.33331ZM42.5333 13.2H20.5333V16.1333H42.5333V13.2ZM20.5333 68.9333H49.8667V71.8667H20.5333V68.9333ZM20.5333 76.2667V79.2H64.5333V76.2667H20.5333ZM55.7333 71.8667V68.9333H64.5333V71.8667H55.7333Z" fill="#7FFFD4"/>
</svg>
