<svg width="89" height="88" viewBox="0 0 89 88" fill="none" xmlns="http://www.w3.org/2000/svg">
<path fill-rule="evenodd" clip-rule="evenodd" d="M44.5 2.93339C21.5973 2.93339 2.96672 21.3562 2.96672 44C2.96672 48.3589 3.65196 52.6445 5.00329 56.7395C5.25691 57.5094 4.8312 58.3366 4.05245 58.5889C3.89966 58.6374 3.74391 58.6623 3.59268 58.6623C2.96672 58.6623 2.38683 58.2692 2.18206 57.6488C0.73425 53.2605 0 48.6685 0 44C0 19.7385 19.9628 0 44.5 0C57.7758 0 70.2194 5.95753 78.6169 16.1069V8.8C78.6169 7.99047 79.2799 7.33339 80.1002 7.33339C80.9205 7.33339 81.5835 7.99047 81.5835 8.8V20.5332C81.5835 20.5608 81.5757 20.5865 81.5679 20.6122C81.5621 20.6316 81.5563 20.6509 81.5537 20.6711C81.5464 20.7738 81.5256 20.8677 81.4944 20.9645C81.4677 21.0538 81.4336 21.136 81.3891 21.2181C81.346 21.2989 81.294 21.3721 81.2347 21.4455C81.171 21.5232 81.1012 21.5921 81.0211 21.6552C81.0052 21.6684 80.9921 21.6837 80.979 21.699L80.9789 21.6991C80.9615 21.7195 80.944 21.7398 80.9203 21.7549C80.8985 21.7698 80.8747 21.7772 80.8512 21.7846C80.8332 21.7903 80.8154 21.7959 80.7986 21.8048C80.7081 21.8518 80.619 21.8869 80.5182 21.9163C80.4233 21.9441 80.3284 21.9661 80.2305 21.9735C80.2108 21.9755 80.192 21.9809 80.1731 21.9863C80.1494 21.9932 80.1256 22 80.1 22H68.2335C67.4132 22 66.7502 21.3429 66.7502 20.5334C66.7502 19.7239 67.4132 19.0668 68.2335 19.0668H77.2179C69.3859 8.91894 57.356 2.93339 44.5 2.93339ZM84.8556 29.1736C85.6387 28.9154 86.4753 29.332 86.7335 30.1005C88.236 34.5678 89 39.2451 89 44C89 68.2615 69.0372 88 44.5 88C31.2256 88 18.7835 82.0438 10.3833 71.8915V79.2C10.3833 80.0095 9.71872 80.6666 8.89999 80.6666C8.08126 80.6666 7.41672 80.0095 7.41672 79.2V67.4666C7.41672 67.4391 7.42392 67.4143 7.43113 67.3894C7.43699 67.3692 7.44285 67.3489 7.44488 67.3272C7.45531 67.226 7.4746 67.1321 7.50572 67.0354C7.53388 66.9458 7.56656 66.8637 7.61106 66.7831C7.65556 66.7009 7.70597 66.6277 7.76524 66.5543C7.83043 66.4766 7.89874 66.4091 7.97731 66.3446C7.99444 66.331 8.00836 66.315 8.02217 66.2991C8.03946 66.2793 8.0566 66.2596 8.0797 66.2449C8.10172 66.2304 8.12506 66.223 8.14824 66.2156C8.16731 66.2095 8.18628 66.2035 8.20433 66.1935C8.29177 66.1482 8.38077 66.1129 8.47724 66.0851C8.57511 66.0559 8.67158 66.0339 8.7724 66.0265C8.79214 66.0245 8.81042 66.0191 8.82866 66.0136L8.82876 66.0136C8.8516 66.0068 8.8744 66 8.89999 66H20.7667C21.5854 66 22.25 66.6571 22.25 67.4666C22.25 68.2761 21.5854 68.9332 20.7667 68.9332H11.7836C19.617 79.0826 31.647 85.0666 44.5 85.0666C67.4025 85.0666 86.0333 66.6439 86.0333 44C86.0333 39.5605 85.3213 35.1957 83.9166 31.0274C83.6586 30.2589 84.0798 29.4288 84.8556 29.1736ZM49.0785 57.7947C49.0811 57.7982 49.0838 57.8016 49.0866 57.8051L49.0866 57.8051C49.0943 57.815 49.1021 57.8249 49.1073 57.8366C49.1786 57.9803 49.2601 58.1226 49.3818 58.243C49.4946 58.3545 49.6281 58.4248 49.763 58.4937C49.7783 58.5016 49.7919 58.5119 49.8054 58.5221L49.8054 58.5222C49.8219 58.5347 49.8383 58.5472 49.8579 58.5552C50.0404 58.6316 50.2346 58.6726 50.4305 58.6726C50.435 58.6726 50.438 58.6697 50.4423 58.6697H57.7833L58.0963 58.6742C59.3957 58.6742 66.1079 58.4409 70.7611 53.84C75.9097 48.7506 75.6577 41.3236 75.6457 41.0697V33.7363C75.6457 32.9268 74.9827 32.2697 74.1624 32.2697L66.8081 32.2713L66.495 32.2668C65.1956 32.2668 58.4834 32.5 53.8302 37.0994C48.6816 42.1902 48.9382 49.6189 48.95 49.8697V57.1912C48.9484 57.3892 48.987 57.5872 49.0658 57.7736C49.0692 57.7812 49.0737 57.7881 49.0785 57.7947ZM55.9276 39.1732C59.7533 35.3908 65.4016 35.2 66.495 35.2L72.6791 35.2029L72.6805 41.1312C72.6835 41.1957 72.9015 47.5772 68.6637 51.766C64.8381 55.55 59.1897 55.7406 58.0963 55.7406L54.0128 55.7377L69.2822 40.6399C69.8622 40.0678 69.8622 39.1394 69.2822 38.566C68.7023 37.994 67.7646 37.994 67.1848 38.566L51.9167 53.6625L51.9152 49.8109C51.9122 49.7465 51.7165 43.3371 55.9276 39.1732ZM28.4443 20.5303C30.2675 20.5303 36.5656 20.878 41.0928 25.3557C46.2355 30.4436 45.9996 37.8708 45.9862 38.1848L45.9878 45.4507V45.4653V45.4666C45.9878 45.4702 45.9867 45.4734 45.9857 45.4767C45.9845 45.4803 45.9832 45.4841 45.9832 45.4887V74.8C45.9832 75.6096 45.3187 76.2667 44.5 76.2667C43.6812 76.2667 43.0167 75.6096 43.0167 74.8V46.9333L36.8371 46.9362C35.5378 46.9362 28.8257 46.7029 24.168 42.0962C19.0239 37.0068 19.276 29.5782 19.2893 29.2657L19.2878 21.9999C19.2878 21.1903 19.9523 20.5333 20.7711 20.5333L28.4443 20.5303ZM43.021 41.9159V38.126L43.0211 38.1244C43.0253 37.9584 43.1875 31.5791 38.9936 27.4296C35.1771 23.6543 29.5374 23.4637 28.4442 23.4637L22.2542 23.4666V29.326C22.2498 29.4493 22.0584 35.86 26.2666 40.0225C30.0968 43.8124 35.7437 44.003 36.8369 44.003L40.9355 44.0014L25.6556 28.8933C25.0757 28.3199 25.0757 27.3914 25.6556 26.8194C26.2341 26.246 27.173 26.246 27.753 26.8194L43.021 41.9159Z" fill="#7FFFD4"/>
</svg>
