<svg width="88" height="88" viewBox="0 0 88 88" fill="none" xmlns="http://www.w3.org/2000/svg">
<path fill-rule="evenodd" clip-rule="evenodd" d="M75.9555 31.132C76.7908 29.2895 77.2255 27.2848 77.2255 25.2309C77.2255 17.3391 70.805 10.9188 62.9133 10.9188C60.5318 10.9188 58.2206 11.5015 56.149 12.6152C53.4554 9.7835 49.757 8.18542 45.7952 8.18542C40.6314 8.18542 35.9018 10.9695 33.3711 15.3889C32.2186 15.095 31.0319 14.9465 29.8278 14.9465C21.936 14.9465 15.5156 21.367 15.5156 29.2587C15.5156 30.7201 15.733 32.1507 16.1636 33.527C13.0349 36.2321 11.1999 40.1962 11.1999 44.363C11.1999 51.9003 17.0566 58.0957 24.458 58.6369C24.442 58.9135 24.4339 59.1907 24.4339 59.4674C24.4339 67.3592 30.8544 73.7796 38.746 73.7796C43.4367 73.7796 47.8097 71.4507 50.4617 67.6864C53.1264 70.3646 56.7724 71.9096 60.6115 71.9096C68.1156 71.9096 74.289 66.105 74.8776 58.7496C81.3092 57.2872 86 51.5208 86 44.7949C86 38.4824 81.8169 32.9685 75.9555 31.132ZM73.0628 55.7148C72.2226 55.8193 71.5969 56.542 71.6139 57.3887C71.6153 57.4581 71.6166 57.5276 71.6166 57.5973C71.6166 63.6657 66.6796 68.6028 60.6112 68.6028C57.0132 68.6028 53.6348 66.8369 51.5742 63.8792C51.2364 63.3942 50.6632 63.1267 50.0764 63.177C49.4876 63.2274 48.9704 63.5884 48.72 64.1237C46.9159 67.9808 43.0006 70.4729 38.7457 70.4729C32.6773 70.4729 27.7403 65.5358 27.7403 59.4674C27.7403 58.7459 27.8113 58.0222 27.9509 57.3161C28.0506 56.8126 27.9107 56.2915 27.5725 55.9054C27.2575 55.546 26.8036 55.3416 26.329 55.3416C26.2939 55.3416 26.2589 55.3427 26.2244 55.345C25.9743 55.3609 25.7413 55.3687 25.5118 55.3687C19.4434 55.3687 14.5063 50.4316 14.5063 44.3632C14.5063 40.8339 16.219 37.493 19.088 35.4266C19.7097 34.9787 19.9423 34.1625 19.65 33.4541C19.1005 32.1227 18.8217 30.7112 18.8217 29.2588C18.8217 23.1904 23.7587 18.2534 29.8271 18.2534C31.1386 18.2534 32.4217 18.4818 33.6403 18.932C34.4591 19.2345 35.3721 18.8483 35.7251 18.0501C37.4878 14.0664 41.4403 11.4925 45.7942 11.4925C49.2233 11.4925 52.3965 13.05 54.5003 15.7657C55.0348 16.4561 56.0141 16.6115 56.7365 16.1208C58.5613 14.881 60.6968 14.2258 62.9123 14.2258C68.9807 14.2258 73.9178 19.1628 73.9178 25.2312C73.9178 27.4171 73.2781 29.5292 72.0683 31.3389C71.7518 31.8122 71.7013 32.4151 71.9344 32.9347C72.1673 33.4542 72.6514 33.817 73.2154 33.8955C78.6181 34.6452 82.6924 39.331 82.6924 44.7949C82.6932 50.3369 78.553 55.0316 73.0628 55.7148ZM21.4111 66.6768C21.4111 63.2175 18.5967 60.4033 15.1375 60.4033C13.3998 60.4033 11.7852 61.1038 10.6162 62.3246C10.1782 62.2285 9.72949 62.1804 9.27331 62.1804C5.81422 62.1802 3 64.9946 3 68.4538C3 71.5963 5.3227 74.2066 8.34167 74.6582C9.21382 77.1046 11.5459 78.8144 14.2493 78.8144C17.7083 78.8144 20.5227 76.0002 20.5227 72.5408C20.5227 71.8191 20.3989 71.1071 20.1594 70.4348C20.9648 69.3584 21.4111 68.0414 21.4111 66.6768ZM17.1009 68.9C16.5006 69.4307 16.3674 70.3157 16.7846 70.9996C17.0667 71.4623 17.2159 71.9951 17.2159 72.5411C17.2159 74.1769 15.8851 75.5077 14.2493 75.5077C12.7358 75.5077 11.4686 74.3757 11.3018 72.8742C11.2079 72.0308 10.4942 71.4034 9.6601 71.4034C9.61455 71.4034 9.56851 71.4052 9.52215 71.4092C9.42812 71.417 9.34658 71.4208 9.27363 71.4208C7.63779 71.4208 6.30703 70.09 6.30703 68.4542C6.30703 66.8183 7.63779 65.4874 9.27363 65.4874C9.70468 65.4874 10.1211 65.5785 10.5112 65.7581C11.2707 66.1078 12.1712 65.8353 12.61 65.1239C13.1558 64.239 14.1008 63.7107 15.1378 63.7107C16.7736 63.7107 18.1045 65.0414 18.1045 66.6773C18.1045 67.5256 17.7387 68.336 17.1009 68.9ZM60.3461 63.1617C61.9108 63.1617 63.3891 62.5603 64.5094 61.4687C65.1632 60.8314 66.2101 60.8449 66.8475 61.4987C67.4846 62.1526 67.4713 63.1994 66.8174 63.8368C65.0762 65.5342 62.7779 66.4688 60.3461 66.4688C58.7325 66.4688 57.143 66.0475 55.7492 65.2502C54.9567 64.7968 54.6814 63.7867 55.1348 62.994C55.5881 62.2016 56.5978 61.926 57.391 62.3796C58.2857 62.8912 59.3077 63.1617 60.3461 63.1617ZM68.1 56.4067C67.1908 56.3053 66.3748 56.9597 66.274 57.8672C66.2596 57.9961 66.2408 58.1266 66.2178 58.2551C66.0571 59.1538 66.6556 60.0129 67.5545 60.1735C67.6529 60.191 67.7508 60.1994 67.8473 60.1994C68.633 60.1994 69.3299 59.6373 69.4729 58.8368C69.5086 58.6369 69.5381 58.4336 69.5605 58.2327C69.6615 57.3251 69.0077 56.5076 68.1 56.4067ZM36.198 44.8475C36.2519 44.1447 36.8195 43.9016 37.6031 43.9016C38.603 43.9016 39.0624 44.1989 39.0628 45.3878C39.0628 48.3602 36.6037 50.4411 32.9016 50.4411C29.6319 50.4411 26.9295 48.7926 26.9295 44.4151V36.5517C26.9295 32.1741 29.6588 30.5258 32.9285 30.5258C36.6306 30.5258 39.0626 32.5523 39.0626 35.4168C39.0626 36.6326 38.6032 36.903 37.6304 36.903C36.7655 36.903 36.225 36.6057 36.1981 35.9572C36.144 35.0113 35.8198 33.0658 33.0365 33.0658C30.9558 33.0658 29.7938 34.1737 29.7938 36.5517V44.4151C29.7938 46.7931 30.9558 47.901 33.0905 47.901C35.8468 47.901 36.09 46.0364 36.198 44.8475ZM47.6014 30.5255C44.1697 30.5255 41.5484 32.1738 41.5484 36.5514V44.4149C41.5484 48.7925 44.1697 50.4408 47.6014 50.4408C51.006 50.4408 53.6815 48.7925 53.6815 44.4149V36.5514C53.6813 32.1738 51.0062 30.5255 47.6014 30.5255ZM50.817 44.415C50.817 46.793 49.601 47.9009 47.6015 47.9009C45.5748 47.9009 44.4128 46.793 44.4128 44.415V36.5516C44.4128 34.1736 45.5748 33.0658 47.6015 33.0658C49.6012 33.0658 50.817 34.1736 50.817 36.5516V44.415ZM59.0053 47.7388H66.9499C67.4361 47.7388 67.8957 48.3065 67.8957 48.9822C67.8957 49.6575 67.4364 50.2792 66.9499 50.2792H57.3299C56.7892 50.2792 56.0597 49.9008 56.0597 49.3334V46.7121C56.0597 44.4955 58.3252 42.8401 60.5619 41.2056C62.7426 39.6121 64.896 38.0385 64.896 35.9842C64.896 34.6601 64.0313 33.1468 61.9775 33.1468C60.4642 33.1468 59.2483 33.9846 59.2483 35.8219C59.2483 36.3624 58.6809 36.9029 57.7351 36.9029C56.9786 36.9029 56.4381 36.5247 56.4381 35.3085C56.4381 32.417 59.0322 30.5255 61.9775 30.5255C65.1122 30.5255 67.7605 32.6602 67.7605 35.903C67.7605 39.2586 64.8397 41.3071 62.3722 43.0378C60.5675 44.3035 59.0053 45.3992 59.0053 46.712V47.7388Z" fill="white"/>
</svg>
