<svg width="467" height="451" viewBox="0 0 467 451" fill="none" xmlns="http://www.w3.org/2000/svg">
<path d="M194.918 149.088L194.918 149.089C196.504 173.841 207.509 197.05 225.677 213.96C243.846 230.87 267.802 240.201 292.636 240.038C317.471 239.876 341.303 230.234 359.248 213.088C377.193 195.942 387.893 172.591 389.155 147.82C389.155 147.82 389.155 147.82 389.155 147.82L389.873 147.856L194.918 149.088ZM194.918 149.088C194.786 147.033 194.72 144.963 194.72 142.876L194.72 142.875M194.918 149.088L194.72 142.875M194.72 142.875C194.685 122.753 200.938 103.122 212.607 86.7184L212.608 86.7162M194.72 142.875L212.608 86.7162M212.608 86.7162C213.54 85.3954 214.51 84.0987 215.518 82.8262L215.52 82.8237M212.608 86.7162L215.52 82.8237M215.52 82.8237C216.213 81.9407 216.927 81.0754 217.651 80.2127C234.073 60.7838 257.465 48.5566 282.81 46.1546C308.155 43.7525 333.433 51.3675 353.221 67.3656L353.221 67.366M215.52 82.8237L353.221 67.366M353.221 67.366C354.392 68.3104 355.543 69.2884 356.669 70.2868C357.568 71.0863 358.453 71.9034 359.321 72.7381L359.323 72.7395M353.221 67.366L359.323 72.7395M359.323 72.7395C376.44 89.0914 386.975 111.132 388.943 134.706C389.168 137.403 389.28 140.126 389.28 142.876V143.459L359.323 72.7395Z" stroke="#663399" stroke-width="1.43941"/>
<mask id="path-3-inside-1" fill="white">
<path d="M215.153 83.6951C215.201 83.7153 215.247 83.7423 215.287 83.7752C215.819 84.2088 215.153 85.0426 215.234 85.7297C215.328 86.6102 216.512 86.8036 217.407 86.8904C218.302 86.9838 219.433 87.6975 219.009 88.4846C216.761 89.2518 214.487 88.498 212.192 87.6241C200.324 104.181 193.965 123.995 194 144.304C194 146.412 194.067 148.502 194.202 150.575C194.39 150.711 194.596 150.821 194.814 150.902C195.487 151.155 196.268 151.108 196.887 151.469C197.379 151.755 197.708 152.262 198.2 152.529C199.606 153.29 201.558 151.829 202.87 152.736C203.21 153.042 203.531 153.367 203.833 153.71C205.044 154.75 207.036 154.05 208.436 154.831C209.338 155.331 209.802 156.331 210.287 157.239C211.492 159.507 213.443 161.735 216.021 161.915C216.834 161.878 217.649 161.904 218.457 161.995C219.251 162.175 220.032 162.862 219.904 163.656C219.682 165.023 220.362 166.517 220.18 167.885C219.85 170.386 216.277 171.48 215.974 173.982C215.973 174.532 215.941 175.082 215.88 175.629C215.718 176.283 215.22 176.817 215.045 177.471C214.709 178.705 215.604 179.939 216.58 180.766C217.562 181.6 218.733 182.32 219.272 183.481C219.837 184.715 219.561 186.149 219.743 187.49C220.147 190.418 222.697 192.586 225.322 193.987C226.163 194.335 226.91 194.875 227.503 195.561C228.176 196.529 228.108 197.803 228.337 198.957C228.889 201.778 231.285 204.106 231.352 206.981C231.399 209.029 230.255 210.884 229.569 212.811C228.863 214.832 228.653 216.991 228.956 219.108C232.794 222.334 236.873 225.267 241.158 227.88C241.391 227.539 241.562 227.16 241.663 226.76C241.744 226.317 241.688 225.861 241.502 225.451C241.315 225.042 241.008 224.698 240.62 224.465C241.343 224.194 242.001 223.776 242.551 223.238C242.821 222.962 243 222.611 243.063 222.231C243.125 221.852 243.069 221.463 242.901 221.116C244.086 221.263 245.492 221.336 246.273 220.436C246.899 219.716 246.858 218.635 246.609 217.721C246.36 216.8 245.943 215.913 245.936 214.959C248.681 215.092 251.431 215 254.16 214.686C253.766 213.366 252.867 212.251 251.657 211.577C252.895 211.371 254.019 209.903 254.409 208.722C254.747 207.518 254.766 206.247 254.463 205.033C254.37 204.722 254.356 204.391 254.423 204.073C254.622 203.65 254.972 203.315 255.406 203.132C257.451 201.965 259.497 200.8 261.543 199.637C261.908 199.454 262.24 199.213 262.526 198.923C263.165 198.169 263.071 197.042 262.741 196.115C262.412 195.188 261.887 194.314 261.759 193.34C261.382 190.425 264.532 188.33 265.595 185.582C265.956 184.485 266.151 183.341 266.174 182.187C266.261 180.946 266.268 179.512 265.312 178.718C264.39 177.951 262.957 178.124 261.994 177.411C261.113 176.757 260.81 175.496 259.847 174.969C258.972 174.489 257.882 174.796 256.906 174.569C255.197 174.175 254.12 172.221 252.37 172.041C251.388 171.934 250.27 172.414 249.463 171.847C248.749 171.34 248.723 170.333 248.588 169.479C248.349 168.149 247.705 166.924 246.742 165.967C245.78 165.011 244.545 164.37 243.204 164.129C242.188 163.969 241.084 164.029 240.216 163.476C239.341 162.915 238.944 161.868 238.251 161.088C237.147 159.84 235.397 159.393 233.762 159.013C231.541 158.499 229.322 157.983 227.105 157.465C225.928 157.185 224.407 157.038 223.767 158.066C223.578 158.456 223.447 158.872 223.377 159.3C223.137 160.07 222.657 160.745 222.007 161.229C221.357 161.712 220.569 161.981 219.756 161.995C219.2 161.053 218.298 160.36 217.239 160.06C216.547 159.945 215.864 159.785 215.193 159.58C214.843 159.41 214.532 159.171 214.278 158.877C214.024 158.584 213.833 158.242 213.717 157.873C213.602 157.504 213.563 157.116 213.604 156.731C213.644 156.347 213.764 155.975 213.955 155.638C214.337 154.961 214.483 154.178 214.373 153.411C214.262 152.643 213.9 151.932 213.342 151.388C212.212 150.381 210.576 150.134 209.055 150.234C208.658 149.374 209.325 148.407 210.038 147.78C210.758 147.159 211.626 146.546 211.781 145.612C212.03 144.144 210.139 143.03 208.705 143.464C207.272 143.904 206.357 145.285 205.751 146.646C205.457 147.449 205.057 148.209 204.56 148.907C204.305 149.252 203.959 149.521 203.56 149.683C203.161 149.846 202.724 149.896 202.298 149.828C201.114 149.527 200.663 148.133 200.4 146.959C199.98 145.39 199.767 143.773 199.768 142.15C199.778 140.51 200.435 138.94 201.598 137.774C203.557 135.986 206.572 136.159 209.217 136.446C208.934 136.072 208.798 135.608 208.835 135.141C208.872 134.674 209.08 134.237 209.419 133.911C209.773 133.6 210.198 133.379 210.658 133.267C211.118 133.156 211.598 133.157 212.057 133.271C212.854 133.435 213.573 133.86 214.096 134.478C214.85 135.386 215.065 136.62 215.631 137.647C216.203 138.681 217.481 139.561 218.525 139.008C219.433 138.528 219.574 137.287 219.352 136.293C219.124 135.306 218.646 134.338 218.726 133.324C218.881 131.397 220.907 130.229 222.691 129.436C224.474 128.642 226.513 127.568 226.796 125.647C226.809 125.273 226.882 124.904 227.011 124.553C227.209 124.239 227.485 123.982 227.812 123.806C233.014 120.397 238.311 116.941 244.26 115.08C244.57 114.98 244.604 115.087 244.92 115.014C245.364 114.76 245.068 114.06 244.644 113.78C244.22 113.499 243.655 113.279 243.547 112.786C243.473 112.425 243.688 112.065 243.742 111.698C243.756 111.477 243.715 111.255 243.623 111.053C243.53 110.851 243.389 110.674 243.212 110.538C243.035 110.403 242.826 110.312 242.606 110.275C242.385 110.238 242.158 110.255 241.945 110.324C241.467 109.697 242.41 108.97 243.177 108.757C245.474 108.133 247.832 107.753 250.21 107.623C250.484 107.578 250.766 107.625 251.011 107.756C251.186 107.923 251.289 108.151 251.301 108.391C251.312 108.632 251.23 108.868 251.071 109.05C250.748 109.407 250.389 109.731 250.001 110.017C249.615 110.389 249.339 110.859 249.204 111.375C249.069 111.892 249.079 112.435 249.234 112.946C250.479 113.573 251.825 114.22 253.205 114C254.578 113.78 255.796 112.245 255.15 111.025C254.551 109.884 252.74 109.624 252.431 108.376C252.067 106.916 254.154 105.615 253.683 104.187C253.481 103.56 252.848 103.187 252.363 102.74C251.793 102.183 251.405 101.469 251.251 100.691C251.096 99.913 251.181 99.1066 251.495 98.3772C250.707 98.5136 249.898 98.4613 249.135 98.2246C248.371 97.9878 247.676 97.5736 247.107 97.0164C246.057 95.9691 245.223 94.3081 243.729 94.3615C242.363 94.4015 241.185 95.9824 239.906 95.5021C239.59 95.3821 239.26 95.1419 238.957 95.282C238.857 95.3457 238.773 95.431 238.711 95.5315C238.65 95.632 238.612 95.7452 238.6 95.8623C238.277 97.4032 238.836 99.1576 237.988 100.492C237.066 101.939 234.933 102.139 233.815 103.447C233.21 104.154 232.974 105.108 232.415 105.855C231.857 106.602 230.679 107.082 230.006 106.429C230.336 105.759 230.426 104.998 230.262 104.271C230.098 103.544 229.69 102.893 229.104 102.426C228.484 102.023 227.815 101.7 227.112 101.466C226.327 101.137 225.58 100.726 224.885 100.238C224.538 100.029 224.256 99.7289 224.07 99.3711C223.923 98.9212 223.942 98.4342 224.124 97.997C224.465 97.0336 225.064 96.1804 225.857 95.5293C226.651 94.8782 227.608 94.4537 228.626 94.3015C229.515 94.1814 230.551 94.2214 231.143 93.5477C231.453 93.1941 231.615 92.6538 232.072 92.5137C232.361 92.4541 232.661 92.4892 232.927 92.6138C234.037 93.0007 235.141 93.3876 236.252 93.7745C236.622 93.9428 237.031 94.0096 237.436 93.9679C237.637 93.9423 237.82 93.8418 237.949 93.6869C238.078 93.532 238.142 93.3344 238.129 93.1341C238.022 92.5871 237.174 92.327 237.254 91.7733C237.294 91.5924 237.39 91.4288 237.53 91.3064C238.731 90.0409 240.198 89.054 241.828 88.4163C243.458 87.7786 245.21 87.5058 246.959 87.6175C247.377 88.3046 246.717 89.1117 246.158 89.6921C245.606 90.2791 245.162 91.3197 245.835 91.7666C246.107 91.9077 246.411 91.9767 246.717 91.9667C247.535 92.0756 248.331 92.3143 249.073 92.6738C250.223 93.1675 251.354 93.7144 252.458 94.3015C252.295 93.5863 252.323 92.8415 252.538 92.1402C252.66 91.7959 252.907 91.5089 253.23 91.335C253.554 91.1611 253.931 91.1129 254.288 91.1996C254.948 91.4531 255.284 92.3203 255.991 92.4003C256.927 92.5071 257.297 91.1329 256.906 90.2791C256.516 89.4252 255.735 88.7182 255.675 87.7776C255.628 87.1506 255.87 86.3701 255.365 85.9899C255.186 85.872 254.98 85.7988 254.766 85.7764C250.54 85.0093 246.311 84.24 242.08 83.4684C241.326 83.3283 240.243 83.435 240.209 84.1888C240.189 84.6157 240.572 85.036 240.404 85.4229C240.222 85.8365 239.63 85.8031 239.199 85.9498C238.876 86.0954 238.609 86.3414 238.439 86.6507C238.269 86.96 238.205 87.3158 238.257 87.6642C238.372 88.3578 238.644 89.0168 239.051 89.592C238.224 89.2518 236.979 89.1918 236.151 88.8449C236.03 87.8948 235.786 86.9643 235.424 86.0766C235.403 85.9353 235.351 85.8002 235.272 85.6809C235.193 85.5615 235.089 85.4608 234.966 85.3858C234.844 85.3107 234.706 85.2632 234.563 85.2466C234.42 85.23 234.275 85.2446 234.138 85.2895C233.048 85.4562 231.958 85.6163 230.868 85.7831C230.594 85.796 230.332 85.8966 230.121 86.0699C229.697 86.5169 230.114 87.2306 230.1 87.8443C230.061 88.1875 229.915 88.5099 229.682 88.7669C229.449 89.0239 229.141 89.2027 228.801 89.2785C228.116 89.4163 227.41 89.4072 226.729 89.2518C225.201 89.0183 223.68 88.7848 222.152 88.5514C223.501 88.1255 224.7 87.3299 225.611 86.2567C226.217 85.5496 226.54 84.2288 225.665 83.8953C225.407 83.825 225.137 83.8046 224.871 83.8353C222.798 83.8486 221.163 82.1343 219.225 81.4072C218.615 81.1818 217.97 81.0644 217.32 81.0603L215.153 83.6951Z"/>
</mask>
<path d="M215.153 83.6951C215.201 83.7153 215.247 83.7423 215.287 83.7752C215.819 84.2088 215.153 85.0426 215.234 85.7297C215.328 86.6102 216.512 86.8036 217.407 86.8904C218.302 86.9838 219.433 87.6975 219.009 88.4846C216.761 89.2518 214.487 88.498 212.192 87.6241C200.324 104.181 193.965 123.995 194 144.304C194 146.412 194.067 148.502 194.202 150.575C194.39 150.711 194.596 150.821 194.814 150.902C195.487 151.155 196.268 151.108 196.887 151.469C197.379 151.755 197.708 152.262 198.2 152.529C199.606 153.29 201.558 151.829 202.87 152.736C203.21 153.042 203.531 153.367 203.833 153.71C205.044 154.75 207.036 154.05 208.436 154.831C209.338 155.331 209.802 156.331 210.287 157.239C211.492 159.507 213.443 161.735 216.021 161.915C216.834 161.878 217.649 161.904 218.457 161.995C219.251 162.175 220.032 162.862 219.904 163.656C219.682 165.023 220.362 166.517 220.18 167.885C219.85 170.386 216.277 171.48 215.974 173.982C215.973 174.532 215.941 175.082 215.88 175.629C215.718 176.283 215.22 176.817 215.045 177.471C214.709 178.705 215.604 179.939 216.58 180.766C217.562 181.6 218.733 182.32 219.272 183.481C219.837 184.715 219.561 186.149 219.743 187.49C220.147 190.418 222.697 192.586 225.322 193.987C226.163 194.335 226.91 194.875 227.503 195.561C228.176 196.529 228.108 197.803 228.337 198.957C228.889 201.778 231.285 204.106 231.352 206.981C231.399 209.029 230.255 210.884 229.569 212.811C228.863 214.832 228.653 216.991 228.956 219.108C232.794 222.334 236.873 225.267 241.158 227.88C241.391 227.539 241.562 227.16 241.663 226.76C241.744 226.317 241.688 225.861 241.502 225.451C241.315 225.042 241.008 224.698 240.62 224.465C241.343 224.194 242.001 223.776 242.551 223.238C242.821 222.962 243 222.611 243.063 222.231C243.125 221.852 243.069 221.463 242.901 221.116C244.086 221.263 245.492 221.336 246.273 220.436C246.899 219.716 246.858 218.635 246.609 217.721C246.36 216.8 245.943 215.913 245.936 214.959C248.681 215.092 251.431 215 254.16 214.686C253.766 213.366 252.867 212.251 251.657 211.577C252.895 211.371 254.019 209.903 254.409 208.722C254.747 207.518 254.766 206.247 254.463 205.033C254.37 204.722 254.356 204.391 254.423 204.073C254.622 203.65 254.972 203.315 255.406 203.132C257.451 201.965 259.497 200.8 261.543 199.637C261.908 199.454 262.24 199.213 262.526 198.923C263.165 198.169 263.071 197.042 262.741 196.115C262.412 195.188 261.887 194.314 261.759 193.34C261.382 190.425 264.532 188.33 265.595 185.582C265.956 184.485 266.151 183.341 266.174 182.187C266.261 180.946 266.268 179.512 265.312 178.718C264.39 177.951 262.957 178.124 261.994 177.411C261.113 176.757 260.81 175.496 259.847 174.969C258.972 174.489 257.882 174.796 256.906 174.569C255.197 174.175 254.12 172.221 252.37 172.041C251.388 171.934 250.27 172.414 249.463 171.847C248.749 171.34 248.723 170.333 248.588 169.479C248.349 168.149 247.705 166.924 246.742 165.967C245.78 165.011 244.545 164.37 243.204 164.129C242.188 163.969 241.084 164.029 240.216 163.476C239.341 162.915 238.944 161.868 238.251 161.088C237.147 159.84 235.397 159.393 233.762 159.013C231.541 158.499 229.322 157.983 227.105 157.465C225.928 157.185 224.407 157.038 223.767 158.066C223.578 158.456 223.447 158.872 223.377 159.3C223.137 160.07 222.657 160.745 222.007 161.229C221.357 161.712 220.569 161.981 219.756 161.995C219.2 161.053 218.298 160.36 217.239 160.06C216.547 159.945 215.864 159.785 215.193 159.58C214.843 159.41 214.532 159.171 214.278 158.877C214.024 158.584 213.833 158.242 213.717 157.873C213.602 157.504 213.563 157.116 213.604 156.731C213.644 156.347 213.764 155.975 213.955 155.638C214.337 154.961 214.483 154.178 214.373 153.411C214.262 152.643 213.9 151.932 213.342 151.388C212.212 150.381 210.576 150.134 209.055 150.234C208.658 149.374 209.325 148.407 210.038 147.78C210.758 147.159 211.626 146.546 211.781 145.612C212.03 144.144 210.139 143.03 208.705 143.464C207.272 143.904 206.357 145.285 205.751 146.646C205.457 147.449 205.057 148.209 204.56 148.907C204.305 149.252 203.959 149.521 203.56 149.683C203.161 149.846 202.724 149.896 202.298 149.828C201.114 149.527 200.663 148.133 200.4 146.959C199.98 145.39 199.767 143.773 199.768 142.15C199.778 140.51 200.435 138.94 201.598 137.774C203.557 135.986 206.572 136.159 209.217 136.446C208.934 136.072 208.798 135.608 208.835 135.141C208.872 134.674 209.08 134.237 209.419 133.911C209.773 133.6 210.198 133.379 210.658 133.267C211.118 133.156 211.598 133.157 212.057 133.271C212.854 133.435 213.573 133.86 214.096 134.478C214.85 135.386 215.065 136.62 215.631 137.647C216.203 138.681 217.481 139.561 218.525 139.008C219.433 138.528 219.574 137.287 219.352 136.293C219.124 135.306 218.646 134.338 218.726 133.324C218.881 131.397 220.907 130.229 222.691 129.436C224.474 128.642 226.513 127.568 226.796 125.647C226.809 125.273 226.882 124.904 227.011 124.553C227.209 124.239 227.485 123.982 227.812 123.806C233.014 120.397 238.311 116.941 244.26 115.08C244.57 114.98 244.604 115.087 244.92 115.014C245.364 114.76 245.068 114.06 244.644 113.78C244.22 113.499 243.655 113.279 243.547 112.786C243.473 112.425 243.688 112.065 243.742 111.698C243.756 111.477 243.715 111.255 243.623 111.053C243.53 110.851 243.389 110.674 243.212 110.538C243.035 110.403 242.826 110.312 242.606 110.275C242.385 110.238 242.158 110.255 241.945 110.324C241.467 109.697 242.41 108.97 243.177 108.757C245.474 108.133 247.832 107.753 250.21 107.623C250.484 107.578 250.766 107.625 251.011 107.756C251.186 107.923 251.289 108.151 251.301 108.391C251.312 108.632 251.23 108.868 251.071 109.05C250.748 109.407 250.389 109.731 250.001 110.017C249.615 110.389 249.339 110.859 249.204 111.375C249.069 111.892 249.079 112.435 249.234 112.946C250.479 113.573 251.825 114.22 253.205 114C254.578 113.78 255.796 112.245 255.15 111.025C254.551 109.884 252.74 109.624 252.431 108.376C252.067 106.916 254.154 105.615 253.683 104.187C253.481 103.56 252.848 103.187 252.363 102.74C251.793 102.183 251.405 101.469 251.251 100.691C251.096 99.913 251.181 99.1066 251.495 98.3772C250.707 98.5136 249.898 98.4613 249.135 98.2246C248.371 97.9878 247.676 97.5736 247.107 97.0164C246.057 95.9691 245.223 94.3081 243.729 94.3615C242.363 94.4015 241.185 95.9824 239.906 95.5021C239.59 95.3821 239.26 95.1419 238.957 95.282C238.857 95.3457 238.773 95.431 238.711 95.5315C238.65 95.632 238.612 95.7452 238.6 95.8623C238.277 97.4032 238.836 99.1576 237.988 100.492C237.066 101.939 234.933 102.139 233.815 103.447C233.21 104.154 232.974 105.108 232.415 105.855C231.857 106.602 230.679 107.082 230.006 106.429C230.336 105.759 230.426 104.998 230.262 104.271C230.098 103.544 229.69 102.893 229.104 102.426C228.484 102.023 227.815 101.7 227.112 101.466C226.327 101.137 225.58 100.726 224.885 100.238C224.538 100.029 224.256 99.7289 224.07 99.3711C223.923 98.9212 223.942 98.4342 224.124 97.997C224.465 97.0336 225.064 96.1804 225.857 95.5293C226.651 94.8782 227.608 94.4537 228.626 94.3015C229.515 94.1814 230.551 94.2214 231.143 93.5477C231.453 93.1941 231.615 92.6538 232.072 92.5137C232.361 92.4541 232.661 92.4892 232.927 92.6138C234.037 93.0007 235.141 93.3876 236.252 93.7745C236.622 93.9428 237.031 94.0096 237.436 93.9679C237.637 93.9423 237.82 93.8418 237.949 93.6869C238.078 93.532 238.142 93.3344 238.129 93.1341C238.022 92.5871 237.174 92.327 237.254 91.7733C237.294 91.5924 237.39 91.4288 237.53 91.3064C238.731 90.0409 240.198 89.054 241.828 88.4163C243.458 87.7786 245.21 87.5058 246.959 87.6175C247.377 88.3046 246.717 89.1117 246.158 89.6921C245.606 90.2791 245.162 91.3197 245.835 91.7666C246.107 91.9077 246.411 91.9767 246.717 91.9667C247.535 92.0756 248.331 92.3143 249.073 92.6738C250.223 93.1675 251.354 93.7144 252.458 94.3015C252.295 93.5863 252.323 92.8415 252.538 92.1402C252.66 91.7959 252.907 91.5089 253.23 91.335C253.554 91.1611 253.931 91.1129 254.288 91.1996C254.948 91.4531 255.284 92.3203 255.991 92.4003C256.927 92.5071 257.297 91.1329 256.906 90.2791C256.516 89.4252 255.735 88.7182 255.675 87.7776C255.628 87.1506 255.87 86.3701 255.365 85.9899C255.186 85.872 254.98 85.7988 254.766 85.7764C250.54 85.0093 246.311 84.24 242.08 83.4684C241.326 83.3283 240.243 83.435 240.209 84.1888C240.189 84.6157 240.572 85.036 240.404 85.4229C240.222 85.8365 239.63 85.8031 239.199 85.9498C238.876 86.0954 238.609 86.3414 238.439 86.6507C238.269 86.96 238.205 87.3158 238.257 87.6642C238.372 88.3578 238.644 89.0168 239.051 89.592C238.224 89.2518 236.979 89.1918 236.151 88.8449C236.03 87.8948 235.786 86.9643 235.424 86.0766C235.403 85.9353 235.351 85.8002 235.272 85.6809C235.193 85.5615 235.089 85.4608 234.966 85.3858C234.844 85.3107 234.706 85.2632 234.563 85.2466C234.42 85.23 234.275 85.2446 234.138 85.2895C233.048 85.4562 231.958 85.6163 230.868 85.7831C230.594 85.796 230.332 85.8966 230.121 86.0699C229.697 86.5169 230.114 87.2306 230.1 87.8443C230.061 88.1875 229.915 88.5099 229.682 88.7669C229.449 89.0239 229.141 89.2027 228.801 89.2785C228.116 89.4163 227.41 89.4072 226.729 89.2518C225.201 89.0183 223.68 88.7848 222.152 88.5514C223.501 88.1255 224.7 87.3299 225.611 86.2567C226.217 85.5496 226.54 84.2288 225.665 83.8953C225.407 83.825 225.137 83.8046 224.871 83.8353C222.798 83.8486 221.163 82.1343 219.225 81.4072C218.615 81.1818 217.97 81.0644 217.32 81.0603L215.153 83.6951Z" stroke="#663399" stroke-width="2.87882" mask="url(#path-3-inside-1)"/>
<mask id="path-4-inside-2" fill="white">
<path d="M389.874 148.015C389.641 148.333 389.335 148.588 388.982 148.758C388.629 148.928 388.24 149.007 387.85 148.989C385.779 148.807 384.906 145.777 382.855 145.435C382.674 145.388 382.482 145.407 382.313 145.488C382.009 145.656 381.956 146.073 381.936 146.422C381.85 148.156 381.777 149.956 382.445 151.555C383.418 153.893 385.938 155.855 385.409 158.334C382.564 156.997 381.082 153.752 380.414 150.642C379.74 147.531 379.634 144.266 378.43 141.323C377.51 142.512 375.592 141.531 374.758 140.282C373.964 139.099 373.475 137.728 372.707 136.526C371.94 135.33 370.762 134.255 369.36 134.188C367.885 134.121 366.601 135.149 365.477 136.123C364.498 136.857 363.677 137.785 363.062 138.85C362.275 140.463 362.48 142.358 362.44 144.151C362.401 146.086 361.997 148.136 360.694 149.56C359.39 150.978 356.989 151.475 355.554 150.191C354.859 149.457 354.365 148.552 354.118 147.565C352.557 142.945 351.259 138.239 350.228 133.469C349.99 134.557 349.044 135.962 348.144 135.323C347.943 135.149 347.781 134.934 347.668 134.692C345.988 131.809 342.885 130.076 339.743 129.035C336.607 128 333.306 127.516 330.203 126.374C328.463 125.732 326.801 124.892 325.248 123.868C324.854 124.458 324.624 125.145 324.582 125.857C324.54 126.569 324.688 127.279 325.01 127.913C325.359 128.533 325.899 129.018 326.548 129.294C327.196 129.57 327.916 129.62 328.596 129.438C329.284 129.209 329.866 128.726 330.547 128.484C331.229 128.249 332.148 128.363 332.446 129.035C332.737 129.673 332.3 130.446 332.519 131.117C332.843 132.132 334.358 132.213 334.887 133.14C335.043 133.507 335.078 133.915 334.989 134.304C334.9 134.693 334.69 135.044 334.391 135.303C333.782 135.807 333.11 136.227 332.393 136.553C330.17 137.809 328.589 139.952 326.644 141.619C324.699 143.292 321.954 144.508 319.638 143.439C320.188 140.597 316.86 138.515 316.245 135.686C316.04 134.752 316.145 133.765 315.861 132.858C315.444 131.541 314.293 130.64 313.354 129.646C312.212 128.425 311.323 126.985 310.738 125.41C310.153 123.835 309.884 122.157 309.947 120.475C310 119.306 310.211 118.117 309.947 116.975C309.689 115.839 308.756 114.737 307.605 114.784C304.979 114.905 301.664 115.107 300.288 112.829C299.792 112.016 299.58 110.827 300.295 110.202C300.798 109.766 301.539 109.806 302.194 109.873C304.172 110.068 306.143 110.27 308.121 110.464C309.504 110.599 310.999 110.713 312.189 109.981C313.38 109.248 313.896 107.293 312.791 106.427C311.991 105.795 310.549 105.829 310.311 104.828C310.119 103.988 311.032 103.04 310.536 102.335C310.185 101.838 309.391 101.972 308.908 102.348C308.487 102.793 308.029 103.2 307.539 103.564C306.593 104.062 305.468 103.585 304.449 103.262C303.431 102.94 302.068 102.913 301.578 103.873C301.023 104.942 302.061 106.353 301.519 107.428C300.791 108.845 298.343 108.039 297.325 109.262C296.16 110.659 298.118 112.755 297.728 114.543C297.226 114.796 296.667 114.912 296.107 114.88C295.547 114.848 295.004 114.67 294.533 114.361C294.07 114.041 293.701 113.6 293.466 113.084C293.231 112.568 293.137 111.997 293.197 111.432C293.289 110.626 293.706 109.799 293.428 109.04C293.128 108.454 292.634 107.994 292.032 107.743C290.114 106.662 288.195 105.584 286.277 104.512C285.741 105.52 286.416 106.762 287.262 107.522C288.103 108.274 289.161 108.845 289.717 109.84C290.069 110.529 290.148 111.328 289.939 112.075C289.73 112.822 289.248 113.459 288.592 113.857C288.509 113.915 288.415 113.954 288.315 113.972C288.216 113.989 288.114 113.985 288.017 113.958C287.925 113.903 287.845 113.831 287.781 113.744C287.718 113.658 287.672 113.559 287.646 113.454C286.634 110.814 285.106 108.214 282.671 106.836C280.23 105.452 276.731 105.741 275.13 108.059C274.753 108.61 274.495 109.242 274.164 109.826C272.411 112.923 268.64 114.388 265.121 114.294C264.776 114.316 264.433 114.235 264.135 114.059C263.566 113.662 263.592 112.816 263.678 112.117C263.804 111.13 263.923 110.149 264.049 109.161C264.052 108.558 264.281 107.979 264.691 107.542C265.346 107.018 266.285 107.347 267.118 107.334C267.748 107.305 268.353 107.08 268.851 106.689C269.35 106.298 269.717 105.761 269.904 105.15C270.071 104.534 270.07 103.882 269.9 103.267C269.729 102.651 269.397 102.094 268.938 101.656C268.561 101.294 268.051 100.837 268.25 100.346C268.33 100.211 268.439 100.095 268.568 100.007C268.697 99.9191 268.844 99.8605 268.997 99.8356C270.486 99.3989 272.067 99.2847 273.529 98.7606C274.997 98.2433 276.42 97.1817 276.77 95.6432C276.876 95.1729 276.923 94.6018 277.339 94.3667C277.55 94.2809 277.774 94.2353 278.001 94.2323C278.796 94.1165 279.52 93.7028 280.031 93.0726C280.541 92.4423 280.801 91.6409 280.759 90.8259C281.461 90.3288 282.446 90.6983 283.128 91.2291C283.803 91.7598 284.405 92.4586 285.232 92.687C286.773 93.117 288.261 91.7262 289.862 91.7195C290.537 91.7195 291.232 91.9614 291.86 91.7262C292.502 91.4911 292.886 90.8461 293.375 90.3691C293.871 89.8853 294.731 89.5964 295.188 90.1138C295.055 89.1396 294.93 88.1721 294.797 87.2046C295.577 87.404 296.389 87.4315 297.18 87.2855C297.971 87.1395 298.722 86.8233 299.382 86.3581C297.715 85.787 296.054 85.2159 294.387 84.6448C294.212 84.601 294.051 84.5132 293.918 84.3895C293.554 83.9931 293.918 83.375 294.209 82.9249C294.917 81.8432 295.036 80.0627 293.871 79.5253C293.077 79.1557 292.171 79.5992 291.41 80.0291C290.193 80.7144 288.976 81.4065 287.759 82.0918C287.646 82.7972 288.493 83.2003 289.016 83.6706C289.334 83.9575 289.56 84.3356 289.662 84.7552C289.765 85.1747 289.74 85.6161 289.591 86.0211C289.443 86.4261 289.176 86.7759 288.828 87.0243C288.48 87.2727 288.065 87.4082 287.64 87.4129C287.879 87.7308 288.046 88.0991 288.127 88.4909C288.208 88.8827 288.202 89.288 288.109 89.6771C287.296 89.7375 286.475 89.798 285.655 89.8585C285.519 89.8861 285.378 89.886 285.242 89.8583C285.106 89.8307 284.976 89.7759 284.861 89.6972C284.596 89.4621 284.636 89.0455 284.57 88.6962C284.461 88.2786 284.231 87.9037 283.911 87.6199C283.59 87.3361 283.193 87.1563 282.771 87.1038C281.928 87.0076 281.075 87.0876 280.263 87.339C279.911 87.4652 279.525 87.4556 279.178 87.3121C278.982 87.1801 278.833 86.9867 278.755 86.7612C278.611 86.3005 278.587 85.8098 278.684 85.3367C278.781 84.8636 278.997 84.4239 279.311 84.0603C279.946 83.3438 280.646 82.6893 281.401 82.1052C283.113 80.5832 284.371 78.605 285.033 76.3944C286.383 75.8166 287.778 75.0372 289.135 74.4594C290.225 73.9463 291.367 73.5565 292.542 73.2971C293.647 73.1257 294.766 73.0717 295.882 73.1359C297.404 73.1627 298.932 73.1896 300.454 73.2232C301.812 73.1652 303.169 73.3634 304.456 73.8077C305.706 74.3318 306.811 75.4672 306.897 76.8378C306.923 76.994 306.909 77.1544 306.857 77.3037C306.805 77.453 306.716 77.5864 306.599 77.6911C306.424 77.7897 306.224 77.8363 306.024 77.8255C304.76 77.8658 304.224 78.1883 302.961 78.2353C303.761 79.102 304.661 80.0157 305.825 80.1702C307.876 80.439 309.351 78.2823 310.297 76.4078C310.331 76.885 310.547 77.3298 310.9 77.6474C311.252 77.9649 311.712 78.1301 312.183 78.1076C312.69 78.0191 313.173 77.8272 313.605 77.5433C317.674 75.2848 322.232 74.0889 326.869 74.063C326.824 73.7065 326.91 73.3455 327.112 73.0501C327.313 72.7546 327.616 72.5458 327.961 72.464C328.907 72.2759 329.753 73.1023 330.21 73.9623C330.66 74.8222 330.944 75.8166 331.672 76.4616C332.393 77.1065 333.789 77.073 334.073 76.1458C334.351 75.2522 333.432 74.4863 332.671 73.9555C331.903 73.4315 331.103 72.4573 331.619 71.6779C335.509 70.7978 339.432 69.9244 343.421 69.7497C344.099 69.7705 344.774 69.6517 345.405 69.4003C345.718 69.2658 345.978 69.0303 346.146 68.7302C346.313 68.4302 346.379 68.0824 346.332 67.7408C345.461 67.9471 344.55 67.8861 343.714 67.5655C342.877 67.2449 342.154 66.6792 341.635 65.9402C345.73 65.5976 350.016 65.2952 353.953 66.2291L357.399 69.1987C356.744 69.8908 355.871 70.5425 356.347 71.2345C356.504 71.3934 356.695 71.5141 356.905 71.5874C357.114 71.6607 357.338 71.6848 357.558 71.6577C358.392 71.6712 359.225 71.6913 360.052 71.6913C377.163 88.314 387.695 110.72 389.663 134.685C388.273 134.631 386.997 136.418 387.175 137.977C387.387 139.784 388.67 141.236 389.59 142.794C389.742 143.048 389.879 143.31 390 143.58L389.874 148.015Z"/>
</mask>
<path d="M389.874 148.015C389.641 148.333 389.335 148.588 388.982 148.758C388.629 148.928 388.24 149.007 387.85 148.989C385.779 148.807 384.906 145.777 382.855 145.435C382.674 145.388 382.482 145.407 382.313 145.488C382.009 145.656 381.956 146.073 381.936 146.422C381.85 148.156 381.777 149.956 382.445 151.555C383.418 153.893 385.938 155.855 385.409 158.334C382.564 156.997 381.082 153.752 380.414 150.642C379.74 147.531 379.634 144.266 378.43 141.323C377.51 142.512 375.592 141.531 374.758 140.282C373.964 139.099 373.475 137.728 372.707 136.526C371.94 135.33 370.762 134.255 369.36 134.188C367.885 134.121 366.601 135.149 365.477 136.123C364.498 136.857 363.677 137.785 363.062 138.85C362.275 140.463 362.48 142.358 362.44 144.151C362.401 146.086 361.997 148.136 360.694 149.56C359.39 150.978 356.989 151.475 355.554 150.191C354.859 149.457 354.365 148.552 354.118 147.565C352.557 142.945 351.259 138.239 350.228 133.469C349.99 134.557 349.044 135.962 348.144 135.323C347.943 135.149 347.781 134.934 347.668 134.692C345.988 131.809 342.885 130.076 339.743 129.035C336.607 128 333.306 127.516 330.203 126.374C328.463 125.732 326.801 124.892 325.248 123.868C324.854 124.458 324.624 125.145 324.582 125.857C324.54 126.569 324.688 127.279 325.01 127.913C325.359 128.533 325.899 129.018 326.548 129.294C327.196 129.57 327.916 129.62 328.596 129.438C329.284 129.209 329.866 128.726 330.547 128.484C331.229 128.249 332.148 128.363 332.446 129.035C332.737 129.673 332.3 130.446 332.519 131.117C332.843 132.132 334.358 132.213 334.887 133.14C335.043 133.507 335.078 133.915 334.989 134.304C334.9 134.693 334.69 135.044 334.391 135.303C333.782 135.807 333.11 136.227 332.393 136.553C330.17 137.809 328.589 139.952 326.644 141.619C324.699 143.292 321.954 144.508 319.638 143.439C320.188 140.597 316.86 138.515 316.245 135.686C316.04 134.752 316.145 133.765 315.861 132.858C315.444 131.541 314.293 130.64 313.354 129.646C312.212 128.425 311.323 126.985 310.738 125.41C310.153 123.835 309.884 122.157 309.947 120.475C310 119.306 310.211 118.117 309.947 116.975C309.689 115.839 308.756 114.737 307.605 114.784C304.979 114.905 301.664 115.107 300.288 112.829C299.792 112.016 299.58 110.827 300.295 110.202C300.798 109.766 301.539 109.806 302.194 109.873C304.172 110.068 306.143 110.27 308.121 110.464C309.504 110.599 310.999 110.713 312.189 109.981C313.38 109.248 313.896 107.293 312.791 106.427C311.991 105.795 310.549 105.829 310.311 104.828C310.119 103.988 311.032 103.04 310.536 102.335C310.185 101.838 309.391 101.972 308.908 102.348C308.487 102.793 308.029 103.2 307.539 103.564C306.593 104.062 305.468 103.585 304.449 103.262C303.431 102.94 302.068 102.913 301.578 103.873C301.023 104.942 302.061 106.353 301.519 107.428C300.791 108.845 298.343 108.039 297.325 109.262C296.16 110.659 298.118 112.755 297.728 114.543C297.226 114.796 296.667 114.912 296.107 114.88C295.547 114.848 295.004 114.67 294.533 114.361C294.07 114.041 293.701 113.6 293.466 113.084C293.231 112.568 293.137 111.997 293.197 111.432C293.289 110.626 293.706 109.799 293.428 109.04C293.128 108.454 292.634 107.994 292.032 107.743C290.114 106.662 288.195 105.584 286.277 104.512C285.741 105.52 286.416 106.762 287.262 107.522C288.103 108.274 289.161 108.845 289.717 109.84C290.069 110.529 290.148 111.328 289.939 112.075C289.73 112.822 289.248 113.459 288.592 113.857C288.509 113.915 288.415 113.954 288.315 113.972C288.216 113.989 288.114 113.985 288.017 113.958C287.925 113.903 287.845 113.831 287.781 113.744C287.718 113.658 287.672 113.559 287.646 113.454C286.634 110.814 285.106 108.214 282.671 106.836C280.23 105.452 276.731 105.741 275.13 108.059C274.753 108.61 274.495 109.242 274.164 109.826C272.411 112.923 268.64 114.388 265.121 114.294C264.776 114.316 264.433 114.235 264.135 114.059C263.566 113.662 263.592 112.816 263.678 112.117C263.804 111.13 263.923 110.149 264.049 109.161C264.052 108.558 264.281 107.979 264.691 107.542C265.346 107.018 266.285 107.347 267.118 107.334C267.748 107.305 268.353 107.08 268.851 106.689C269.35 106.298 269.717 105.761 269.904 105.15C270.071 104.534 270.07 103.882 269.9 103.267C269.729 102.651 269.397 102.094 268.938 101.656C268.561 101.294 268.051 100.837 268.25 100.346C268.33 100.211 268.439 100.095 268.568 100.007C268.697 99.9191 268.844 99.8605 268.997 99.8356C270.486 99.3989 272.067 99.2847 273.529 98.7606C274.997 98.2433 276.42 97.1817 276.77 95.6432C276.876 95.1729 276.923 94.6018 277.339 94.3667C277.55 94.2809 277.774 94.2353 278.001 94.2323C278.796 94.1165 279.52 93.7028 280.031 93.0726C280.541 92.4423 280.801 91.6409 280.759 90.8259C281.461 90.3288 282.446 90.6983 283.128 91.2291C283.803 91.7598 284.405 92.4586 285.232 92.687C286.773 93.117 288.261 91.7262 289.862 91.7195C290.537 91.7195 291.232 91.9614 291.86 91.7262C292.502 91.4911 292.886 90.8461 293.375 90.3691C293.871 89.8853 294.731 89.5964 295.188 90.1138C295.055 89.1396 294.93 88.1721 294.797 87.2046C295.577 87.404 296.389 87.4315 297.18 87.2855C297.971 87.1395 298.722 86.8233 299.382 86.3581C297.715 85.787 296.054 85.2159 294.387 84.6448C294.212 84.601 294.051 84.5132 293.918 84.3895C293.554 83.9931 293.918 83.375 294.209 82.9249C294.917 81.8432 295.036 80.0627 293.871 79.5253C293.077 79.1557 292.171 79.5992 291.41 80.0291C290.193 80.7144 288.976 81.4065 287.759 82.0918C287.646 82.7972 288.493 83.2003 289.016 83.6706C289.334 83.9575 289.56 84.3356 289.662 84.7552C289.765 85.1747 289.74 85.6161 289.591 86.0211C289.443 86.4261 289.176 86.7759 288.828 87.0243C288.48 87.2727 288.065 87.4082 287.64 87.4129C287.879 87.7308 288.046 88.0991 288.127 88.4909C288.208 88.8827 288.202 89.288 288.109 89.6771C287.296 89.7375 286.475 89.798 285.655 89.8585C285.519 89.8861 285.378 89.886 285.242 89.8583C285.106 89.8307 284.976 89.7759 284.861 89.6972C284.596 89.4621 284.636 89.0455 284.57 88.6962C284.461 88.2786 284.231 87.9037 283.911 87.6199C283.59 87.3361 283.193 87.1563 282.771 87.1038C281.928 87.0076 281.075 87.0876 280.263 87.339C279.911 87.4652 279.525 87.4556 279.178 87.3121C278.982 87.1801 278.833 86.9867 278.755 86.7612C278.611 86.3005 278.587 85.8098 278.684 85.3367C278.781 84.8636 278.997 84.4239 279.311 84.0603C279.946 83.3438 280.646 82.6893 281.401 82.1052C283.113 80.5832 284.371 78.605 285.033 76.3944C286.383 75.8166 287.778 75.0372 289.135 74.4594C290.225 73.9463 291.367 73.5565 292.542 73.2971C293.647 73.1257 294.766 73.0717 295.882 73.1359C297.404 73.1627 298.932 73.1896 300.454 73.2232C301.812 73.1652 303.169 73.3634 304.456 73.8077C305.706 74.3318 306.811 75.4672 306.897 76.8378C306.923 76.994 306.909 77.1544 306.857 77.3037C306.805 77.453 306.716 77.5864 306.599 77.6911C306.424 77.7897 306.224 77.8363 306.024 77.8255C304.76 77.8658 304.224 78.1883 302.961 78.2353C303.761 79.102 304.661 80.0157 305.825 80.1702C307.876 80.439 309.351 78.2823 310.297 76.4078C310.331 76.885 310.547 77.3298 310.9 77.6474C311.252 77.9649 311.712 78.1301 312.183 78.1076C312.69 78.0191 313.173 77.8272 313.605 77.5433C317.674 75.2848 322.232 74.0889 326.869 74.063C326.824 73.7065 326.91 73.3455 327.112 73.0501C327.313 72.7546 327.616 72.5458 327.961 72.464C328.907 72.2759 329.753 73.1023 330.21 73.9623C330.66 74.8222 330.944 75.8166 331.672 76.4616C332.393 77.1065 333.789 77.073 334.073 76.1458C334.351 75.2522 333.432 74.4863 332.671 73.9555C331.903 73.4315 331.103 72.4573 331.619 71.6779C335.509 70.7978 339.432 69.9244 343.421 69.7497C344.099 69.7705 344.774 69.6517 345.405 69.4003C345.718 69.2658 345.978 69.0303 346.146 68.7302C346.313 68.4302 346.379 68.0824 346.332 67.7408C345.461 67.9471 344.55 67.8861 343.714 67.5655C342.877 67.2449 342.154 66.6792 341.635 65.9402C345.73 65.5976 350.016 65.2952 353.953 66.2291L357.399 69.1987C356.744 69.8908 355.871 70.5425 356.347 71.2345C356.504 71.3934 356.695 71.5141 356.905 71.5874C357.114 71.6607 357.338 71.6848 357.558 71.6577C358.392 71.6712 359.225 71.6913 360.052 71.6913C377.163 88.314 387.695 110.72 389.663 134.685C388.273 134.631 386.997 136.418 387.175 137.977C387.387 139.784 388.67 141.236 389.59 142.794C389.742 143.048 389.879 143.31 390 143.58L389.874 148.015Z" stroke="#663399" stroke-width="2.87882" mask="url(#path-4-inside-2)"/>
<path d="M74.9533 83.8989C78.2413 83.8989 80.9067 81.2353 80.9067 77.9495C80.9067 74.6637 78.2413 72 74.9533 72C71.6654 72 69 74.6637 69 77.9495C69 81.2353 71.6654 83.8989 74.9533 83.8989Z" fill="white"/>
<path d="M113.953 39.8989C117.241 39.8989 119.907 37.2352 119.907 33.9495C119.907 30.6637 117.241 28 113.953 28C110.665 28 108 30.6637 108 33.9495C108 37.2352 110.665 39.8989 113.953 39.8989Z" fill="white"/>
<path d="M175.631 83.2481C181.502 83.2481 186.262 78.4915 186.262 72.624C186.262 66.7565 181.502 62 175.631 62C169.76 62 165 66.7565 165 72.624C165 78.4915 169.76 83.2481 175.631 83.2481Z" fill="white"/>
<path d="M4.48807 147.247C5.89718 147.247 7.0395 146.106 7.0395 144.697C7.0395 143.289 5.89718 142.148 4.48807 142.148C3.07896 142.148 1.93665 143.289 1.93665 144.697C1.93665 146.106 3.07896 147.247 4.48807 147.247Z" fill="#FF6584"/>
<path d="M357.861 152.772C359.27 152.772 360.412 151.63 360.412 150.222C360.412 148.814 359.27 147.672 357.861 147.672C356.452 147.672 355.309 148.814 355.309 150.222C355.309 151.63 356.452 152.772 357.861 152.772Z" fill="#FF6584"/>
<path d="M360.412 44.8315C361.821 44.8315 362.963 43.6899 362.963 42.2817C362.963 40.8735 361.821 39.7319 360.412 39.7319C359.003 39.7319 357.861 40.8735 357.861 42.2817C357.861 43.6899 359.003 44.8315 360.412 44.8315Z" fill="white"/>
<path d="M15.1192 225.44C16.5283 225.44 17.6706 224.299 17.6706 222.89C17.6706 221.482 16.5283 220.341 15.1192 220.341C13.7101 220.341 12.5677 221.482 12.5677 222.89C12.5677 224.299 13.7101 225.44 15.1192 225.44Z" fill="white"/>
<path d="M322.141 200.792C323.55 200.792 324.692 199.651 324.692 198.242C324.692 196.834 323.55 195.693 322.141 195.693C320.731 195.693 319.589 196.834 319.589 198.242C319.589 199.651 320.731 200.792 322.141 200.792Z" fill="white"/>
<path d="M248.149 42.2817C249.558 42.2817 250.701 41.1401 250.701 39.7319C250.701 38.3237 249.558 37.1821 248.149 37.1821C246.74 37.1821 245.598 38.3237 245.598 39.7319C245.598 41.1401 246.74 42.2817 248.149 42.2817Z" fill="white"/>
<path d="M409.551 95.0995C410.961 95.0995 412.103 93.958 412.103 92.5498C412.103 91.1416 410.961 90 409.551 90C408.142 90 407 91.1416 407 92.5498C407 93.958 408.142 95.0995 409.551 95.0995Z" fill="white"/>
<path d="M423.551 72.0995C424.961 72.0995 426.103 70.958 426.103 69.5498C426.103 68.1416 424.961 67 423.551 67C422.142 67 421 68.1416 421 69.5498C421 70.958 422.142 72.0995 423.551 72.0995Z" fill="white"/>
<path d="M248 333.783C246.238 333.783 244.459 333.755 242.712 333.7L242.751 332.432C245.26 332.51 247.82 332.532 250.34 332.497L250.357 333.767C249.573 333.777 248.787 333.783 248 333.783ZM257.998 333.488L257.923 332.222C260.435 332.074 262.98 331.865 265.486 331.603L265.618 332.865C263.093 333.13 260.53 333.34 257.998 333.488V333.488ZM235.078 333.291C232.545 333.097 229.985 332.843 227.469 332.534L227.624 331.275C230.121 331.58 232.661 331.833 235.174 332.025L235.078 333.291ZM273.201 331.895L273.011 330.641C275.507 330.262 278.022 329.823 280.484 329.334L280.732 330.578C278.25 331.071 275.717 331.514 273.201 331.895V331.895ZM219.904 331.431C217.402 331.007 214.876 330.52 212.397 329.982L212.666 328.742C215.126 329.276 217.633 329.759 220.116 330.179L219.904 331.431ZM288.195 328.917L287.89 327.685C290.34 327.079 292.804 326.41 295.213 325.696L295.574 326.913C293.146 327.633 290.664 328.307 288.195 328.917V328.917ZM204.965 328.189C202.51 327.537 200.04 326.819 197.623 326.055L198.005 324.845C200.404 325.603 202.855 326.315 205.291 326.962L204.965 328.189ZM302.852 324.572L302.435 323.373C304.813 322.547 307.204 321.654 309.544 320.718L310.015 321.897C307.658 322.84 305.248 323.739 302.852 324.572V324.572ZM190.368 323.578C187.984 322.702 185.585 321.757 183.239 320.769L183.732 319.599C186.06 320.579 188.44 321.517 190.806 322.387L190.368 323.578ZM317.031 318.902L316.505 317.747C318.788 316.71 321.083 315.603 323.326 314.457L323.904 315.588C321.644 316.742 319.331 317.857 317.031 318.902ZM176.249 317.637C173.957 316.545 171.657 315.385 169.413 314.186L170.011 313.067C172.239 314.256 174.521 315.408 176.795 316.491L176.249 317.637ZM330.618 311.961L329.989 310.859C332.179 309.61 334.365 308.298 336.485 306.957L337.163 308.029C335.027 309.38 332.825 310.703 330.618 311.961V311.961ZM162.744 310.426C160.565 309.131 158.382 307.764 156.257 306.366L156.956 305.306C159.065 306.694 161.231 308.05 163.394 309.336L162.744 310.426ZM343.523 303.802L342.796 302.762C344.858 301.322 346.916 299.815 348.912 298.282L349.686 299.288C347.675 300.833 345.601 302.352 343.523 303.802V303.802ZM149.965 302.015C147.915 300.527 145.867 298.968 143.878 297.381L144.671 296.39C146.644 297.964 148.677 299.511 150.711 300.987L149.965 302.015ZM355.637 294.498L354.818 293.527C356.74 291.907 358.652 290.218 360.503 288.508L361.365 289.44C359.501 291.163 357.573 292.865 355.637 294.498ZM138.011 292.476C136.102 290.806 134.205 289.068 132.374 287.311L133.254 286.395C135.071 288.139 136.953 289.864 138.847 291.522L138.011 292.476ZM366.859 284.125L365.955 283.234C367.726 281.44 369.479 279.583 371.162 277.716L372.106 278.565C370.409 280.447 368.644 282.317 366.859 284.125H366.859ZM126.98 281.896C125.229 280.056 123.499 278.153 121.839 276.242L122.798 275.411C124.445 277.307 126.162 279.195 127.9 281.021L126.98 281.896ZM377.095 272.771L376.114 271.966C377.714 270.019 379.29 268.011 380.798 265.995L381.815 266.755C380.296 268.786 378.707 270.811 377.095 272.771H377.095ZM116.961 270.362C115.389 268.376 113.84 266.325 112.358 264.267L113.389 263.526C114.859 265.568 116.396 267.603 117.957 269.575L116.961 270.362ZM386.257 260.528L385.206 259.815C386.622 257.731 388.01 255.586 389.329 253.439L390.411 254.104C389.081 256.267 387.683 258.428 386.257 260.528L386.257 260.528ZM108.039 257.971C106.655 255.851 105.301 253.67 104.013 251.486L105.107 250.841C106.385 253.009 107.729 255.174 109.103 257.277L108.039 257.971ZM394.267 247.494L393.156 246.88C394.375 244.675 395.559 242.411 396.677 240.15L397.816 240.713C396.69 242.991 395.495 245.272 394.267 247.494V247.494ZM100.289 244.825C99.1051 242.588 97.9566 240.293 96.8761 238.004L98.0245 237.462C99.097 239.734 100.236 242.012 101.412 244.232L100.289 244.825ZM401.049 233.774L399.886 233.264C400.898 230.955 401.869 228.589 402.774 226.235L403.96 226.689C403.048 229.063 402.068 231.446 401.049 233.774V233.774ZM93.7803 231.035C92.8067 228.7 91.8744 226.311 91.0094 223.934L92.203 223.501C93.0613 225.86 93.9865 228.23 94.9523 230.547L93.7803 231.035ZM406.541 219.476L405.335 219.077C406.128 216.691 406.875 214.252 407.558 211.827L408.78 212.17C408.093 214.613 407.339 217.072 406.541 219.476V219.476ZM88.563 216.695C87.8074 214.276 87.0974 211.806 86.4528 209.35L87.6813 209.028C88.3209 211.465 89.0256 213.917 89.7753 216.317L88.563 216.695ZM410.68 204.768L409.443 204.481C410.011 202.035 410.531 199.537 410.988 197.058L412.237 197.287C411.777 199.786 411.253 202.303 410.68 204.768ZM84.6844 201.917C84.1548 199.438 83.6755 196.912 83.26 194.41L84.5126 194.201C84.9253 196.686 85.4009 199.192 85.9264 201.651L84.6844 201.917ZM413.447 189.743L412.188 189.571C412.53 187.085 412.818 184.551 413.046 182.037L414.311 182.151C414.082 184.685 413.791 187.238 413.447 189.743V189.743ZM82.1816 186.846C81.8821 184.333 81.6363 181.775 81.4505 179.241L82.7174 179.148C82.9013 181.663 83.1456 184.202 83.4429 186.696L82.1816 186.846ZM414.828 174.529L413.56 174.472C413.672 171.957 413.73 169.407 413.73 166.891H415C415 169.426 414.942 171.996 414.828 174.529V174.529ZM81.0657 171.609C81.0223 170.053 81.0003 168.465 81 166.891C81 165.915 81.0084 164.94 81.0251 163.967L82.2951 163.989C82.2783 164.955 82.27 165.922 82.27 166.891C82.2703 168.454 82.2923 170.029 82.3351 171.574L81.0657 171.609ZM413.721 165.121C413.695 162.605 413.61 160.054 413.471 157.54L414.738 157.47C414.879 160.003 414.964 162.572 414.991 165.107L413.721 165.121ZM82.5964 156.413L81.329 156.333C81.4874 153.797 81.7063 151.236 81.9788 148.721L83.2413 148.857C82.9707 151.354 82.754 153.896 82.5964 156.413ZM412.877 149.981C412.623 147.479 412.308 144.948 411.939 142.457L413.196 142.271C413.566 144.782 413.884 147.332 414.141 149.853L412.877 149.981ZM84.2301 141.34L82.975 141.146C83.3641 138.635 83.8162 136.105 84.3188 133.624L85.5633 133.875C85.0648 136.337 84.6161 138.849 84.2301 141.34ZM410.657 134.984C410.173 132.509 409.627 130.016 409.033 127.577L410.267 127.277C410.865 129.735 411.416 132.246 411.904 134.741L410.657 134.984ZM87.2382 126.48L86.0064 126.171C86.6231 123.713 87.3061 121.235 88.0366 118.805L89.2525 119.17C88.528 121.581 87.8502 124.041 87.2382 126.48ZM407.068 120.253C406.36 117.836 405.586 115.406 404.768 113.027L405.969 112.614C406.794 115.011 407.574 117.461 408.287 119.896L407.068 120.253ZM91.6099 111.94L90.4119 111.519C91.2558 109.12 92.167 106.709 93.1201 104.354L94.2977 104.83C93.3518 107.167 92.4474 109.559 91.6099 111.94ZM402.137 105.915C401.21 103.579 400.218 101.235 399.187 98.9477L400.346 98.4265C401.384 100.732 402.384 103.094 403.317 105.447L402.137 105.915ZM97.3098 97.8542L96.1558 97.3243C97.2165 95.016 98.3454 92.7011 99.5112 90.4442L100.64 91.0261C99.4827 93.266 98.3624 95.5632 97.3098 97.8542ZM395.921 92.1205C394.785 89.88 393.581 87.6348 392.342 85.4482L393.447 84.8229C394.695 87.0266 395.908 89.2888 397.054 91.5466L395.921 92.1205ZM104.28 84.36L103.179 83.7267C104.446 81.5283 105.782 79.3278 107.15 77.1868L108.221 77.8697C106.863 79.9946 105.537 82.1784 104.28 84.36V84.36ZM388.46 78.9439C387.118 76.8091 385.713 74.6823 384.284 72.6224L385.327 71.8992C386.767 73.9749 388.184 76.1178 389.536 78.2691L388.46 78.9439ZM112.454 71.568L111.416 70.8367C112.88 68.7617 114.411 66.6935 115.967 64.6894L116.97 65.4671C115.426 67.4563 113.907 69.5087 112.454 71.568ZM379.822 66.4964C378.291 64.4932 376.698 62.5018 375.084 60.5777L376.057 59.7625C377.683 61.7015 379.289 63.7078 380.831 65.7261L379.822 66.4964ZM121.759 59.5803L120.792 58.7573C122.435 56.8288 124.147 54.9093 125.882 53.0521L126.81 53.9178C125.089 55.7611 123.39 57.6664 121.759 59.5803ZM370.081 54.8793C368.375 53.0236 366.605 51.1843 364.822 49.4132L365.717 48.5128C367.514 50.2979 369.297 52.1508 371.016 54.0204L370.081 54.8793ZM132.112 48.493L131.224 47.5857C133.04 45.8103 134.919 44.055 136.809 42.3688L137.655 43.3157C135.779 44.9889 133.914 46.7309 132.112 48.493L132.112 48.493ZM359.319 44.1907C357.45 42.4962 355.52 40.8249 353.582 39.2233L354.392 38.2454C356.344 39.8591 358.289 41.5431 360.173 43.2507L359.319 44.1907ZM143.426 38.396L142.624 37.4119C144.589 35.8134 146.618 34.2369 148.658 32.7261L149.415 33.7455C147.39 35.2452 145.376 36.8096 143.426 38.396ZM347.624 34.5207C345.607 33.0028 343.532 31.5134 341.456 30.0939L342.172 29.0467C344.265 30.4766 346.356 31.9772 348.388 33.5069L347.624 34.5207ZM155.607 29.3742L154.898 28.3213C157 26.9078 159.164 25.5237 161.33 24.2065L161.99 25.291C159.841 26.5979 157.693 27.9718 155.607 29.3742V29.3742ZM335.09 25.9531C332.944 24.6258 330.74 23.3318 328.54 22.1067L329.157 20.9981C331.375 22.2325 333.595 23.5366 335.758 24.8736L335.09 25.9531ZM168.552 21.5047L167.943 20.3911C170.167 19.1749 172.447 17.995 174.72 16.8836L175.279 18.0238C173.023 19.1266 170.76 20.2975 168.552 21.5047V21.5047ZM321.818 18.5642C319.558 17.4392 317.243 16.3522 314.938 15.3337L315.451 14.173C317.775 15.1993 320.108 16.2946 322.385 17.4283L321.818 18.5642ZM182.155 14.8556L181.65 13.6912C183.974 12.6845 186.352 11.719 188.716 10.8214L189.167 12.0081C186.82 12.8986 184.461 13.8567 182.155 14.8556ZM307.914 12.4224C305.562 11.5112 303.156 10.6417 300.76 9.83859L301.165 8.63514C303.578 9.44477 306.003 10.3207 308.373 11.2394L307.914 12.4224ZM196.32 9.48009L195.925 8.27417C198.338 7.48344 200.801 6.73887 203.243 6.06186L203.583 7.28451C201.159 7.95658 198.715 8.69525 196.32 9.48009ZM293.513 7.5931C291.091 6.90307 288.62 6.26044 286.17 5.6832L286.462 4.44814C288.931 5.02972 291.42 5.6773 293.861 6.37229L293.513 7.5931ZM210.939 5.42571L210.656 4.18849C213.13 3.62364 215.651 3.10899 218.147 2.65908L218.373 3.90776C215.895 4.3546 213.394 4.86522 210.939 5.42573V5.42571ZM278.747 4.11413C276.274 3.65026 273.755 3.23757 271.26 2.88744L271.436 1.6307C273.951 1.98361 276.489 2.39943 278.981 2.86668L278.747 4.11413ZM225.869 2.73314L225.701 1.47516C228.215 1.1399 230.771 0.857934 233.299 0.637942L233.41 1.90213C230.901 2.12091 228.364 2.40039 225.869 2.73316V2.73314ZM263.724 2.00499C261.222 1.76951 258.676 1.58794 256.156 1.46617L256.218 0.198302C258.757 0.321313 261.322 0.504128 263.843 0.741494L263.724 2.00499ZM240.982 1.41535L240.929 0.147487C243.263 0.0501955 245.642 0.000621877 248 0L248.575 0.000934384L248.571 1.27007L248 1.26914C245.66 1.26975 243.298 1.31901 240.982 1.41538V1.41535Z" fill="#9370DB"/>
<path d="M274 76.4581H291.17C292.341 69.689 292.341 62.7691 291.17 56H274C275.934 62.6824 275.934 69.7757 274 76.4581V76.4581Z" fill="#00CED1"/>
<path d="M241.053 85.8454H258.223C259.394 79.0762 259.394 72.1563 258.223 65.3872H241.053C242.987 72.0696 242.987 79.163 241.053 85.8454V85.8454Z" fill="#00CED1"/>
<path d="M288.694 62.552H277.212V63.8269H288.694V62.552Z" fill="white"/>
<path d="M288.694 65.5269H277.212V66.8017H288.694V65.5269Z" fill="white"/>
<path d="M256.172 70.2393H244.691V71.5141H256.172V70.2393Z" fill="white"/>
<path d="M256.172 76.1887H244.691V77.4636H256.172V76.1887Z" fill="white"/>
<path d="M256.172 73.2141H244.691V74.489H256.172V73.2141Z" fill="white"/>
<path d="M78.7458 196.227L97.4461 203.292C101.514 196.383 104.369 188.827 105.885 180.955L87.1843 173.89C86.5347 181.982 83.6089 189.727 78.7458 196.227V196.227Z" fill="#00CED1"/>
<path d="M41.6712 336.891C41.6712 336.891 40.4069 350.899 44.475 352.205C48.5431 353.511 68.4368 353.189 62.2557 360.467C57.75 365.771 22.2993 362.241 23.8316 360.128C26.6471 356.246 32.3504 334.311 32.3504 334.311L41.6712 336.891Z" fill="#7FFFD4"/>
<path d="M87.2532 337.949C87.2532 337.949 85.9889 351.957 90.057 353.263C94.125 354.57 112.983 353.484 107.838 361.525C105.383 365.36 69.7741 361.503 69.4135 361.186C65.8071 358.023 77.9324 335.37 77.9324 335.37L87.2532 337.949Z" fill="#7FFFD4"/>
<path d="M31.1003 152.514C31.3804 151.348 32.0479 150.311 32.9939 149.573C33.9399 148.834 35.1085 148.438 36.3091 148.448C39.8353 148.487 44.102 149.359 43.141 153.518C41.5509 160.399 30.1554 190.307 30.1554 190.307L57.9816 193.748C57.9816 193.748 79.7125 190.572 72.8222 197.982C65.9319 205.393 56.9215 201.159 56.9215 201.159C56.9215 201.159 21.145 202.119 21.145 196.13C21.145 194.542 21.4406 192.418 22.5802 187.711L31.1003 152.514Z" fill="#A0616A"/>
<path d="M52.1512 143.461C59.762 143.461 65.9318 137.299 65.9318 129.698C65.9318 122.097 59.762 115.935 52.1512 115.935C44.5404 115.935 38.3706 122.097 38.3706 129.698C38.3706 137.299 44.5404 143.461 52.1512 143.461Z" fill="#A0616A"/>
<path d="M42.8758 137.373C42.8758 137.373 43.9359 147.96 40.2257 152.194H60.3665C60.3665 152.194 55.5963 147.96 59.3065 139.49C63.0166 131.021 42.8758 137.373 42.8758 137.373Z" fill="#A0616A"/>
<path d="M29.6254 177.603C30.0017 179.255 30.378 180.71 30.7491 181.981V181.986C32.1536 186.83 33.4469 189.085 34.2101 190.085C34.4052 190.373 34.647 190.627 34.9256 190.837L67.257 181.838C67.257 181.838 66.1969 170.722 63.5468 168.075C60.8967 165.428 61.9568 151.136 61.9568 151.136L53.4764 148.489C53.4764 148.489 45.6056 148.225 40.1993 148.262C38.5033 148.267 37.051 148.304 36.1606 148.389C35.9236 148.406 35.6881 148.44 35.4556 148.489C33.3356 149.019 26.9753 165.958 29.6254 177.603Z" fill="#A0616A"/>
<path d="M44.2009 182.632C44.2009 182.632 51.3562 150.077 54.0064 149.018C56.5157 148.016 61.4267 150.606 61.4267 150.606C61.4267 150.606 52.5758 145.578 48.1233 182.632H44.2009Z" fill="#FF6868"/>
<path d="M30.7489 181.98V181.986C32.1535 186.829 33.4467 189.084 34.21 190.085C36.065 179.524 39.8918 156.916 40.1991 148.261C38.5031 148.267 37.0509 148.304 36.1605 148.389C35.8106 154.952 33.0598 166.28 30.7489 181.98Z" fill="#FF6868"/>
<path d="M66.1969 175.486C66.1969 175.486 61.6917 182.102 57.9816 181.573C54.2714 181.044 33.4845 183.314 32.4825 186.943L38.3707 207.511V214.921C38.3707 214.921 30.8412 220.732 30.0834 236.748C29.8099 243.23 30.6993 249.709 32.7096 255.878L35.1906 263.621C35.1906 263.621 4.71433 341.169 20.615 344.875C36.5157 348.58 52.6813 355.197 53.2114 345.139C53.7414 335.082 56.9215 266.797 56.9215 266.797C56.9215 266.797 53.7414 343.551 65.9319 345.139C78.1224 346.727 101.443 357.843 102.503 344.61C103.563 331.376 75.4723 222.332 75.4723 222.332C75.4723 222.332 76.0023 205.923 66.9919 199.571L64.8718 191.101C64.8718 191.101 70.9671 178.662 66.1969 175.486Z" fill="#0B8C85"/>
<path d="M64.0767 162.781L66.9919 177.867V179.624L62.4476 165.425L64.0767 162.781Z" fill="#0B8C85"/>
<path d="M54.9514 154.102C55.2315 152.936 55.899 151.899 56.8449 151.161C57.7909 150.422 58.9596 150.026 60.1602 150.036C63.6863 150.075 67.9531 150.947 66.992 155.106C65.402 161.987 57.9817 194.277 57.9817 194.277L81.8327 195.336C81.8327 195.336 103.564 192.16 96.6733 199.571C89.783 206.981 80.7726 202.747 80.7726 202.747C80.7726 202.747 54.5365 206.717 50.2963 202.482C50.2539 202.44 50.2118 202.398 50.1698 202.356C48.4728 200.686 47.2368 198.606 46.5818 196.319C45.9267 194.031 45.8749 191.613 46.4312 189.299L54.9514 154.102Z" fill="#A0616A"/>
<path d="M43.966 111.58C44.9834 110.288 46.3019 109.235 47.8193 108.503C49.3366 107.771 51.0119 107.38 52.7152 107.359H53.1304C61.1339 107.359 67.622 114.205 67.622 122.651H64.9402L64.5071 119.535L63.8721 122.651H47.9667L46.6341 120.014L46.9673 122.651H43.8382C42.3781 129.506 44.476 136.362 50.1321 143.217H44.8018L42.1367 137.944L42.803 143.217H32.6422L30.6433 131.088C30.6433 122.005 36.2259 114.303 43.966 111.58Z" fill="#FF69B4"/>
<path d="M367.03 205.917L358.497 189.674C364.334 185.193 370.897 181.745 377.899 179.481L386.432 195.725C379.133 197.224 372.406 200.758 367.03 205.917V205.917Z" fill="white"/>
<path d="M358.536 163.479H362.261C362.261 163.479 365.676 189.871 363.193 192.355C360.709 194.839 353.879 196.392 352.948 192.355C352.016 188.319 352.948 173.415 352.948 173.415L358.536 163.479Z" fill="#4169E1"/>
<path d="M338.835 160.227C349.453 160.227 358.06 150.543 358.06 138.599C358.06 126.654 349.453 116.971 338.835 116.971C328.218 116.971 319.611 126.654 319.611 138.599C319.611 150.543 328.218 160.227 338.835 160.227Z" fill="#9400D3"/>
<path d="M329.042 145.47C329.042 145.47 330.284 155.716 326.558 157.89C322.833 160.063 330.905 172.483 330.905 172.483L340.529 174.967L347.049 165.963L345.807 156.648C345.807 156.648 338.356 149.196 341.771 142.365L329.042 145.47Z" fill="#A0616A"/>
<path opacity="0.1" d="M329.042 145.47C329.042 145.47 330.284 155.716 326.558 157.89C322.833 160.063 330.905 172.483 330.905 172.483L340.529 174.967L347.049 165.963L345.807 156.648C345.807 156.648 338.356 149.196 341.771 142.365L329.042 145.47Z" fill="url(#paint0_linear)"/>
<path d="M315.072 256.698C315.072 256.698 311.346 290.542 315.072 298.616C318.797 306.689 328.732 329.355 328.732 329.355L325.627 335.876L334.01 334.013L337.425 327.492C337.425 327.492 333.389 311.657 332.768 306.068C332.147 300.479 327.49 290.232 327.49 290.232L336.183 253.282L315.072 256.698Z" fill="#A0616A"/>
<path d="M344.565 251.04C344.565 251.04 344.876 285.195 347.049 290.493L345.807 336.758L352.637 337.67C352.637 337.67 362.572 298.857 361.02 289.542C359.467 280.227 361.33 246.693 361.33 246.693L344.565 251.04Z" fill="#A0616A"/>
<path d="M334.165 149.661C340.68 149.661 345.962 144.379 345.962 137.862C345.962 131.346 340.68 126.063 334.165 126.063C327.649 126.063 322.367 131.346 322.367 137.862C322.367 144.379 327.649 149.661 334.165 149.661Z" fill="#A0616A"/>
<path d="M374.369 255.387C374.369 255.387 365.987 260.976 362.572 256.94C359.157 252.903 317.245 259.424 311.967 258.182C306.689 256.94 314.761 237.068 314.761 226.821C314.761 219.155 317.543 207.492 318.943 202.102C319.415 200.289 319.728 199.186 319.728 199.186C319.728 199.186 322.914 190.123 322.318 186.357C322.277 186.071 322.199 185.792 322.085 185.527C322.035 185.417 321.974 185.312 321.902 185.214C320.415 183.23 316.152 168.76 314.497 162.547C314.227 161.628 314.004 160.695 313.83 159.753C313.83 158.821 325.317 156.027 328.188 155.893C331.063 155.76 331.836 159.753 331.836 159.753C332.768 160.374 337.114 171.241 337.114 171.241L341.15 160.995C341.15 160.995 340.84 158.821 340.529 158.821C340.219 158.821 345.121 155.89 345.121 155.89C345.121 155.89 350.153 159.442 352.948 158.821C355.742 158.2 362.261 163.789 362.261 163.789C362.261 163.789 350.774 192.666 355.431 198.876C360.088 205.086 374.369 255.387 374.369 255.387Z" fill="#4169E1"/>
<path d="M336.493 326.25C336.493 326.25 331.215 331.529 331.215 332.15L326.869 330.287C326.869 330.287 325.006 337.118 324.696 338.049C324.385 338.981 319.108 347.364 313.83 351.09C308.552 354.816 313.83 359.474 318.487 358.542C323.144 357.611 334.941 347.054 334.941 347.054C334.941 347.054 343.013 347.054 345.807 340.844C345.807 340.844 338.356 325.629 336.493 326.25Z" fill="#7FFFD4"/>
<path d="M352.016 335.206C352.016 335.206 344.04 329.41 343.527 334.792C343.013 340.174 343.013 351.973 343.013 351.973C343.013 351.973 340.529 359.736 348.291 358.804C356.052 357.873 356.673 355.699 356.673 355.699L352.947 340.795V334.274L352.016 335.206Z" fill="#7FFFD4"/>
<path opacity="0.1" d="M321.902 185.214C320.415 183.23 316.152 168.76 314.497 162.547H316.003C316.003 162.547 319.784 177.349 322.085 185.527C322.035 185.417 321.974 185.311 321.902 185.214Z" fill="url(#paint1_linear)"/>
<path opacity="0.1" d="M342.392 205.707C342.392 205.707 338.046 206.017 322.212 202.912C321.109 202.701 320.018 202.43 318.943 202.102C319.415 200.289 319.728 199.186 319.728 199.186C319.728 199.186 322.914 190.123 322.318 186.356C323.06 188.965 323.612 190.725 323.764 190.803C324.385 191.113 344.255 194.529 347.049 195.771C349.843 197.013 342.392 205.707 342.392 205.707Z" fill="url(#paint2_linear)"/>
<path opacity="0.1" d="M347.98 165.069C347.98 165.069 356.543 164.012 357.074 165.401C357.604 166.789 359.778 180.21 360.709 181.93C361.64 183.651 361.951 194.318 358.225 194.662C354.5 195.006 349.532 191.221 350.464 188.124C351.395 185.027 347.98 165.069 347.98 165.069Z" fill="url(#paint3_linear)"/>
<path d="M343.634 193.598C343.634 193.598 356.673 195.15 358.846 193.598C361.019 192.045 370.023 192.045 368.16 196.392C366.297 200.739 350.153 201.05 350.153 201.05H340.84L343.634 193.598Z" fill="#A0616A"/>
<path d="M316.003 160.374H313.83C313.83 160.374 309.483 161.305 310.104 174.967C310.725 188.629 306.379 197.634 322.212 200.739C338.046 203.844 342.392 203.534 342.392 203.534C342.392 203.534 349.843 194.839 347.049 193.598C344.255 192.356 324.385 188.94 323.764 188.629C323.143 188.319 316.003 160.374 316.003 160.374Z" fill="#4169E1"/>
<path d="M356.835 166.502C356.835 166.502 351.395 146.091 347.049 146.091C342.702 146.091 337.735 147.022 341.461 151.059C345.186 155.095 349.843 159.442 350.153 161.616C350.464 163.789 351.706 166.894 351.706 166.894L356.835 166.502Z" fill="#A0616A"/>
<path d="M349.222 165.069C349.222 165.069 357.785 164.012 358.316 165.401C358.846 166.789 361.019 180.21 361.951 181.93C362.882 183.651 363.193 194.318 359.467 194.662C355.742 195.006 350.774 191.221 351.706 188.124C352.637 185.027 349.222 165.069 349.222 165.069Z" fill="#4169E1"/>
<path d="M334.029 135.395C339.78 135.395 344.443 131.808 344.443 127.384C344.443 122.96 339.78 119.374 334.029 119.374C328.278 119.374 323.616 122.96 323.616 127.384C323.616 131.808 328.278 135.395 334.029 135.395Z" fill="#9400D3"/>
<path d="M392.741 300.261L374.989 295.622C375.611 288.29 377.485 281.117 380.53 274.418L398.282 279.056C394.472 285.46 392.551 292.812 392.741 300.261V300.261Z" fill="#00CED1"/>
<path d="M461.236 358.416L463.794 368.635L452.539 371.7L451.516 360.971L461.236 358.416Z" fill="#FBBEBE"/>
<path d="M420.31 371.189V380.897L409.055 382.94L407.009 377.831L411.102 369.146L420.31 371.189Z" fill="#FBBEBE"/>
<path d="M442.819 265.43L441.284 279.225L442.308 305.792C442.51 305.788 442.712 305.825 442.9 305.9C443.088 305.976 443.259 306.088 443.402 306.232C443.546 306.375 443.659 306.545 443.734 306.733C443.81 306.921 443.847 307.122 443.842 307.325C443.842 308.858 442.308 308.347 443.842 309.369C444.666 309.927 445.52 310.439 446.4 310.901L462.771 360.46C462.771 360.46 458.678 365.569 451.004 364.037L449.47 358.927C449.47 358.927 446.4 355.862 446.4 354.329C446.4 352.796 447.423 352.285 446.4 350.753C445.377 349.22 430.03 318.054 430.03 318.054L422.868 305.281L420.822 322.652C420.822 322.652 424.914 344.622 423.891 354.84C422.868 365.058 420.822 375.788 420.822 375.788L408.544 373.744C408.488 372.095 407.955 370.498 407.009 369.146C405.474 367.102 403.428 367.613 405.474 366.08C407.521 364.547 410.079 366.08 408.032 364.036C406.864 362.976 406.135 361.519 405.986 359.949V358.416L402.917 319.076L397.289 267.474L442.819 265.43Z" fill="#7FFFD4"/>
<path d="M408.032 172.443C415.661 172.443 421.845 166.267 421.845 158.649C421.845 151.03 415.661 144.854 408.032 144.854C400.404 144.854 394.22 151.03 394.22 158.649C394.22 166.267 400.404 172.443 408.032 172.443Z" fill="#FBBEBE"/>
<path d="M420.054 158.904L425.682 172.699L412.381 182.406L404.195 168.101L420.054 158.904Z" fill="#FBBEBE"/>
<path d="M420.822 169.378L425.937 166.823L429.007 173.976C429.007 173.976 448.958 180.107 447.424 208.208C445.889 236.308 442.308 247.037 442.308 247.037C442.308 247.037 451.005 265.43 445.889 267.474C440.773 269.517 397.289 277.181 396.266 270.028C395.243 262.875 399.847 220.98 399.847 220.98C399.847 220.98 398.312 190.836 411.102 184.705L408.544 179.085L420.822 169.378Z" fill="#87CEFA"/>
<path d="M392.685 268.496C392.685 268.496 380.919 280.758 387.569 283.823C394.22 286.889 398.312 270.028 398.312 270.028L392.685 268.496Z" fill="#FBBEBE"/>
<path d="M416.729 378.342L422.356 376.298C422.356 376.298 428.495 390.093 423.38 390.093H410.079C410.079 390.093 402.405 387.538 398.313 387.538C394.22 387.538 386.546 379.875 392.174 376.298C397.801 372.722 404.963 373.744 404.963 373.744L407.009 369.146L409.567 376.298C409.567 376.298 412.637 381.407 416.729 378.342Z" fill="#9370DB"/>
<path d="M458.166 367.102C458.166 367.102 461.37 365.083 463.093 365.837C464.817 366.591 465.84 374.766 465.84 374.766C465.84 374.766 470.956 380.897 459.701 381.919C448.447 382.94 445.889 380.897 444.866 377.831C443.842 374.766 445.889 371.7 445.889 371.7L448.958 370.679C448.958 370.679 452.539 368.124 451.516 367.102C450.493 366.08 451.516 364.037 451.516 364.037C451.516 364.037 455.097 371.189 458.166 367.102Z" fill="#9370DB"/>
<path d="M412.757 158.428C412.7 157.981 412.6 157.541 412.456 157.115C411.714 155.559 408.817 156.014 408.301 154.369C408.2 154.047 408.221 153.697 408.122 153.375C407.948 152.981 407.652 152.652 407.278 152.438C406.904 152.224 406.47 152.135 406.042 152.185C405.188 152.302 404.352 152.517 403.548 152.826C401.524 153.399 399.371 153.181 397.279 152.957C396.347 152.926 395.432 152.688 394.603 152.261C394.194 152.038 393.868 151.689 393.674 151.265C393.48 150.842 393.429 150.367 393.528 149.912C393.805 149.065 394.733 148.6 395.15 147.813C395.812 146.563 395.002 144.949 395.54 143.64C396.402 141.542 399.664 141.963 401.321 140.412C401.723 140.035 402.013 139.554 402.398 139.16C403.542 137.993 405.349 137.767 406.977 137.928C408.604 138.089 410.204 138.566 411.839 138.537C413.39 138.51 415.016 138.038 416.445 138.641C417.286 139.07 418.024 139.676 418.609 140.416L422.274 144.431C422.778 144.905 423.165 145.488 423.407 146.135C423.628 146.905 423.425 147.731 423.519 148.525C423.733 150.338 425.432 151.706 425.662 153.517C425.708 154.079 425.681 154.644 425.581 155.198L425.067 158.979C425.041 159.348 424.943 159.708 424.778 160.039C424.629 160.294 424.403 160.495 424.235 160.738C423.76 161.423 423.804 162.33 423.568 163.129C423.332 163.929 422.486 164.72 421.746 164.334C421.263 164.083 420.944 162.004 420.358 161.464C419.541 160.712 419.114 160.805 418.106 160.818C416.087 160.843 413.403 161.016 412.757 158.428Z" fill="#E4E4E4"/>
<path d="M392.388 155.482C392.012 155.332 391.662 155.122 391.353 154.861C390.568 154.102 390.7 152.815 391.041 151.779C391.382 150.743 391.881 149.672 391.636 148.609C391.523 148.114 391.252 147.661 391.174 147.159C390.99 145.965 391.947 144.876 393.005 144.287C394.064 143.697 395.282 143.407 396.282 142.724C397.817 141.676 398.664 139.829 400.221 138.817C401.745 137.826 403.68 137.796 405.499 137.798L410.93 137.804C413.768 137.807 416.887 137.912 418.999 139.8C419.642 140.374 420.15 141.085 420.801 141.65C422.111 142.788 423.88 143.242 425.335 144.19C426.421 144.914 427.31 145.896 427.919 147.047C428.529 148.199 428.841 149.484 428.826 150.786C428.775 153.186 427.601 155.517 427.906 157.899C428.11 159.496 428.976 161.031 428.749 162.625C428.479 164.516 426.738 165.871 424.952 166.566C423.166 167.262 421.219 167.511 419.481 168.319C418.063 168.978 416.581 170.029 415.086 169.568C413.821 169.178 413.127 167.847 412.674 166.608C412.144 165.159 411.755 163.662 411.512 162.139C411.33 160.999 411.209 159.792 410.537 158.852C410.143 158.34 409.623 157.938 409.029 157.682C408.434 157.427 407.784 157.327 407.139 157.392C404.207 157.649 402.556 162.623 399.86 161.447C398.523 160.863 397.495 159.118 396.424 158.166C395.212 157.086 393.854 156.182 392.388 155.482V155.482Z" fill="#DA8FFF"/>
<path d="M415.194 188.282C415.194 188.282 430.542 194.413 425.937 208.207C421.333 222.002 409.055 264.408 409.055 264.408L401.893 267.984L399.847 273.605L390.127 270.028L391.662 262.364C391.662 262.364 392.174 261.853 392.174 259.81C392.174 257.766 390.127 257.255 392.685 257.255C395.243 257.255 395.243 254.701 395.243 254.701L404.451 197.478C404.451 197.478 404.451 187.771 415.194 188.282Z" fill="#87CEFA"/>
<path opacity="0.1" d="M426.705 211.018L410.846 265.174L404.195 271.817L408.032 264.919L426.705 211.018Z" fill="#7FFFD4"/>
<mask id="mask0" mask-type="alpha" maskUnits="userSpaceOnUse" x="123" y="246" width="233" height="132">
<path d="M355.008 362.413C355.008 365.375 354.897 368.308 354.674 371.212C269.918 357.762 190.072 364.359 124.318 377.359C123.677 372.403 123.356 367.411 123.359 362.413C123.359 298.525 175.213 246.738 239.183 246.738C303.154 246.738 355.008 298.525 355.008 362.413Z" fill="#1087A1"/>
</mask>
<g mask="url(#mask0)">
<path d="M358.745 350.731V351.427C358.729 353.173 358.679 354.911 358.595 356.641C357.089 386.254 344.313 414.169 322.887 434.666C301.461 455.162 273.007 466.689 243.356 466.883C213.704 467.077 185.102 455.924 163.409 435.709C141.717 415.494 128.577 387.748 126.684 358.158C126.526 355.701 126.447 353.225 126.447 350.731C126.405 326.676 133.871 303.207 147.804 283.597C148.918 282.017 150.077 280.465 151.281 278.943C152.11 277.885 152.964 276.849 153.825 275.822C173.432 252.595 201.362 237.978 231.623 235.107C261.884 232.235 292.065 241.338 315.691 260.463C317.089 261.593 318.464 262.762 319.807 263.955C320.882 264.911 321.938 265.888 322.976 266.886C343.413 286.434 355.992 312.783 358.342 340.966C358.611 344.189 358.745 347.445 358.745 350.731Z" fill="#1087A1"/>
<path d="M151.319 279.36C151.376 279.384 151.43 279.415 151.478 279.454C152.103 279.968 151.319 280.955 151.414 281.768C151.525 282.811 152.918 283.04 153.97 283.143C155.023 283.253 156.352 284.098 155.854 285.03C153.211 285.938 150.536 285.046 147.837 284.011C133.883 303.613 126.405 327.071 126.447 351.116C126.447 353.612 126.526 356.086 126.684 358.54C126.905 358.701 127.148 358.831 127.404 358.927C128.196 359.227 129.114 359.172 129.842 359.598C130.419 359.938 130.807 360.538 131.385 360.854C133.039 361.754 135.334 360.024 136.877 361.099C137.276 361.461 137.654 361.846 138.009 362.252C139.433 363.484 141.775 362.654 143.421 363.578C144.482 364.171 145.028 365.355 145.598 366.429C147.014 369.114 149.309 371.752 152.34 371.965C153.296 371.922 154.254 371.953 155.205 372.06C156.139 372.273 157.057 373.087 156.906 374.027C156.645 375.646 157.444 377.415 157.231 379.034C156.843 381.995 152.641 383.29 152.285 386.252C152.283 386.904 152.247 387.555 152.174 388.203C151.984 388.977 151.398 389.608 151.193 390.382C150.797 391.843 151.849 393.304 152.997 394.284C154.152 395.271 155.529 396.124 156.162 397.498C156.827 398.959 156.503 400.657 156.716 402.244C157.191 405.711 160.19 408.278 163.277 409.937C164.266 410.349 165.144 410.987 165.841 411.8C166.632 412.945 166.553 414.454 166.822 415.82C167.471 419.161 170.288 421.917 170.367 425.321C170.423 427.745 169.077 429.941 168.27 432.223C167.44 434.616 167.193 437.172 167.55 439.678C172.062 443.497 176.859 446.969 181.897 450.064C182.172 449.659 182.372 449.21 182.491 448.737C182.587 448.213 182.521 447.673 182.302 447.188C182.082 446.703 181.721 446.295 181.264 446.02C182.115 445.699 182.889 445.204 183.536 444.567C183.853 444.241 184.063 443.825 184.137 443.376C184.211 442.927 184.144 442.466 183.947 442.056C185.34 442.229 186.994 442.316 187.912 441.25C188.648 440.397 188.6 439.118 188.307 438.036C188.015 436.946 187.524 435.895 187.516 434.766C190.743 434.923 193.977 434.815 197.187 434.442C196.722 432.88 195.666 431.56 194.243 430.762C195.699 430.517 197.02 428.78 197.479 427.382C197.876 425.956 197.898 424.452 197.543 423.015C197.433 422.645 197.416 422.255 197.495 421.877C197.729 421.377 198.141 420.98 198.651 420.764C201.056 419.382 203.462 418.002 205.868 416.626C206.297 416.41 206.687 416.124 207.023 415.781C207.775 414.888 207.664 413.554 207.276 412.456C206.889 411.358 206.271 410.323 206.121 409.17C205.678 405.719 209.381 403.239 210.632 399.986C211.057 398.687 211.286 397.332 211.312 395.966C211.415 394.497 211.423 392.799 210.299 391.859C209.215 390.951 207.53 391.156 206.398 390.311C205.361 389.537 205.005 388.045 203.874 387.421C202.845 386.852 201.563 387.215 200.415 386.947C198.405 386.481 197.139 384.167 195.082 383.954C193.926 383.827 192.612 384.396 191.663 383.725C190.824 383.125 190.792 381.932 190.634 380.921C190.353 379.347 189.596 377.896 188.464 376.763C187.332 375.631 185.88 374.872 184.303 374.587C183.108 374.398 181.81 374.469 180.79 373.813C179.761 373.15 179.294 371.91 178.479 370.986C177.181 369.509 175.123 368.98 173.2 368.53C170.589 367.922 167.98 367.311 165.374 366.698C163.989 366.366 162.2 366.192 161.449 367.409C161.226 367.871 161.072 368.363 160.99 368.87C160.707 369.781 160.143 370.58 159.379 371.153C158.614 371.726 157.688 372.043 156.732 372.06C156.078 370.945 155.018 370.125 153.772 369.77C152.959 369.634 152.155 369.444 151.367 369.201C150.955 369 150.589 368.717 150.29 368.37C149.992 368.022 149.768 367.617 149.631 367.181C149.495 366.744 149.45 366.284 149.498 365.829C149.546 365.373 149.686 364.933 149.911 364.534C150.359 363.732 150.532 362.806 150.402 361.897C150.272 360.988 149.846 360.147 149.19 359.503C147.861 358.311 145.938 358.019 144.149 358.137C143.683 357.118 144.466 355.973 145.305 355.231C146.152 354.496 147.173 353.77 147.355 352.664C147.647 350.927 145.424 349.608 143.738 350.121C142.052 350.642 140.976 352.277 140.264 353.888C139.918 354.839 139.447 355.739 138.863 356.565C138.564 356.974 138.157 357.292 137.688 357.485C137.219 357.677 136.705 357.736 136.204 357.655C134.811 357.3 134.281 355.649 133.973 354.259C133.478 352.402 133.228 350.487 133.229 348.565C133.241 346.624 134.013 344.765 135.381 343.384C137.684 341.268 141.229 341.473 144.339 341.813C144.006 341.369 143.847 340.82 143.89 340.268C143.934 339.715 144.178 339.198 144.577 338.812C144.993 338.443 145.493 338.181 146.034 338.049C146.574 337.917 147.139 337.919 147.679 338.054C148.617 338.247 149.461 338.751 150.077 339.483C150.963 340.557 151.216 342.018 151.881 343.234C152.554 344.459 154.057 345.501 155.284 344.846C156.352 344.277 156.518 342.808 156.257 341.631C155.988 340.462 155.426 339.317 155.521 338.117C155.703 335.835 158.085 334.452 160.182 333.513C162.28 332.573 164.677 331.301 165.01 329.027C165.025 328.585 165.111 328.147 165.263 327.732C165.495 327.361 165.82 327.056 166.205 326.847C172.322 322.812 178.55 318.721 185.546 316.517C185.91 316.399 185.949 316.525 186.321 316.438C186.843 316.138 186.495 315.309 185.997 314.977C185.498 314.646 184.833 314.385 184.707 313.801C184.62 313.374 184.873 312.948 184.936 312.513C184.953 312.251 184.905 311.989 184.796 311.749C184.687 311.51 184.521 311.3 184.313 311.14C184.104 310.979 183.859 310.872 183.6 310.828C183.34 310.784 183.073 310.804 182.823 310.886C182.261 310.144 183.369 309.283 184.272 309.031C186.973 308.292 189.745 307.842 192.541 307.688C192.864 307.635 193.195 307.69 193.483 307.846C193.689 308.044 193.811 308.313 193.824 308.598C193.837 308.883 193.741 309.162 193.554 309.378C193.173 309.8 192.752 310.184 192.296 310.523C191.842 310.963 191.518 311.519 191.359 312.131C191.2 312.742 191.212 313.385 191.394 313.99C192.858 314.732 194.441 315.499 196.063 315.238C197.677 314.977 199.11 313.161 198.35 311.716C197.646 310.365 195.517 310.057 195.153 308.58C194.725 306.851 197.179 305.311 196.625 303.621C196.387 302.878 195.643 302.436 195.074 301.907C194.403 301.248 193.947 300.403 193.765 299.482C193.583 298.56 193.683 297.606 194.053 296.742C193.126 296.904 192.175 296.842 191.277 296.561C190.379 296.281 189.562 295.791 188.893 295.131C187.659 293.891 186.677 291.925 184.92 291.988C183.314 292.035 181.929 293.907 180.425 293.338C180.054 293.196 179.666 292.912 179.31 293.078C179.192 293.153 179.093 293.254 179.021 293.373C178.948 293.492 178.903 293.626 178.89 293.765C178.51 295.589 179.167 297.666 178.17 299.246C177.086 300.959 174.577 301.196 173.264 302.744C172.551 303.581 172.274 304.711 171.618 305.595C170.961 306.48 169.576 307.048 168.785 306.274C169.172 305.481 169.278 304.581 169.086 303.72C168.893 302.859 168.413 302.089 167.724 301.536C166.995 301.058 166.208 300.676 165.382 300.399C164.459 300.01 163.58 299.523 162.762 298.945C162.355 298.698 162.023 298.342 161.805 297.919C161.632 297.386 161.654 296.81 161.868 296.292C162.269 295.151 162.973 294.141 163.906 293.37C164.839 292.599 165.965 292.097 167.162 291.917C168.207 291.775 169.426 291.822 170.122 291.024C170.486 290.606 170.676 289.966 171.214 289.8C171.553 289.73 171.906 289.771 172.219 289.919C173.525 290.377 174.823 290.835 176.128 291.293C176.564 291.492 177.045 291.571 177.521 291.522C177.757 291.491 177.973 291.373 178.124 291.189C178.276 291.006 178.352 290.772 178.336 290.535C178.21 289.887 177.213 289.579 177.308 288.924C177.354 288.709 177.467 288.516 177.632 288.371C179.043 286.873 180.769 285.704 182.686 284.949C184.602 284.194 186.663 283.871 188.719 284.003C189.21 284.817 188.434 285.772 187.777 286.46C187.128 287.155 186.606 288.387 187.397 288.916C187.717 289.083 188.074 289.164 188.434 289.153C189.396 289.281 190.332 289.564 191.204 289.99C192.557 290.574 193.887 291.222 195.184 291.917C194.993 291.07 195.026 290.188 195.279 289.358C195.422 288.95 195.712 288.611 196.093 288.405C196.473 288.199 196.917 288.142 197.337 288.244C198.112 288.544 198.508 289.571 199.339 289.666C200.439 289.792 200.874 288.165 200.415 287.155C199.956 286.144 199.038 285.307 198.967 284.193C198.912 283.451 199.197 282.527 198.603 282.076C198.392 281.937 198.15 281.85 197.899 281.824C192.929 280.916 187.957 280.005 182.982 279.091C182.095 278.925 180.821 279.052 180.782 279.944C180.758 280.45 181.209 280.947 181.011 281.405C180.797 281.895 180.101 281.855 179.595 282.029C179.214 282.201 178.9 282.493 178.7 282.859C178.5 283.225 178.425 283.646 178.487 284.059C178.622 284.88 178.941 285.66 179.42 286.341C178.447 285.938 176.983 285.867 176.01 285.457C175.868 284.332 175.581 283.23 175.155 282.179C175.131 282.012 175.07 281.852 174.977 281.711C174.884 281.569 174.761 281.45 174.617 281.361C174.473 281.272 174.311 281.216 174.143 281.196C173.975 281.177 173.804 281.194 173.643 281.247C172.361 281.445 171.079 281.634 169.797 281.832C169.476 281.847 169.167 281.966 168.919 282.171C168.421 282.7 168.911 283.545 168.895 284.272C168.849 284.678 168.677 285.06 168.403 285.364C168.13 285.669 167.768 285.88 167.368 285.97C166.563 286.133 165.732 286.122 164.931 285.938C163.134 285.662 161.346 285.385 159.549 285.109C161.135 284.605 162.545 283.663 163.617 282.392C164.329 281.555 164.709 279.992 163.68 279.597C163.376 279.513 163.059 279.489 162.746 279.526C160.309 279.541 158.386 277.512 156.107 276.651C155.39 276.384 154.632 276.245 153.867 276.24L151.319 279.36Z" fill="#88F2B6"/>
<path d="M358.595 357.036C358.317 357.409 357.952 357.709 357.531 357.909C357.111 358.108 356.648 358.201 356.183 358.18C353.715 357.967 352.675 354.407 350.231 354.005C350.015 353.949 349.786 353.972 349.584 354.068C349.222 354.265 349.159 354.755 349.135 355.165C349.032 357.202 348.946 359.317 349.742 361.195C350.901 363.942 353.905 366.247 353.274 369.16C349.884 367.589 348.118 363.777 347.322 360.122C346.518 356.467 346.391 352.631 344.957 349.174C343.861 350.571 341.575 349.419 340.581 347.951C339.635 346.561 339.052 344.951 338.137 343.538C337.223 342.133 335.82 340.87 334.148 340.792C332.39 340.713 330.861 341.92 329.52 343.065C328.355 343.927 327.376 345.017 326.643 346.269C325.705 348.164 325.949 350.39 325.902 352.497C325.855 354.77 325.374 357.178 323.821 358.851C322.268 360.517 319.406 361.101 317.695 359.593C316.868 358.73 316.279 357.666 315.984 356.507C314.125 351.08 312.577 345.551 311.349 339.947C311.065 341.226 309.938 342.875 308.865 342.126C308.626 341.921 308.432 341.668 308.298 341.384C306.295 337.997 302.598 335.961 298.853 334.737C295.116 333.522 291.183 332.954 287.485 331.612C285.412 330.858 283.431 329.87 281.58 328.668C281.11 329.361 280.836 330.168 280.786 331.004C280.736 331.841 280.912 332.675 281.296 333.419C281.712 334.148 282.356 334.718 283.129 335.042C283.902 335.366 284.759 335.426 285.569 335.211C286.389 334.943 287.083 334.374 287.895 334.09C288.707 333.814 289.803 333.948 290.158 334.737C290.505 335.487 289.984 336.395 290.244 337.184C290.631 338.376 292.436 338.471 293.067 339.56C293.252 339.992 293.295 340.471 293.188 340.928C293.082 341.386 292.832 341.797 292.475 342.102C291.75 342.694 290.949 343.188 290.095 343.57C287.446 345.046 285.561 347.564 283.244 349.521C280.926 351.487 277.654 352.916 274.895 351.661C275.549 348.322 271.584 345.875 270.851 342.552C270.606 341.455 270.732 340.294 270.393 339.229C269.897 337.682 268.525 336.624 267.406 335.456C266.045 334.022 264.986 332.33 264.288 330.479C263.591 328.629 263.271 326.658 263.345 324.682C263.409 323.308 263.661 321.911 263.345 320.569C263.038 319.235 261.926 317.941 260.555 317.996C257.425 318.138 253.475 318.375 251.835 315.699C251.244 314.744 250.992 313.347 251.843 312.613C252.442 312.1 253.325 312.147 254.106 312.226C256.463 312.455 258.812 312.692 261.17 312.921C262.817 313.079 264.599 313.213 266.018 312.352C267.437 311.492 268.052 309.195 266.735 308.177C265.781 307.435 264.063 307.474 263.779 306.298C263.55 305.312 264.638 304.199 264.047 303.37C263.629 302.786 262.683 302.944 262.108 303.386C261.606 303.908 261.06 304.386 260.476 304.814C259.348 305.398 258.008 304.838 256.794 304.459C255.58 304.08 253.956 304.049 253.373 305.177C252.71 306.432 253.948 308.09 253.302 309.353C252.435 311.018 249.518 310.071 248.304 311.508C246.916 313.15 249.25 315.612 248.784 317.712C248.186 318.009 247.52 318.146 246.852 318.109C246.185 318.071 245.539 317.861 244.977 317.499C244.425 317.123 243.986 316.605 243.705 315.999C243.425 315.392 243.314 314.722 243.384 314.057C243.495 313.11 243.991 312.139 243.66 311.247C243.303 310.559 242.714 310.019 241.997 309.724C239.71 308.453 237.424 307.188 235.138 305.927C234.499 307.111 235.303 308.572 236.313 309.463C237.314 310.348 238.575 311.018 239.237 312.187C239.657 312.996 239.751 313.936 239.502 314.813C239.253 315.69 238.679 316.439 237.897 316.907C237.798 316.975 237.686 317.021 237.567 317.041C237.449 317.062 237.327 317.056 237.211 317.025C237.102 316.961 237.007 316.875 236.931 316.774C236.855 316.672 236.8 316.556 236.77 316.433C235.564 313.331 233.742 310.276 230.841 308.658C227.932 307.032 223.762 307.372 221.854 310.095C221.405 310.742 221.097 311.484 220.703 312.171C218.614 315.81 214.12 317.53 209.926 317.42C209.516 317.446 209.107 317.35 208.751 317.144C208.073 316.678 208.105 315.683 208.207 314.862C208.357 313.702 208.499 312.55 208.649 311.389C208.653 310.681 208.926 310.001 209.414 309.487C210.194 308.871 211.314 309.258 212.307 309.242C213.057 309.209 213.778 308.945 214.372 308.486C214.966 308.026 215.404 307.395 215.626 306.677C215.826 305.953 215.824 305.188 215.621 304.464C215.418 303.741 215.022 303.087 214.475 302.573C214.026 302.146 213.418 301.61 213.655 301.034C213.751 300.875 213.881 300.739 214.034 300.635C214.188 300.532 214.363 300.463 214.546 300.434C216.32 299.921 218.204 299.786 219.946 299.171C221.696 298.563 223.391 297.316 223.809 295.508C223.935 294.956 223.99 294.285 224.487 294.009C224.738 293.908 225.005 293.854 225.275 293.851C226.223 293.715 227.086 293.229 227.694 292.488C228.303 291.748 228.612 290.806 228.563 289.849C229.399 289.265 230.573 289.699 231.385 290.322C232.189 290.946 232.907 291.767 233.892 292.035C235.729 292.54 237.503 290.907 239.411 290.899C240.215 290.899 241.043 291.183 241.792 290.907C242.556 290.63 243.014 289.873 243.597 289.312C244.188 288.744 245.213 288.404 245.757 289.012C245.599 287.868 245.45 286.731 245.292 285.594C246.221 285.829 247.189 285.861 248.131 285.689C249.074 285.518 249.968 285.146 250.755 284.6C248.769 283.929 246.79 283.258 244.803 282.587C244.594 282.536 244.402 282.432 244.243 282.287C243.81 281.821 244.243 281.095 244.59 280.566C245.434 279.296 245.576 277.204 244.188 276.573C243.242 276.138 242.162 276.659 241.256 277.164C239.805 277.97 238.354 278.783 236.904 279.588C236.77 280.416 237.779 280.89 238.402 281.443C238.781 281.78 239.05 282.224 239.172 282.717C239.295 283.21 239.265 283.728 239.088 284.204C238.911 284.68 238.593 285.091 238.178 285.383C237.763 285.674 237.269 285.834 236.762 285.839C237.048 286.213 237.246 286.645 237.343 287.106C237.44 287.566 237.433 288.042 237.322 288.499C236.352 288.57 235.374 288.641 234.397 288.712C234.234 288.745 234.067 288.745 233.905 288.712C233.743 288.68 233.588 288.615 233.451 288.523C233.135 288.247 233.183 287.757 233.104 287.347C232.974 286.856 232.7 286.416 232.318 286.082C231.936 285.749 231.463 285.538 230.96 285.476C229.955 285.363 228.938 285.457 227.972 285.752C227.551 285.901 227.091 285.889 226.679 285.721C226.445 285.566 226.268 285.338 226.174 285.073C226.003 284.532 225.973 283.956 226.089 283.4C226.205 282.844 226.463 282.328 226.836 281.9C227.593 281.059 228.428 280.29 229.328 279.604C231.368 277.815 232.867 275.491 233.656 272.894C235.264 272.215 236.927 271.3 238.544 270.621C239.843 270.018 241.204 269.56 242.604 269.256C243.921 269.054 245.255 268.991 246.585 269.066C248.398 269.098 250.219 269.129 252.032 269.169C253.651 269.101 255.268 269.333 256.802 269.855C258.292 270.471 259.609 271.805 259.711 273.415C259.742 273.599 259.726 273.787 259.664 273.963C259.602 274.138 259.496 274.295 259.356 274.418C259.147 274.534 258.909 274.588 258.67 274.576C257.165 274.623 256.526 275.002 255.02 275.057C255.974 276.075 257.046 277.149 258.434 277.33C260.878 277.646 262.636 275.112 263.763 272.91C263.804 273.471 264.061 273.993 264.481 274.366C264.901 274.739 265.449 274.933 266.01 274.907C266.614 274.803 267.191 274.578 267.705 274.244C272.554 271.591 277.986 270.186 283.512 270.155C283.457 269.736 283.561 269.312 283.801 268.965C284.041 268.618 284.402 268.373 284.813 268.277C285.94 268.056 286.949 269.027 287.493 270.037C288.029 271.047 288.368 272.215 289.235 272.973C290.095 273.731 291.758 273.692 292.097 272.602C292.428 271.552 291.332 270.653 290.426 270.029C289.511 269.413 288.557 268.269 289.172 267.353C293.808 266.319 298.483 265.293 303.237 265.088C304.044 265.112 304.849 264.973 305.602 264.677C305.974 264.519 306.284 264.243 306.484 263.89C306.684 263.538 306.761 263.129 306.705 262.728C305.668 262.97 304.582 262.899 303.585 262.522C302.589 262.145 301.727 261.481 301.108 260.612C305.988 260.21 311.097 259.855 315.787 260.952L319.895 264.441C319.114 265.254 318.073 266.019 318.641 266.832C318.828 267.019 319.055 267.161 319.305 267.247C319.555 267.333 319.821 267.361 320.084 267.33C321.077 267.345 322.07 267.369 323.056 267.369C343.447 286.898 355.998 313.221 358.343 341.376C356.687 341.313 355.166 343.412 355.379 345.243C355.631 347.367 357.16 349.072 358.256 350.903C358.438 351.2 358.601 351.509 358.745 351.826L358.595 357.036Z" fill="#88F2B6"/>
</g>
<path d="M141.604 166.695C143.013 166.695 144.156 165.553 144.156 164.145C144.156 162.737 143.013 161.595 141.604 161.595C140.195 161.595 139.053 162.737 139.053 164.145C139.053 165.553 140.195 166.695 141.604 166.695Z" fill="#FF6584"/>
<path d="M102.057 223.64C103.466 223.64 104.608 222.498 104.608 221.09C104.608 219.682 103.466 218.54 102.057 218.54C100.648 218.54 99.5056 219.682 99.5056 221.09C99.5056 222.498 100.648 223.64 102.057 223.64Z" fill="white"/>
<path d="M87.8914 417.18L84.2927 428.624L95.4169 429.605L94.4354 417.18H87.8914Z" fill="#FFB8B8"/>
<path d="M141.878 426.008V441.703H154.638L151.039 426.008H141.878Z" fill="#FFB8B8"/>
<path d="M96.3986 311.894L91.1636 361.594C91.1636 361.594 84.6198 405.409 85.9286 412.276C87.2373 419.142 85.6014 420.123 85.6014 420.123H95.4171C95.4171 420.123 95.0899 415.872 97.053 413.911C99.0161 411.949 98.0346 406.063 98.0346 406.063L122.901 330.205L136.97 372.711C136.97 372.711 139.26 419.469 139.588 420.123C139.915 420.777 140.896 429.605 140.896 429.605H153.002C153.002 429.605 151.366 424.374 153.657 422.739C155.947 421.104 157.91 422.412 155.947 419.469C153.984 416.526 153.33 412.93 153.984 411.295C154.638 409.66 154.638 403.12 154.638 403.12C154.638 403.12 153.657 314.837 148.095 311.894C142.532 308.951 96.3986 311.894 96.3986 311.894Z" fill="#8DC2F2"/>
<path d="M145.336 433.385C145.336 433.385 139.741 432.546 139.741 432.826C139.741 433.105 133.027 451.276 139.741 450.997C146.455 450.717 171.91 447.083 170.232 440.374C168.553 433.665 160.161 435.621 160.161 435.621L152.609 431.428L145.336 433.385Z" fill="white"/>
<path d="M90.2529 427.596C90.2529 427.596 95.8476 426.757 95.8476 427.036C95.8476 427.316 102.561 445.487 95.8476 445.207C89.134 444.928 63.6784 441.294 65.3567 434.584C67.0351 427.875 75.4271 429.832 75.4271 429.832L82.9799 425.639L90.2529 427.596Z" fill="white"/>
<path d="M117.006 351.781H133.529C134.657 345.267 134.657 338.607 133.529 332.093H117.006C118.868 338.524 118.868 345.35 117.006 351.781V351.781Z" fill="#88F2B6"/>
<path d="M112.195 352.468H128.718C129.845 345.954 129.845 339.294 128.718 332.78H112.195C114.056 339.211 114.056 346.037 112.195 352.468V352.468Z" fill="white"/>
<path d="M123.317 218.488C130.428 218.488 136.193 212.727 136.193 205.62C136.193 198.513 130.428 192.752 123.317 192.752C116.205 192.752 110.441 198.513 110.441 205.62C110.441 212.727 116.205 218.488 123.317 218.488Z" fill="#FFB8B8"/>
<path d="M113.085 203.992C113.085 203.992 110.795 226.88 107.85 228.515C104.906 230.15 130.426 231.785 130.426 231.785C130.426 231.785 124.21 210.858 126.173 208.896C128.136 206.934 113.085 203.992 113.085 203.992Z" fill="#FFB8B8"/>
<path d="M140.569 227.861C140.569 227.861 131.408 219.032 120.938 220.667C110.468 222.302 102.942 224.264 102.942 224.264C102.942 224.264 86.9101 232.765 86.5829 239.632C86.2557 246.498 92.4723 272.33 92.4723 272.33C92.4723 272.33 95.417 314.509 95.7442 314.509C96.0714 314.509 151.039 313.856 151.039 313.856L140.896 258.924L140.569 227.861Z" fill="#575A89"/>
<path d="M138.429 306.541C136.309 307.113 132.655 306.322 128.839 305.073C122.034 302.84 114.721 299.142 114.721 299.142C114.721 299.142 91.1636 289.659 84.2926 284.755C77.4217 279.85 82.0023 260.231 82.0023 260.231L92.4724 263.501L91.818 275.599L117.666 292.275C121.728 292.656 125.738 293.461 129.631 294.678C133.983 296.107 138.21 298.334 139.738 301.754C139.976 302.276 140.146 302.827 140.242 303.392C140.553 305.197 139.82 306.162 138.429 306.541Z" fill="#FFB8B8"/>
<path opacity="0.15" d="M139.738 301.754C139.283 303.448 138.842 305.06 138.429 306.541C136.309 307.113 132.654 306.322 128.839 305.073L129.631 294.678C133.983 296.107 138.21 298.334 139.738 301.754Z" fill="black"/>
<path d="M135.007 254.019L133.044 271.349L129.788 314.108C129.788 314.108 111.776 335.763 121.919 336.417C132.062 337.071 137.624 315.164 137.624 315.164C137.624 315.164 147.767 280.504 147.44 273.311C147.113 266.117 147.44 254.019 147.44 254.019H135.007Z" fill="#FFB8B8"/>
<path d="M138.324 196.254C138.649 196.007 138.933 195.702 139.165 195.351C139.729 194.359 139.27 193.02 138.673 191.997C138.076 190.974 137.318 189.95 137.28 188.761C137.263 188.207 137.408 187.662 137.354 187.109C137.224 185.795 136.019 184.86 134.843 184.48C133.667 184.1 132.415 184.075 131.271 183.582C129.518 182.826 128.222 181.058 126.455 180.344C124.727 179.646 122.847 180.067 121.088 180.494L115.837 181.772C113.093 182.439 110.104 183.28 108.547 185.785C108.074 186.546 107.765 187.423 107.281 188.176C106.307 189.695 104.714 190.592 103.55 191.942C102.686 192.966 102.08 194.22 101.787 195.589C101.494 196.957 101.524 198.398 101.873 199.781C102.541 202.324 104.277 204.532 104.595 207.139C104.809 208.887 104.367 210.724 104.998 212.368C105.746 214.319 107.779 215.353 109.685 215.676C111.592 215.998 113.539 215.809 115.428 216.262C116.969 216.632 118.673 217.404 120 216.563C121.123 215.852 121.451 214.273 121.57 212.847C121.709 211.18 121.7 209.496 121.543 207.817C121.426 206.561 121.231 205.247 121.639 204.089C121.889 203.452 122.287 202.902 122.797 202.491C123.306 202.08 123.909 201.821 124.549 201.74C127.451 201.327 130.329 206.237 132.634 204.354C133.777 203.42 134.321 201.32 135.112 200.056C136.006 198.623 137.087 197.343 138.324 196.254Z" fill="#FF6868"/>
<path d="M90.5093 236.689C90.5093 236.689 83.9655 238.978 81.348 248.133C78.7305 257.289 79.712 263.501 79.712 263.501L93.454 265.79L90.5093 236.689Z" fill="#575A89"/>
<path d="M134.025 227.207C134.025 227.207 145.804 224.591 147.44 235.708C148.464 243.187 149.01 250.722 149.076 258.27C149.076 258.27 137.952 253.038 133.044 258.27L134.025 227.207Z" fill="#575A89"/>
<defs>
<linearGradient id="paint0_linear" x1="325.576" y1="142.365" x2="347.3" y2="142.533" gradientUnits="userSpaceOnUse">
<stop stop-color="#011438"/>
<stop offset="1" stop-color="#442D59"/>
</linearGradient>
<linearGradient id="paint1_linear" x1="314.497" y1="162.547" x2="322.174" y2="162.577" gradientUnits="userSpaceOnUse">
<stop stop-color="#011438"/>
<stop offset="1" stop-color="#442D59"/>
</linearGradient>
<linearGradient id="paint2_linear" x1="318.943" y1="186.356" x2="348.004" y2="186.863" gradientUnits="userSpaceOnUse">
<stop stop-color="#011438"/>
<stop offset="1" stop-color="#442D59"/>
</linearGradient>
<linearGradient id="paint3_linear" x1="347.98" y1="164.684" x2="361.471" y2="164.754" gradientUnits="userSpaceOnUse">
<stop stop-color="#011438"/>
<stop offset="1" stop-color="#442D59"/>
</linearGradient>
</defs>
</svg>
