<svg width="506" height="405" viewBox="0 0 506 405" fill="none" xmlns="http://www.w3.org/2000/svg">
<g clip-path="url(#clip0)">
<path d="M304.501 405H0.5V74.043L304.501 162.911V405Z" fill="#412C58"/>
<path d="M267.657 288.041H28.7988V392.742H267.657V288.041Z" fill="#8DC2F2"/>
<path d="M215.928 268.454C234.272 268.454 249.143 254.463 249.143 237.204C249.143 219.945 234.272 205.954 215.928 205.954C197.583 205.954 182.712 219.945 182.712 237.204C182.712 254.463 197.583 268.454 215.928 268.454Z" fill="#00BFA6"/>
<path d="M215.627 293.718L215.899 237.032" stroke="#8DC2F2" stroke-width="2" stroke-miterlimit="10"/>
<path d="M215.899 245.048C220.605 245.048 224.419 241.459 224.419 237.032C224.419 232.605 220.605 229.016 215.899 229.016C211.193 229.016 207.379 232.605 207.379 237.032C207.379 241.459 211.193 245.048 215.899 245.048Z" fill="#8DC2F2"/>
<path d="M215.731 271.968C215.731 271.968 214.632 247.333 189.666 250.09L215.731 271.968Z" fill="#8DC2F2"/>
<path d="M76.7846 205.714C95.1289 205.714 110 191.723 110 174.464C110 157.205 95.1289 143.214 76.7846 143.214C58.4403 143.214 43.5693 157.205 43.5693 174.464C43.5693 191.723 58.4403 205.714 76.7846 205.714Z" fill="#00BFA6"/>
<path d="M74.9039 289.83L76.8155 174.43" stroke="#8DC2F2" stroke-width="2" stroke-miterlimit="10"/>
<path d="M76.8155 182.446C81.5212 182.446 85.3359 178.857 85.3359 174.43C85.3359 170.002 81.5212 166.413 76.8155 166.413C72.1099 166.413 68.2952 170.002 68.2952 174.43C68.2952 178.857 72.1099 182.446 76.8155 182.446Z" fill="#FF69B4"/>
<path d="M76.2746 207.072C76.2746 207.072 75.4655 182.427 50.4686 184.924L76.2746 207.072Z" fill="#8DC2F2"/>
<path d="M74.9403 287.627C74.9403 287.627 81.2015 240.349 49.5962 237.595" stroke="#8DC2F2" stroke-width="2" stroke-miterlimit="10"/>
<path d="M49.5962 245.611C54.3018 245.611 58.1165 242.022 58.1165 237.595C58.1165 233.168 54.3018 229.579 49.5962 229.579C44.8905 229.579 41.0758 233.168 41.0758 237.595C41.0758 242.022 44.8905 245.611 49.5962 245.611Z" fill="#8DC2F2"/>
<path d="M148.214 136.338C166.558 136.338 181.429 122.347 181.429 105.088C181.429 87.8294 166.558 73.8384 148.214 73.8384C129.87 73.8384 114.999 87.8294 114.999 105.088C114.999 122.347 129.87 136.338 148.214 136.338Z" fill="#00BFA6"/>
<path d="M148.234 294.281V105.203" stroke="#8DC2F2" stroke-width="2" stroke-miterlimit="10"/>
<path d="M148.235 113.13C152.94 113.13 156.755 109.541 156.755 105.113C156.755 100.686 152.94 97.0972 148.235 97.0972C143.529 97.0972 139.714 100.686 139.714 105.113C139.714 109.541 143.529 113.13 148.235 113.13Z" fill="#7FFFD4"/>
<path d="M122.065 249.928C126.77 249.928 130.585 246.339 130.585 241.912C130.585 237.485 126.77 233.896 122.065 233.896C117.359 233.896 113.544 237.485 113.544 241.912C113.544 246.339 117.359 249.928 122.065 249.928Z" fill="#FF69B4"/>
<path d="M148.235 146.06C148.235 146.06 147.017 121.43 122.065 124.293L148.235 146.06Z" fill="#8DC2F2"/>
<path d="M148.235 215.884C148.235 215.884 147.017 191.254 122.065 194.117L148.235 215.884Z" fill="#8DC2F2"/>
<path d="M148.235 292.077C148.235 292.077 153.712 244.202 122.065 241.912" stroke="#8DC2F2" stroke-width="2" stroke-miterlimit="10"/>
<path d="M174.927 174.733C179.633 174.733 183.447 171.144 183.447 166.717C183.447 162.29 179.633 158.701 174.927 158.701C170.221 158.701 166.407 162.29 166.407 166.717C166.407 171.144 170.221 174.733 174.927 174.733Z" fill="#7FFFD4"/>
<path d="M148.757 214.329C148.757 214.329 143.28 169.007 174.927 166.717" stroke="#8DC2F2" stroke-width="2" stroke-miterlimit="10"/>
<path d="M219.273 148.61C216.91 148.61 214.601 147.951 212.637 146.717C210.673 145.482 209.143 143.727 208.239 141.674C207.335 139.621 207.098 137.362 207.559 135.182C208.02 133.003 209.157 131 210.828 129.429C212.498 127.858 214.626 126.788 216.943 126.354C219.259 125.92 221.661 126.143 223.843 126.993C226.025 127.844 227.89 129.284 229.203 131.132C230.515 132.98 231.215 135.152 231.215 137.374C231.212 140.353 229.952 143.209 227.713 145.316C225.475 147.422 222.439 148.607 219.273 148.61ZM219.273 127.16C217.125 127.16 215.026 127.759 213.241 128.881C211.455 130.003 210.064 131.599 209.242 133.465C208.42 135.332 208.205 137.386 208.624 139.367C209.043 141.349 210.077 143.169 211.595 144.597C213.114 146.026 215.048 146.999 217.154 147.393C219.26 147.787 221.444 147.585 223.427 146.811C225.411 146.038 227.107 144.729 228.3 143.049C229.493 141.369 230.13 139.395 230.13 137.374C230.126 134.666 228.981 132.07 226.946 130.155C224.911 128.24 222.151 127.163 219.273 127.16Z" fill="#8DC2F2"/>
<path d="M31.443 94.4724C29.081 94.4724 26.7719 93.8134 24.8079 92.5788C22.8439 91.3441 21.3132 89.5893 20.4092 87.5361C19.5053 85.483 19.2688 83.2237 19.7296 81.0441C20.1904 78.8645 21.3279 76.8624 22.9981 75.291C24.6684 73.7196 26.7964 72.6495 29.1131 72.2159C31.4298 71.7824 33.8311 72.0049 36.0134 72.8553C38.1957 73.7058 40.0609 75.1459 41.3732 76.9937C42.6855 78.8415 43.386 81.0139 43.386 83.2362C43.3824 86.2152 42.123 89.0712 39.884 91.1777C37.6451 93.2841 34.6094 94.469 31.443 94.4724ZM31.443 73.0215C29.2957 73.0215 27.1966 73.6206 25.4111 74.743C23.6257 75.8654 22.2341 77.4607 21.4123 79.3272C20.5905 81.1937 20.3755 83.2475 20.7945 85.229C21.2134 87.2105 22.2474 89.0305 23.7659 90.4591C25.2843 91.8877 27.2188 92.8605 29.3249 93.2547C31.431 93.6488 33.614 93.4465 35.5979 92.6734C37.5818 91.9002 39.2775 90.591 40.4705 88.9112C41.6635 87.2314 42.3002 85.2565 42.3002 83.2362C42.2969 80.528 41.152 77.9317 39.1166 76.0167C37.0812 74.1018 34.3215 73.0246 31.443 73.0215Z" fill="#8DC2F2"/>
<path d="M304.502 260.972C302.139 260.972 299.83 260.313 297.866 259.079C295.902 257.844 294.372 256.089 293.468 254.036C292.564 251.983 292.327 249.724 292.788 247.544C293.249 245.365 294.386 243.362 296.057 241.791C297.727 240.22 299.855 239.149 302.172 238.716C304.488 238.282 306.89 238.505 309.072 239.355C311.254 240.206 313.119 241.646 314.432 243.494C315.744 245.341 316.444 247.514 316.444 249.736C316.441 252.715 315.181 255.571 312.942 257.678C310.704 259.784 307.668 260.969 304.502 260.972ZM304.502 239.521C302.354 239.521 300.255 240.121 298.47 241.243C296.684 242.365 295.293 243.961 294.471 245.827C293.649 247.694 293.434 249.748 293.853 251.729C294.272 253.71 295.306 255.531 296.824 256.959C298.343 258.388 300.277 259.361 302.383 259.755C304.489 260.149 306.673 259.947 308.656 259.173C310.64 258.4 312.336 257.091 313.529 255.411C314.722 253.731 315.359 251.756 315.359 249.736C315.355 247.028 314.21 244.432 312.175 242.517C310.14 240.602 307.38 239.525 304.502 239.521Z" fill="#8DC2F2"/>
<path d="M254.015 173.126C257.913 173.126 261.073 170.153 261.073 166.486C261.073 162.819 257.913 159.847 254.015 159.847C250.118 159.847 246.958 162.819 246.958 166.486C246.958 170.153 250.118 173.126 254.015 173.126Z" fill="#FF69B4"/>
<path d="M309.387 294.17C313.285 294.17 316.444 291.198 316.444 287.531C316.444 283.864 313.285 280.891 309.387 280.891C305.49 280.891 302.33 283.864 302.33 287.531C302.33 291.198 305.49 294.17 309.387 294.17Z" fill="#8DC2F2"/>
<path d="M304.501 405V288.041H254.016C254.016 342.763 206.864 387.124 148.701 387.124C90.537 387.124 43.3859 342.763 43.3859 288.041H0.5V405H304.501Z" fill="#8DC2F2"/>
<path d="M148.701 387.124C206.865 387.124 254.016 342.763 254.016 288.041H43.386C43.386 342.763 90.537 387.124 148.701 387.124Z" fill="#1087A1"/>
<path d="M447.699 329.695C499.6 304.995 520.392 245.387 494.139 196.557L306.186 286.003C332.44 334.834 395.797 354.395 447.699 329.695Z" fill="#8DC2F2"/>
<path d="M451.506 145.292C451.856 145.069 452.193 144.83 452.522 144.581C451.837 146.51 450.733 148.284 449.281 149.79C448.941 150.143 448.578 150.472 448.205 150.791C448.198 150.71 448.19 150.629 448.185 150.549C448.142 149.767 448.202 148.945 448.214 148.14C449.508 147.415 450.629 146.445 451.506 145.292Z" fill="url(#paint0_linear)"/>
<path d="M456.599 116.797C457.389 115.544 457.844 114.13 457.926 112.675C458.009 111.221 457.715 109.769 457.07 108.445C456.425 107.12 455.449 105.963 454.225 105.071C453.001 104.179 451.565 103.579 450.041 103.324C448.517 103.068 446.949 103.163 445.473 103.602C443.997 104.041 442.655 104.81 441.564 105.843C440.472 106.876 439.663 108.143 439.206 109.534C438.748 110.926 438.656 112.401 438.937 113.834C436.198 115.061 433.905 117.023 432.348 119.473C430.791 121.923 430.039 124.752 430.186 127.603C428.878 129.493 428.056 131.644 427.787 133.886C427.518 136.127 427.808 138.397 428.636 140.514C429.463 142.631 430.805 144.537 432.553 146.081C434.302 147.624 436.409 148.762 438.707 149.404C441.006 150.046 443.432 150.175 445.792 149.779C448.152 149.384 450.382 148.475 452.304 147.126C454.225 145.777 455.785 144.025 456.86 142.008C457.935 139.992 458.494 137.768 458.494 135.512C458.494 135.281 458.487 135.051 458.476 134.823C460.386 132.065 461.241 128.777 460.9 125.5C460.559 122.224 459.042 119.154 456.599 116.797Z" fill="#FF6868"/>
<g opacity="0.1">
<path opacity="0.1" d="M438.81 111.546C438.853 111.526 438.894 111.503 438.937 111.484C438.906 111.328 438.885 111.169 438.863 111.01C438.859 111.044 438.852 111.076 438.848 111.109C438.829 111.255 438.821 111.4 438.81 111.546Z" fill="#7FFFD4"/>
<path opacity="0.1" d="M460.862 126.299C460.582 128.502 459.765 130.615 458.476 132.473C458.487 132.701 458.494 132.931 458.494 133.162C458.495 136.904 456.957 140.501 454.202 143.2C451.447 145.899 447.689 147.491 443.714 147.642C439.74 147.793 435.858 146.491 432.881 144.01C429.903 141.529 428.062 138.06 427.742 134.33C427.708 134.72 427.688 135.113 427.688 135.512C427.688 139.355 429.311 143.041 432.199 145.759C435.088 148.477 439.006 150.004 443.091 150.004C447.176 150.004 451.094 148.477 453.983 145.759C456.871 143.041 458.494 139.355 458.494 135.512C458.494 135.281 458.487 135.051 458.476 134.823C460.343 132.13 461.203 128.928 460.918 125.724C460.902 125.915 460.887 126.106 460.862 126.299Z" fill="#7FFFD4"/>
<path opacity="0.1" d="M457.863 111.001C457.696 112.219 457.266 113.392 456.599 114.447C456.868 114.707 457.123 114.98 457.37 115.258C457.896 113.897 458.064 112.436 457.863 111.001H457.863Z" fill="#7FFFD4"/>
</g>
<path d="M394.528 272.277C394.601 273.102 394.839 273.906 395.228 274.648C395.426 275.018 395.714 275.338 396.069 275.582C396.424 275.827 396.836 275.989 397.27 276.055C398.068 276.06 398.851 275.846 399.523 275.44C400.894 274.767 402.317 273.983 403.033 272.693C403.726 271.444 403.626 269.953 403.509 268.548L402.588 257.497C400.37 257.44 398.141 257.441 395.925 257.555C393.729 257.667 393.344 258.154 393.649 260.17C394.258 264.184 393.961 268.261 394.528 272.277Z" fill="#FBBEBE"/>
<path d="M459.612 279.746L464.891 287.769C465.118 288.236 465.53 288.601 466.039 288.785C466.418 288.837 466.804 288.774 467.142 288.605C468.903 287.881 470.25 286.506 471.543 285.17C472.42 284.262 473.327 283.306 473.656 282.119C473.827 281.475 473.819 280.802 473.635 280.161C473.45 279.521 473.094 278.936 472.602 278.462C471.985 277.957 471.319 277.509 470.611 277.124C466.439 274.476 464.555 269.446 460.436 266.725C460.198 266.539 459.909 266.422 459.602 266.387C459.296 266.404 459 266.497 458.745 266.657C456.867 267.625 454.99 268.593 453.113 269.561C450.675 270.816 451.448 270.964 453.3 272.316C456.027 274.307 457.731 277.091 459.612 279.746Z" fill="#FBBEBE"/>
<path d="M405.986 265.886C405.212 265.657 404.346 265.451 403.617 265.784C403.276 265.98 402.988 266.247 402.774 266.565C402.56 266.882 402.426 267.242 402.383 267.616C402.236 268.353 402.254 269.118 402.036 269.84C401.669 271.057 400.683 272.008 399.733 272.903C399.35 273.334 398.851 273.661 398.288 273.85C397.527 274.033 396.717 273.698 395.943 273.825C395.492 273.934 395.082 274.157 394.756 274.469C394.429 274.782 394.201 275.172 394.093 275.599C393.892 276.453 393.862 277.336 394.003 278.201L394.602 284.36C394.708 285.111 394.716 285.871 394.627 286.623C394.406 287.977 393.569 289.165 393.105 290.463C392.641 291.762 392.667 293.419 393.829 294.245C394.234 294.5 394.701 294.654 395.187 294.694C395.672 294.735 396.161 294.659 396.607 294.476C397.497 294.098 398.283 293.536 398.909 292.832C402.464 289.184 404.052 284.243 406.817 280.033C407.523 279.059 408.154 278.04 408.706 276.982C409.086 276.164 409.327 275.296 409.634 274.452C410.058 273.324 410.567 272.226 411.157 271.165C411.486 270.559 412.745 269.099 412.48 268.421C412.029 267.266 407.183 266.242 405.986 265.886Z" fill="white"/>
<path d="M470.092 282.874C469.293 284.286 467.958 285.363 466.352 285.89C465.887 286.009 465.453 286.22 465.081 286.509C464.837 286.789 464.686 287.131 464.646 287.492C464.607 287.853 464.681 288.216 464.859 288.538C465.226 289.174 465.704 289.748 466.273 290.236C469.465 293.414 471.575 297.416 472.335 301.729C472.524 302.817 472.647 303.974 473.34 304.864C474.692 306.602 477.57 306.488 479.603 305.497C480.224 305.23 480.763 304.819 481.17 304.302C481.509 303.743 481.724 303.124 481.803 302.485C482.17 300.899 482.373 299.284 482.408 297.661C482.369 294.599 481.146 291.672 480.562 288.66C479.734 284.384 480.149 279.779 478.033 275.916C477.822 275.462 477.489 275.068 477.066 274.773C476.537 274.511 475.943 274.386 475.345 274.409C473.433 274.336 471.52 274.32 469.606 274.362C469.069 274.373 468.442 274.437 468.165 274.869C467.88 275.31 468.129 275.874 468.378 276.334C469.563 278.515 471.483 280.258 470.092 282.874Z" fill="white"/>
<path d="M424.675 206.239C424.14 206.655 423.778 207.234 423.651 207.875C423.525 208.516 423.642 209.179 423.982 209.747C424.406 210.408 425.167 211.023 425 211.779C424.827 212.564 423.802 212.83 422.961 212.956C415.548 214.065 408.334 216.107 401.146 218.143L393.607 220.279C391.434 220.894 389.222 221.527 387.344 222.726C385.62 223.831 384.256 225.364 383.403 227.155C382.541 228.973 382.245 230.976 381.937 232.945C380.805 240.194 379.359 247.513 375.922 254.087L394.207 259.728C395.98 260.34 397.816 260.775 399.686 261.025C401.468 261.164 403.262 261.083 405.022 260.782C404.908 256.941 404.839 252.984 404.726 249.142C404.714 247.929 404.63 246.717 404.475 245.513C404.201 243.672 403.594 241.881 403.404 240.031C404.248 239.376 405.474 239.539 406.567 239.569C409.061 239.637 411.497 238.822 413.715 237.746C415.933 236.671 417.996 235.331 420.202 234.233C423.878 232.405 428.058 231.175 430.863 228.288C429.434 233.412 426.058 237.878 425.405 243.14C424.745 248.457 427.045 253.66 429.296 258.576L436.49 274.282C437.284 276.016 438.342 277.966 440.3 278.379C441.52 278.637 442.779 278.206 443.911 277.707C450.532 274.79 455.829 269.305 462.898 267.551C462.372 264.258 459.605 261.535 458.039 258.548C456.718 256.029 456.286 253.193 455.406 250.509C454.526 247.825 453.013 245.105 450.353 243.829C449.09 243.223 447.388 242.696 447.27 241.367C447.262 240.94 447.358 240.517 447.552 240.13C448.499 237.888 449.969 235.874 451.854 234.237C452.097 234.062 452.291 233.833 452.42 233.572C452.49 233.313 452.504 233.043 452.462 232.779C452.329 230.64 453.546 228.64 454.904 226.92C456.261 225.2 457.83 223.564 458.596 221.546C459.912 218.077 458.606 214.265 457.304 210.791C456.778 209.387 456.225 207.939 455.145 206.852C453.451 205.146 450.812 204.654 448.346 204.4C440.371 203.578 431.012 201.611 424.675 206.239Z" fill="#663399"/>
<g opacity="0.1">
<path opacity="0.1" d="M423.845 207.277C424.113 207.225 424.362 207.107 424.565 206.935C424.768 206.762 424.918 206.541 425 206.296C425.021 206.199 425.027 206.101 425.019 206.003C424.904 206.081 424.788 206.157 424.675 206.239C424.309 206.513 424.023 206.87 423.845 207.277Z" fill="#7FFFD4"/>
</g>
<path d="M437.277 151.872C437.372 153.585 436.822 155.419 435.422 156.519C434.973 156.871 434.451 157.139 434.019 157.51C433.635 157.881 433.342 158.326 433.159 158.815C432.977 159.304 432.909 159.824 432.962 160.34C433.015 160.855 433.186 161.354 433.465 161.801C433.743 162.248 434.121 162.632 434.574 162.927C436.028 163.762 437.876 163.537 439.554 163.263C441.792 162.969 443.986 162.43 446.092 161.658C448.21 160.876 450.012 159.487 451.245 157.687C449.417 156.729 448.422 154.716 448.311 152.75C448.2 150.782 448.774 148.549 447.449 147.022C446.173 145.552 443.772 145.562 441.828 146.067C440.852 146.32 439.906 146.671 438.929 146.919C438.434 147.044 436.797 147.048 436.474 147.391C435.885 148.015 437.222 150.88 437.277 151.872Z" fill="#FBBEBE"/>
<path opacity="0.1" d="M437.277 151.872C437.372 153.585 436.822 155.419 435.422 156.519C434.973 156.871 434.451 157.139 434.019 157.51C433.635 157.881 433.342 158.326 433.159 158.815C432.977 159.304 432.909 159.824 432.962 160.34C433.015 160.855 433.186 161.354 433.465 161.801C433.743 162.248 434.121 162.632 434.574 162.927C436.028 163.762 437.876 163.537 439.554 163.263C441.792 162.969 443.986 162.43 446.092 161.658C448.21 160.876 450.012 159.487 451.245 157.687C449.417 156.729 448.422 154.716 448.311 152.75C448.2 150.782 448.774 148.549 447.449 147.022C446.173 145.552 443.772 145.562 441.828 146.067C440.852 146.32 439.906 146.671 438.929 146.919C438.434 147.044 436.797 147.048 436.474 147.391C435.885 148.015 437.222 150.88 437.277 151.872Z" fill="#7FFFD4"/>
<path d="M442.883 151.766C448.861 151.766 453.707 147.207 453.707 141.583C453.707 135.959 448.861 131.399 442.883 131.399C436.905 131.399 432.059 135.959 432.059 141.583C432.059 147.207 436.905 151.766 442.883 151.766Z" fill="#FBBEBE"/>
<path d="M408.704 219.712C408.51 220.516 408.165 221.282 407.685 221.973C406.423 224.082 405.967 226.535 406.393 228.922C406.621 230.106 407.156 231.219 407.949 232.162C408.743 233.106 409.771 233.851 410.943 234.333C411.956 234.708 413.211 234.807 414.047 234.15C412.601 232.381 412.524 229.964 412.611 227.734C412.586 227.317 412.691 226.903 412.914 226.542C412.974 226.457 413.051 226.383 413.142 226.327C413.232 226.27 413.334 226.232 413.442 226.214C413.549 226.196 413.659 226.199 413.765 226.223C413.87 226.246 413.97 226.29 414.057 226.351C414.02 227.756 414.309 229.151 414.903 230.441C415.132 230.936 415.523 231.484 416.097 231.47C416.921 231.45 417.144 230.4 417.113 229.624C416.985 226.466 416.821 223.177 415.203 220.407C414.61 219.393 413.821 218.441 413.595 217.304C413.585 216.909 413.44 216.528 413.182 216.217C413.003 216.086 412.795 215.994 412.573 215.951C411.641 215.703 409.435 214.931 408.666 215.753C407.842 216.633 408.853 218.659 408.704 219.712Z" fill="#FBBEBE"/>
<path d="M424.779 165.605C423.537 165.474 422.557 166.543 421.877 167.528C419.344 171.204 417.52 175.272 416.49 179.545C415.966 181.726 415.637 183.991 414.536 185.972C414.271 186.384 414.058 186.823 413.9 187.28C413.806 187.979 413.773 188.684 413.801 189.388C413.686 190.66 412.887 191.791 412.619 193.042C412.459 193.789 412.492 194.561 412.349 195.31C412.1 196.622 411.334 197.789 410.843 199.04C409.98 201.242 409.988 203.66 409.353 205.929C409.275 206.303 409.103 206.655 408.851 206.953C408.42 207.398 407.732 207.507 407.169 207.792C406.725 208.047 406.345 208.389 406.054 208.794C405.762 209.198 405.566 209.657 405.479 210.139C405.311 211.103 405.291 212.085 405.421 213.054L405.919 219.078C406.431 218.875 406.766 218.329 407.194 217.995C407.976 217.383 409.126 217.52 410.127 217.691L411.586 217.94C413.078 218.194 414.701 218.518 415.658 219.625C416.419 218.506 415.984 216.856 417.153 216.112C417.533 215.87 418.004 215.788 418.405 215.577C418.782 215.347 419.095 215.035 419.317 214.667C419.539 214.299 419.663 213.886 419.679 213.464C419.702 212.619 419.578 211.776 419.312 210.969C421.186 210.224 422.349 208.439 423.082 206.654C423.888 204.494 424.472 202.265 424.825 199.999C426.517 191.047 428.065 182.032 428.218 172.941C428.325 171.42 428.147 169.893 427.691 168.431C427.158 166.995 426.385 165.775 424.779 165.605Z" fill="#7FFFD4"/>
<path d="M452.067 155.856C450.28 157.619 447.997 158.867 445.484 159.453C442.984 160.032 440.432 160.386 437.861 160.51C437.07 160.634 436.259 160.569 435.503 160.318C434.776 160.008 434.224 159.199 434.52 158.502C434.663 158.286 434.76 158.046 434.804 157.795C434.792 157.175 433.821 157.123 433.191 157.307C429.025 158.519 425.029 160.92 423.106 164.603C422.019 166.684 421.661 169.023 421.317 171.318C420.411 177.355 419.507 183.523 420.721 189.512C421.369 192.705 422.614 195.818 422.692 199.068C422.736 200.889 422.409 202.703 422.424 204.525C422.367 205.163 422.548 205.8 422.937 206.325C423.237 206.653 423.689 206.859 423.898 207.244C424.248 207.888 423.781 208.771 424.241 209.35C424.808 210.063 425.991 209.551 426.772 209.048C430.7 206.539 435.443 205.416 440.166 205.876C445.839 206.449 451.476 209.294 456.977 207.872C456.694 207.483 456.45 207.071 456.247 206.64C453.504 198.158 453.69 188.678 457.795 180.698C459.198 177.972 461.059 175.374 461.597 172.388C461.813 170.991 461.831 169.573 461.648 168.172C461.358 165.461 460.672 162.728 459.106 160.436C457.54 158.144 454.949 156.124 452.067 155.856Z" fill="#7FFFD4"/>
<path d="M425.881 222.332C425.44 223.44 425.228 224.616 425.257 225.799C425.217 226.929 425.277 228.061 425.436 229.183C425.528 230.141 425.891 231.059 426.488 231.841C426.793 232.226 427.213 232.517 427.694 232.678C428.175 232.839 428.695 232.862 429.19 232.745C429.58 232.593 429.928 232.361 430.21 232.066C430.492 231.771 430.701 231.42 430.82 231.04C431.053 230.279 431.224 229.503 431.332 228.717C431.807 226.406 433.097 224.236 433.119 221.882C433.137 221.603 433.09 221.324 432.981 221.063C432.512 220.096 430.213 219.01 429.09 219.173C427.685 219.376 426.391 221.215 425.881 222.332Z" fill="#FBBEBE"/>
<path opacity="0.1" d="M457.116 164.453C456.902 166.478 458.984 168.004 459.807 169.886C460.143 170.764 460.335 171.686 460.375 172.619C460.953 179.093 460.504 185.605 460.055 192.088C459.973 194.246 459.688 196.394 459.204 198.505C458.043 202.935 455.185 206.775 452.384 210.501C451.421 211.994 449.949 213.137 448.207 213.741L438.597 218.121C437.393 218.622 436.248 219.241 435.183 219.968C433.947 220.88 432.975 222.071 432.357 223.43C430.493 222.533 428.557 221.729 426.692 220.832C426.256 220.622 425.768 220.349 425.692 219.893C425.591 219.282 426.27 218.85 426.738 218.415C427.612 217.601 427.882 216.395 428.355 215.326C429.902 211.837 433.792 209.603 435.195 206.06C435.734 204.699 435.899 203.16 436.855 202.019C437.403 201.447 438.018 200.936 438.689 200.496C440.171 199.313 441.532 198.003 442.754 196.581C443.303 196.045 443.753 195.426 444.084 194.75C444.504 193.744 444.378 192.623 444.4 191.543C444.471 188.007 446.171 184.709 447.211 181.31C448.191 178.109 448.6 174.752 449.885 171.648C451.171 168.545 453.689 165.288 457.116 164.453Z" fill="#7FFFD4"/>
<path d="M458.365 164.453C458.151 166.478 460.233 168.004 461.056 169.886C461.392 170.764 461.584 171.686 461.624 172.619C462.202 179.093 461.753 185.605 461.304 192.088C461.222 194.246 460.937 196.394 460.453 198.505C459.292 202.935 456.434 206.775 453.633 210.501C452.67 211.994 451.198 213.137 449.456 213.741L439.846 218.121C438.642 218.622 437.497 219.241 436.432 219.968C435.196 220.88 434.224 222.071 433.606 223.43C431.742 222.533 429.806 221.729 427.941 220.832C427.505 220.622 427.017 220.349 426.941 219.893C426.84 219.282 427.519 218.85 427.987 218.415C428.861 217.601 429.131 216.395 429.604 215.326C431.151 211.837 435.041 209.603 436.444 206.06C436.983 204.699 437.148 203.16 438.104 202.019C438.652 201.447 439.267 200.936 439.938 200.496C441.42 199.313 442.781 198.003 444.003 196.581C444.552 196.045 445.002 195.426 445.333 194.75C445.753 193.744 445.627 192.623 445.649 191.543C445.72 188.007 447.42 184.709 448.46 181.31C449.44 178.109 449.849 174.752 451.134 171.648C452.42 168.545 454.938 165.288 458.365 164.453Z" fill="#7FFFD4"/>
<path d="M448.251 125.84C444.916 125.456 441.539 126.114 438.64 127.712C439.067 127.727 439.496 127.754 439.928 127.803C443.131 128.167 446.132 129.468 448.507 131.523C450.882 133.577 452.511 136.282 453.165 139.254C453.818 142.227 453.463 145.317 452.15 148.089C450.836 150.862 448.63 153.176 445.844 154.706C449.814 154.842 453.687 153.529 456.653 151.042C459.619 148.555 461.448 145.085 461.759 141.359C462.07 137.632 460.838 133.937 458.321 131.045C455.803 128.153 452.195 126.288 448.251 125.84Z" fill="#FF6868"/>
<path d="M452.989 133.896C453.363 134.693 453.566 135.552 453.587 136.423C453.608 137.294 453.446 138.16 453.111 138.972C453.038 138.762 452.953 138.556 452.858 138.354C450.954 134.368 445.089 132.718 439.758 134.669C436.618 135.818 434.364 137.961 433.431 140.342C432.074 136.489 434.831 132.062 439.889 130.211C445.22 128.261 451.085 129.911 452.989 133.896Z" fill="#FF6868"/>
<g opacity="0.1">
<path opacity="0.1" d="M453.019 138.656C452.772 135.858 451.669 133.188 449.842 130.969C448.015 128.75 445.543 127.077 442.725 126.154C441.291 126.486 439.915 127.011 438.64 127.712C439.067 127.727 439.496 127.754 439.928 127.804C443.02 128.155 445.927 129.381 448.264 131.318C450.601 133.255 452.259 135.814 453.019 138.656Z" fill="#7FFFD4"/>
<path opacity="0.1" d="M455.517 128.081C455.27 125.283 454.167 122.613 452.34 120.394C450.513 118.175 448.041 116.502 445.223 115.579C443.789 115.911 442.413 116.436 441.138 117.137C441.565 117.152 441.994 117.179 442.426 117.228C445.518 117.58 448.425 118.806 450.762 120.743C453.099 122.68 454.756 125.239 455.517 128.081Z" fill="#7FFFD4"/>
<path opacity="0.1" d="M455.58 112.285C455.432 110.597 454.766 108.986 453.663 107.647C452.56 106.307 451.068 105.298 449.368 104.74C448.503 104.941 447.672 105.258 446.902 105.681C447.16 105.69 447.419 105.706 447.68 105.736C449.546 105.948 451.3 106.688 452.711 107.857C454.121 109.026 455.121 110.57 455.58 112.285Z" fill="#7FFFD4"/>
<path opacity="0.1" d="M461.341 136.692C461.641 140.167 460.599 143.628 458.408 146.44C456.217 149.251 453.022 151.226 449.409 152.003C448.369 153.065 447.168 153.976 445.844 154.706C448.232 154.788 450.607 154.346 452.783 153.415C454.958 152.484 456.873 151.09 458.377 149.342C459.88 147.595 460.931 145.542 461.445 143.346C461.96 141.151 461.924 138.873 461.341 136.692V136.692Z" fill="#7FFFD4"/>
</g>
<path d="M413.429 229.546L411.438 172.891" stroke="#00BFA6" stroke-width="2" stroke-miterlimit="10"/>
<path d="M411.438 180.907C416.143 180.907 419.958 177.319 419.958 172.891C419.958 168.464 416.143 164.875 411.438 164.875C406.732 164.875 402.917 168.464 402.917 172.891C402.917 177.319 406.732 180.907 411.438 180.907Z" fill="#00BFA6"/>
<path d="M412.665 207.809C412.665 207.809 410.583 183.23 385.745 186.867L412.665 207.809Z" fill="#00BFA6"/>
</g>
<defs>
<linearGradient id="paint0_linear" x1="450.346" y1="150.791" x2="450.346" y2="144.581" gradientUnits="userSpaceOnUse">
<stop stop-color="#808080" stop-opacity="0.25"/>
<stop offset="0.53514" stop-color="#808080" stop-opacity="0.12"/>
<stop offset="1" stop-color="#808080" stop-opacity="0.1"/>
</linearGradient>
<clipPath id="clip0">
<rect x="0.5" width="505" height="405" fill="white"/>
</clipPath>
</defs>
</svg>
