<?xml version="1.0" encoding="utf-8"?>
<!-- Generator: Adobe Illustrator 24.0.0, SVG Export Plug-In . SVG Version: 6.00 Build 0)  -->
<svg version="1.1" id="Layer_1" xmlns="http://www.w3.org/2000/svg" xmlns:xlink="http://www.w3.org/1999/xlink" x="0px" y="0px"
	 viewBox="0 0 180.3 180.7" style="enable-background:new 0 0 180.3 180.7;" xml:space="preserve">
<style type="text/css">
	.st0{fill:#143E59;}
</style>
<title>Asset 1</title>
<g id="Layer_2_1_">
	<g id="Calque_1">
		<path class="st0" d="M171.2,120.4c-6.8-7.1-13.7-14.1-20.6-21.1c-13.1-13.3-26.2-26.6-39.2-40c-1.1-1.2-1.6-1.2-2.7-0.1
			c-12,11.7-24.1,23.2-36.1,34.9c-1.1,1.2-1.6,1.1-2.7,0c-17.5-17.6-35-35.2-52.6-52.7c-1.1-1.1-1-1.9-0.2-3.1
			c3.4-5.5,7.6-10.5,12.4-14.9C51.6,3.9,77.3-3.5,106.3,1.5c18.8,3.2,34.9,12,48.2,25.8c14.3,14.6,23.3,33.7,25.3,54.1
			c1.7,14.2-0.7,28.5-6.9,41.4C172.1,121.7,171.7,121,171.2,120.4z"/>
		<path class="st0" d="M7.9,59.2c20.6,20.9,41.2,41.9,61.8,62.9c1.2,1.2,1.8,1.3,3,0c11.4-11.6,22.8-23.1,34.1-34.8
			c1.5-1.6,2.3-1.5,3.8,0c17,17.2,34.1,34.2,51.3,51.2c2,2,2.4,3.4,0.5,5.5c-1,1.2-1.9,2.5-2.8,3.8c-24.7,32.1-74,42.7-110.3,22.9
			C14.2,151.6-2.2,121.5,0.2,81.5c0.6-8.1,3-15.9,7-23C7.4,58.8,7.7,59,7.9,59.2z"/>
	</g>
</g>
</svg>
