<svg width="42" height="42" viewBox="0 0 42 42" fill="none" xmlns="http://www.w3.org/2000/svg">
<g clip-path="url(#clip0)">
<path d="M21.0001 0C20.6301 0 20.3302 0.299906 20.3302 0.669867V4.31066C20.3302 4.68062 20.6301 4.98053 21.0001 4.98053C21.37 4.98053 21.6699 4.68062 21.6699 4.31066V0.669867C21.6699 0.299906 21.37 0 21.0001 0Z" fill="#7FFFD4"/>
<path d="M13.3675 6.08383L11.626 2.88658C11.4491 2.56165 11.0422 2.44172 10.7173 2.61875C10.3925 2.79577 10.2726 3.20256 10.4495 3.52741L12.1911 6.72466C12.3127 6.94787 12.5425 7.07419 12.7799 7.07419C12.8882 7.07419 12.998 7.04794 13.0998 6.99249C13.4246 6.81555 13.5445 6.40868 13.3675 6.08383Z" fill="#7FFFD4"/>
<path d="M6.92489 11.6124L3.86611 9.6377C3.55522 9.43688 3.14071 9.52622 2.94006 9.83711C2.73941 10.1479 2.82866 10.5626 3.13948 10.7632L6.19826 12.7378C6.31064 12.8104 6.43648 12.845 6.56092 12.845C6.78068 12.845 6.9961 12.7369 7.12431 12.5384C7.32504 12.2277 7.23571 11.8131 6.92489 11.6124Z" fill="#7FFFD4"/>
<path d="M31.2825 2.61878C30.9574 2.44176 30.5507 2.56177 30.3738 2.88662L28.6324 6.08387C28.4555 6.40879 28.5753 6.8155 28.9001 6.99253C29.0019 7.04798 29.1117 7.07423 29.22 7.07423C29.4574 7.07423 29.6872 6.94774 29.8088 6.7247L31.5503 3.52745C31.7273 3.20252 31.6073 2.79581 31.2825 2.61878Z" fill="#7FFFD4"/>
<path d="M39.0599 9.83719C38.8592 9.52637 38.4443 9.43728 38.1338 9.63777L35.0751 11.6124C34.7642 11.8131 34.6749 12.2277 34.8756 12.5385C35.0038 12.7369 35.2191 12.8451 35.439 12.8451C35.5636 12.8451 35.6895 12.8105 35.8017 12.738L38.8605 10.7633C39.1713 10.5625 39.2605 10.1479 39.0599 9.83719Z" fill="#7FFFD4"/>
<path d="M29.3369 9.83615C27.1603 7.63173 24.257 6.39453 21.1617 6.3527C17.9393 6.31201 14.798 7.64452 12.5375 10.0163C12.2822 10.2841 12.2925 10.7081 12.5603 10.9633C12.8281 11.2185 13.2522 11.2085 13.5074 10.9405C15.5115 8.8375 18.2949 7.65199 21.1437 7.69218C23.8849 7.72935 26.4562 8.82504 28.3837 10.7774C30.3132 12.7315 31.3757 15.3204 31.3757 18.0668C31.3757 20.2782 30.6891 22.3892 29.3898 24.1716C29.3781 24.1877 29.3672 24.2042 29.3569 24.2212L29.275 24.3575C28.9552 24.8899 28.6615 25.3788 28.3915 25.8337C28.2027 26.1519 28.3076 26.5629 28.6257 26.7516C28.7329 26.8152 28.8507 26.8455 28.9669 26.8455C29.1956 26.8455 29.4185 26.7284 29.5436 26.5174C29.8124 26.0643 30.1047 25.5776 30.4233 25.0474L30.49 24.9362C31.946 22.9283 32.7153 20.5537 32.7153 18.0668C32.7152 14.9656 31.5154 12.0426 29.3369 9.83615Z" fill="#7FFFD4"/>
<path d="M27.9649 27.9012C27.636 27.7322 27.2321 27.8618 27.063 28.1909C26.4596 29.3651 26.0992 30.3336 25.9024 31.33H16.0977C15.6988 29.3076 14.6686 27.5929 12.7631 24.4208L12.6433 24.2214C12.633 24.2043 12.622 24.1878 12.6103 24.1717C11.3111 22.3893 10.6244 20.2783 10.6244 18.0669C10.6244 16.2794 11.1017 14.5084 12.005 12.9455C12.1901 12.6253 12.0805 12.2155 11.7602 12.0305C11.44 11.8453 11.0303 11.9549 10.8451 12.2752C9.82443 14.0416 9.28491 16.0443 9.28491 18.0669C9.28491 20.5538 10.0542 22.9284 11.5102 24.9364L11.6149 25.1107C13.5292 28.2975 14.4641 29.8542 14.8021 31.6875C14.1865 32.0857 13.778 32.7777 13.778 33.5638C13.778 34.1723 14.0228 34.7244 14.4188 35.1277C14.0228 35.5309 13.778 36.0831 13.778 36.6915C13.778 37.9232 14.7801 38.9253 16.0116 38.9253H16.9482C17.4478 40.7137 19.0963 42 21 42C22.9038 42 24.5523 40.7138 25.052 38.9252H25.9885C27.2202 38.9252 28.2222 37.9231 28.2222 36.6914C28.2222 36.0829 27.9774 35.5309 27.5813 35.1276C27.9773 34.7243 28.2222 34.1722 28.2222 33.5637C28.2222 32.7776 27.8136 32.0855 27.1981 31.6874C27.3654 30.7776 27.6834 29.9146 28.2545 28.8031C28.4236 28.4741 28.2939 28.0703 27.9649 27.9012ZM21 40.6604C19.8341 40.6604 18.8085 39.9528 18.3654 38.9252H23.6346C23.1914 39.9528 22.1659 40.6604 21 40.6604ZM24.1257 35.7975H25.9885C26.4815 35.7975 26.8824 36.1986 26.8824 36.6914C26.8824 37.1844 26.4813 37.5855 25.9885 37.5855H16.0115C15.5185 37.5855 15.1175 37.1844 15.1175 36.6914C15.1175 36.1985 15.5186 35.7975 16.0115 35.7975H21.4773C21.8473 35.7975 22.1472 35.4976 22.1472 35.1276C22.1472 34.7576 21.8473 34.4577 21.4773 34.4577H16.0115C15.5185 34.4577 15.1175 34.0566 15.1175 33.5637C15.1175 33.1601 15.3865 32.8184 15.7546 32.7077C15.7891 32.6973 15.8244 32.6895 15.86 32.6835C15.8708 32.6816 15.8815 32.68 15.8923 32.6786C15.9317 32.6734 15.9714 32.6696 16.0115 32.6696H25.9884C26.0286 32.6696 26.0682 32.6733 26.1076 32.6786C26.1185 32.6799 26.1291 32.6817 26.14 32.6836C26.1753 32.6895 26.2103 32.6973 26.2446 32.7076C26.613 32.8181 26.8824 33.1598 26.8824 33.5638C26.8824 34.0568 26.4813 34.4578 25.9885 34.4578H24.1257C23.7557 34.4578 23.4558 34.7577 23.4558 35.1277C23.4559 35.4976 23.7557 35.7975 24.1257 35.7975Z" fill="#7FFFD4"/>
</g>
<defs>
<clipPath id="clip0">
<rect width="42" height="42" fill="white"/>
</clipPath>
</defs>
</svg>
