<svg width="87" height="86" viewBox="0 0 87 86" fill="none" xmlns="http://www.w3.org/2000/svg">
<g clip-path="url(#clip0)">
<path d="M34.9 35.8304C34.8987 35.0393 34.2579 34.4 33.4667 34.4H33.4639L19.1534 34.4259C17.1912 34.4259 15.4712 36.0584 15.3221 36.2075L8.11385 42.7679C6.86551 43.9949 6.23328 45.2877 6.23328 46.6078C6.23328 47.9279 6.86534 49.2207 8.05507 50.3861L15.2532 58.3468C15.4423 58.5359 17.1623 60.2002 19.1333 60.2002H33.4666C34.2592 60.2002 34.8998 59.558 34.8998 58.7669C34.8998 57.9758 34.2592 57.3336 33.4666 57.3336H19.1333C18.5714 57.3336 17.6928 56.7259 17.3301 56.3733L10.1248 48.4026C9.444 47.7345 9.1 47.1312 9.1 46.608C9.1 46.0848 9.444 45.4814 10.0846 44.8507L17.2915 38.2888C17.6456 37.942 18.5543 37.2669 19.1563 37.2669H33.4696C34.2607 37.2652 34.9015 36.6217 34.9 35.8304Z" fill="white"/>
<path d="M30.6 48.7333H24.8667C24.0741 48.7333 23.4335 49.3754 23.4335 50.1666C23.4335 50.9577 24.0741 51.5998 24.8667 51.5998H30.6C31.3927 51.5998 32.0333 50.9577 32.0333 50.1666C32.0333 49.3754 31.3927 48.7333 30.6 48.7333Z" fill="white"/>
<path d="M53.5333 83.1333H49.2333V24.3667C49.2333 23.5756 48.5926 22.9334 47.8 22.9334C47.0074 22.9334 46.3667 23.5756 46.3667 24.3667V83.1334H40.6334V30.1C40.6334 29.3089 39.9928 28.6667 39.2002 28.6667H13.42C12.8581 28.6667 11.9795 28.059 11.5824 27.6705L4.39133 20.23C3.71055 19.562 3.36655 18.9586 3.36655 18.4354C3.36655 17.9122 3.71055 17.3088 4.39133 16.6408L11.5581 9.5974C11.9121 9.24903 12.8208 8.59983 13.42 8.59983H33.4666C34.2592 8.59983 34.8998 7.95769 34.8998 7.16656C34.8998 6.37542 34.2592 5.73328 33.4666 5.73328H13.42C11.4578 5.73328 9.73778 7.36577 9.54713 7.55221L2.38058 14.5956C1.13207 15.8225 0.5 17.114 0.5 18.4356C0.5 19.7556 1.13207 21.0485 2.35622 22.2483L9.54008 29.6801C9.72787 29.8692 11.4492 31.5334 13.4202 31.5334H37.7667V83.1334H27.7334C26.9408 83.1334 26.3002 83.7756 26.3002 84.5667C26.3002 85.3579 26.9408 86 27.7334 86H53.5334C54.3261 86 54.9667 85.3579 54.9667 84.5667C54.9667 83.7756 54.3259 83.1333 53.5333 83.1333Z" fill="white"/>
<path d="M30.6 43H22C21.2073 43 20.5667 43.6421 20.5667 44.4333C20.5667 45.2244 21.2073 45.8666 22 45.8666H30.6C31.3926 45.8666 32.0333 45.2244 32.0333 44.4333C32.0333 43.6421 31.3926 43 30.6 43Z" fill="white"/>
<path d="M22 83.1333H1.93328C1.14063 83.1333 0.5 83.7754 0.5 84.5666C0.5 85.3577 1.14063 86 1.93328 86H22C22.7926 86 23.4333 85.3579 23.4333 84.5667C23.4333 83.7756 22.7926 83.1333 22 83.1333Z" fill="white"/>
<path d="M30.6 14.3333H16.2667C15.4741 14.3333 14.8334 14.9754 14.8334 15.7665C14.8334 16.5577 15.4741 17.1998 16.2667 17.1998H30.6C31.3926 17.1998 32.0333 16.5577 32.0333 15.7665C32.0333 14.9754 31.3926 14.3333 30.6 14.3333Z" fill="white"/>
<path d="M56.4 34.4H65C65.7927 34.4 66.4333 33.7578 66.4333 32.9667C66.4333 32.1756 65.7927 31.5334 65 31.5334H56.4C55.6074 31.5334 54.9667 32.1756 54.9667 32.9667C54.9667 33.7578 55.6074 34.4 56.4 34.4Z" fill="white"/>
<path d="M30.6 20.0667H19.1333C18.3406 20.0667 17.7 20.7089 17.7 21.5C17.7 22.2912 18.3406 22.9333 19.1333 22.9333H30.6C31.3927 22.9333 32.0333 22.2912 32.0333 21.5C32.0333 20.7089 31.3927 20.0667 30.6 20.0667Z" fill="white"/>
<path d="M85.0667 83.1333H82.2C81.4074 83.1333 80.7667 83.7754 80.7667 84.5666C80.7667 85.3577 81.4074 86 82.2 86H85.0667C85.8594 86 86.5 85.3579 86.5 84.5667C86.5 83.7756 85.8594 83.1333 85.0667 83.1333Z" fill="white"/>
<path d="M56.4 28.6667H70.7333C71.5259 28.6667 72.1666 28.0246 72.1666 27.2334C72.1666 26.4423 71.5259 25.8001 70.7333 25.8001H56.4C55.6074 25.8001 54.9667 26.4423 54.9667 27.2334C54.9667 28.0246 55.6074 28.6667 56.4 28.6667Z" fill="white"/>
<path d="M73.6 83.1333H62.1333C61.3406 83.1333 60.7 83.7754 60.7 84.5666C60.7 85.3577 61.3406 85.9998 62.1333 85.9998H73.6C74.3927 85.9998 75.0333 85.3577 75.0333 84.5666C75.0333 83.7754 74.3927 83.1333 73.6 83.1333Z" fill="white"/>
<path d="M86.5 29.4291C86.5 28.1464 85.8837 26.918 84.5865 25.6436L77.4529 19.0446C77.2622 18.8584 75.5422 17.2244 73.58 17.2244H49.2333V4.24978C49.2333 1.90628 47.304 0 44.9333 0H42.0665C39.6958 0 37.7665 1.90628 37.7665 4.24978V24.3666C37.7665 25.1577 38.4072 25.7998 39.1998 25.7998C39.9925 25.7998 40.6331 25.1577 40.6331 24.3666V4.24978C40.6331 3.4872 41.2752 2.86655 42.0664 2.86655H44.9331C45.7242 2.86655 46.3664 3.4872 46.3664 4.24978V18.6576C46.3664 19.4488 47.007 20.0666 47.7996 20.0666H73.5797C74.1472 20.0666 75.0287 20.6885 75.4745 21.1185L82.6081 27.7175C83.2889 28.3855 83.6329 28.9617 83.6329 29.429C83.6329 29.8947 83.2889 30.4695 82.5465 31.202L75.4414 39.1112C75.0873 39.458 74.1786 40.1331 73.5782 40.1331H53.5319C52.7393 40.1331 52.0986 40.7766 52.1 41.5679C52.1013 42.3592 52.7421 42.9998 53.5333 42.9998H53.5348L73.58 42.974C75.5422 42.974 77.2622 41.3415 77.513 41.0905L84.6194 33.1829C85.8837 31.9389 86.5 30.7106 86.5 29.4291Z" fill="white"/>
</g>
<defs>
<clipPath id="clip0">
<rect x="0.5" width="86" height="86" fill="white"/>
</clipPath>
</defs>
</svg>
