<svg width="46" height="47" viewBox="0 0 46 47" fill="none" xmlns="http://www.w3.org/2000/svg">
<path d="M31.75 9.5H14.25C10.7988 9.5 8 12.2988 8 15.75V33.25C8 36.7013 10.7988 39.5 14.25 39.5H31.75C35.2025 39.5 38 36.7013 38 33.25V15.75C38 12.2988 35.2025 9.5 31.75 9.5ZM18 33.25H14.25V19.5H18V33.25ZM16.125 17.915C14.9175 17.915 13.9375 16.9275 13.9375 15.71C13.9375 14.4925 14.9175 13.505 16.125 13.505C17.3325 13.505 18.3125 14.4925 18.3125 15.71C18.3125 16.9275 17.3337 17.915 16.125 17.915ZM33 33.25H29.25V26.245C29.25 22.035 24.25 22.3538 24.25 26.245V33.25H20.5V19.5H24.25V21.7063C25.995 18.4738 33 18.235 33 24.8013V33.25Z" fill="#7FFFD4"/>
</svg>
