<!DOCTYPE svg PUBLIC "-//W3C//DTD SVG 20010904//EN" "http://www.w3.org/TR/2001/REC-SVG-20010904/DTD/svg10.dtd">
<svg version="1.0" xmlns="http://www.w3.org/2000/svg" width="502px" height="423px" viewBox="0 0 5020 4230" preserveAspectRatio="xMidYMid meet">
<g id="layer101" fill="#161616" stroke="none">
 <path d="M610 3753 c0 -22 8 -32 37 -48 51 -28 74 -79 85 -185 5 -49 7 -485 6 -969 -3 -1010 7 -911 -106 -966 -52 -25 -62 -34 -62 -56 0 -28 -11 -25 385 -115 83 -19 158 -37 168 -40 15 -5 17 5 17 114 0 65 3 122 6 125 4 3 19 -11 35 -33 16 -21 52 -57 81 -78 202 -151 450 -172 683 -57 143 70 243 174 315 326 57 124 73 206 74 389 1 99 -4 186 -11 218 -38 159 -124 303 -237 393 -112 91 -288 157 -426 162 -63 2 -65 1 -65 -23 0 -20 8 -27 44 -41 173 -64 240 -279 228 -738 -4 -168 -10 -236 -26 -306 -47 -202 -130 -298 -280 -325 -150 -27 -283 31 -356 156 -55 94 -65 169 -65 484 0 327 11 422 62 533 40 86 121 165 199 193 46 16 54 23 54 44 0 23 -3 25 -40 22 -59 -5 -151 -30 -208 -58 -28 -13 -55 -24 -60 -24 -6 0 -7 140 -4 353 3 287 7 361 20 402 16 50 51 92 95 114 14 7 22 21 22 36 l0 25 -335 0 -335 0 0 -27z"/>
 <path d="M3305 2921 c-90 -22 -177 -62 -232 -107 l-43 -35 -45 31 c-70 48 -173 93 -226 98 l-49 5 0 -1049 c0 -687 -4 -1062 -10 -1086 -12 -43 -75 -101 -126 -118 -26 -9 -34 -17 -34 -35 0 -32 17 -40 140 -64 58 -11 170 -34 250 -51 80 -17 154 -32 165 -33 20 -2 20 5 25 576 l5 578 37 -49 c49 -66 168 -144 271 -179 71 -23 98 -27 197 -27 97 1 127 5 195 27 103 35 168 73 246 144 109 101 172 214 220 395 33 122 33 337 0 463 -67 262 -244 438 -506 505 -44 11 -109 22 -145 23 -62 2 -65 1 -65 -22 0 -13 7 -27 15 -31 131 -61 163 -95 203 -217 39 -119 51 -226 50 -458 0 -403 -58 -580 -217 -663 -46 -23 -62 -26 -156 -27 -91 0 -111 3 -154 24 -69 34 -130 101 -163 180 l-28 66 -3 343 c-3 320 -2 348 18 425 44 177 115 264 263 321 29 12 37 20 37 40 0 23 -4 26 -32 25 -18 0 -64 -8 -103 -18z"/>
 </g>

</svg>