<svg width="48" height="48" viewBox="0 0 48 48" fill="none" xmlns="http://www.w3.org/2000/svg">
<path d="M22.5328 0.334921L3.163 10.962C2.35393 11.4086 1.69922 12.5143 1.69922 13.434V34.566C1.69922 35.4857 2.35393 36.5967 3.163 37.038L22.5328 47.6651C23.3418 48.1116 24.6566 48.1116 25.4657 47.6651L44.8354 37.038C45.6445 36.5914 46.2992 35.4857 46.2992 34.566V13.434C46.2992 12.5143 45.6445 11.4033 44.8354 10.962L25.4657 0.334921C25.0611 0.11164 24.5288 0 24.0019 0C23.4696 0 22.9373 0.11164 22.5328 0.334921Z" fill="#2DC5FA"/>
<path d="M16.8263 18.5063C16.8317 18.5063 16.8317 18.5063 16.837 18.5063C16.8317 18.5063 16.8317 18.5063 16.8263 18.5063ZM16.821 18.5063C16.821 18.5063 16.8263 18.5063 16.821 18.5063C16.821 18.5063 16.821 18.5063 16.8157 18.5063H16.821ZM16.7944 18.501C16.7997 18.501 16.7997 18.501 16.7944 18.501C16.7997 18.501 16.7997 18.501 16.7997 18.501C16.7997 18.501 16.7997 18.501 16.7944 18.501ZM11.9453 22.7274H13.5315V14.9444H11.9453V22.7274ZM16.9168 18.5116C16.9168 18.5116 16.9168 18.5169 16.9168 18.5116C16.9168 18.5169 16.9168 18.5169 16.9168 18.5116ZM16.8955 18.5116C16.9062 18.5116 16.9115 18.5116 16.9168 18.5116C16.9115 18.5116 16.9009 18.5116 16.8955 18.5116ZM16.853 18.5063C16.8583 18.5063 16.8583 18.5063 16.8636 18.5063C16.8636 18.5063 16.8583 18.5063 16.853 18.5063ZM16.7944 18.501V16.1618C17.1191 16.1193 17.4811 16.098 17.7898 16.098C18.9289 16.098 19.3174 16.4436 19.3174 17.3048C19.3174 18.2936 18.7372 18.5435 17.7578 18.5435C17.4491 18.5435 17.1457 18.5382 16.837 18.5063C16.8317 18.5063 16.8317 18.5063 16.8263 18.5063H16.821C16.821 18.5063 16.8157 18.5063 16.8104 18.5063H16.8157H16.8104H16.8051C16.8051 18.5063 16.8051 18.5063 16.8104 18.5063H16.8051C16.8051 18.501 16.7997 18.501 16.7944 18.501C16.7997 18.501 16.7944 18.501 16.7944 18.501ZM15.2189 15.0773V22.7274H16.7944V19.7556C17.0712 19.7715 17.4278 19.7875 17.7472 19.7875L19.344 22.722H21.1645L19.3866 19.6067C20.3022 19.3303 20.8823 18.6817 20.8823 17.3048C20.8823 15.1996 19.4718 14.8594 17.7525 14.8594C16.821 14.8647 15.8949 14.9551 15.2189 15.0773ZM23.746 18.8359C23.746 17.2463 23.778 16.1618 25.2577 16.1618C26.7321 16.1618 26.7694 17.2463 26.7694 18.8359C26.7694 20.4201 26.7321 21.5046 25.2577 21.5046C23.7833 21.5046 23.746 20.4201 23.746 18.8359ZM22.1439 18.8359C22.1439 21.6535 22.8358 22.8071 25.263 22.8071C27.6849 22.8071 28.3769 21.6535 28.3769 18.8359C28.3769 16.0183 27.6849 14.8647 25.263 14.8647C22.8358 14.8647 22.1439 16.0183 22.1439 18.8359ZM29.8566 16.0449V22.722H31.2778V16.9965L33.753 21.7811C34.1522 22.5572 34.5194 22.8071 35.0996 22.8071C35.7064 22.8071 36.0524 22.4456 36.0524 21.6216V14.9444H34.6312V20.6487L32.1561 15.8854C31.7622 15.1358 31.3524 14.8647 30.8147 14.8647C30.2186 14.8647 29.8566 15.2156 29.8566 16.0449Z" fill="white"/>
<path d="M16.4965 25.6291V28.9677H12.3181V25.6291H11.6953V33.024H12.3181V29.5099H16.4965V33.024H17.1193V25.6291H16.4965ZM35.4138 25.6291L31.9913 29.0527V25.6291H31.3685V33.024H31.9913V29.393L35.4777 33.024H36.3081L32.6194 29.2016L36.2069 25.6291H35.4138ZM21.6224 26.384L23.0915 30.3074H20.148L21.6224 26.384ZM21.1806 25.9747L18.4872 33.0186H19.126L19.951 30.823H23.2884L24.1082 33.0186H24.7735L22.1121 25.9747C22.0056 25.6982 21.8619 25.5547 21.6437 25.5547C21.4254 25.5547 21.2871 25.6929 21.1806 25.9747ZM25.4016 29.3239C25.4016 31.9448 25.9765 33.0984 28.3505 33.0984C28.9626 33.0984 29.5055 33.0346 29.9686 32.9442L29.91 32.4445C29.5002 32.503 29.0903 32.5561 28.6751 32.5561C26.3384 32.5561 26.035 31.4982 26.035 29.3292C26.035 27.1655 26.2905 26.0969 28.6751 26.0969C29.0744 26.0969 29.5268 26.1554 29.9047 26.2139L29.9633 25.6982C29.5002 25.6078 28.9413 25.5547 28.3451 25.5547C25.9765 25.5547 25.4016 26.6977 25.4016 29.3239Z" fill="white"/>
</svg>
