<?xml version="1.0" encoding="utf-8"?>
<!-- Generator: Adobe Illustrator 18.0.0, SVG Export Plug-In . SVG Version: 6.00 Build 0)  -->
<!DOCTYPE svg PUBLIC "-//W3C//DTD SVG 1.1//EN" "http://www.w3.org/Graphics/SVG/1.1/DTD/svg11.dtd">
<svg version="1.1" id="Calque_1" xmlns="http://www.w3.org/2000/svg" xmlns:xlink="http://www.w3.org/1999/xlink" x="0px" y="0px"
	 viewBox="0 0 400 595.3">
<g>
	<g>
		<path fill="#ffffff" d="M215.7,331.4c-6.6-13.7-8.4-27.4-6.9-41.4c2.2-20.9,10.8-39,25.3-54.1c13.3-13.8,29.4-22.6,48.2-25.8
			c29-5,54.7,2.4,76.8,21.9c4.9,4.3,8.9,9.4,12.4,14.9c0.8,1.2,0.9,2-0.2,3.1c-17.6,17.5-35.1,35.1-52.6,52.7
			c-1.1,1.1-1.6,1.2-2.7,0c-12-11.7-24.1-23.2-36.1-34.9c-1.1-1.1-1.6-1.1-2.7,0.1c-13,13.4-26.1,26.7-39.2,40
			c-6.9,7-13.8,14-20.6,21.1C216.9,329.6,216.5,330.3,215.7,331.4z"/>
		<path fill="#ffffff" d="M381.4,267.1c4,7.3,6.5,15,7,23c2.4,40-14,70.1-49.1,89.2c-36.3,19.8-85.6,9.2-110.3-22.9
			c-1-1.3-1.7-2.7-2.8-3.8c-1.9-2.1-1.5-3.5,0.5-5.5c17.2-17,34.3-34,51.3-51.2c1.5-1.5,2.3-1.6,3.8,0
			c11.3,11.7,22.7,23.2,34.1,34.8c1.2,1.3,1.8,1.2,3,0c20.6-21,41.2-42,61.8-62.9C380.9,267.6,381.1,267.5,381.4,267.1z"/>
	</g>
</g>
</svg>
