<svg xmlns="http://www.w3.org/2000/svg" viewBox="0 0 180.32 180.72"><defs><style>.cls-1{fill:#fff;}</style></defs><title>Asset 1</title><g id="Layer_2" data-name="Layer 2"><g id="Calque_1" data-name="Calque 1"><path class="cls-1" d="M171.23,120.41c-6.8-7.1-13.7-14.1-20.6-21.1q-19.65-19.95-39.2-40c-1.1-1.2-1.6-1.2-2.7-.1-12,11.7-24.1,23.2-36.1,34.9-1.1,1.2-1.6,1.1-2.7,0q-26.25-26.4-52.6-52.7c-1.1-1.1-1-1.9-.2-3.1a68.28,68.28,0,0,1,12.4-14.9c22.1-19.5,47.8-26.9,76.8-21.9,18.8,3.2,34.9,12,48.2,25.8a90,90,0,0,1,25.3,54.1,74.52,74.52,0,0,1-6.9,41.4C172.13,121.71,171.73,121,171.23,120.41Z"/><path class="cls-1" d="M7.93,59.21q30.9,31.35,61.8,62.9c1.2,1.2,1.8,1.3,3,0,11.4-11.6,22.8-23.1,34.1-34.8,1.5-1.6,2.3-1.5,3.8,0,17,17.2,34.1,34.2,51.3,51.2,2,2,2.4,3.4.5,5.5a37.32,37.32,0,0,0-2.8,3.8c-24.7,32.1-74,42.7-110.3,22.9-35.1-19.1-51.5-49.2-49.1-89.2a54.9,54.9,0,0,1,7-23A4.51,4.51,0,0,0,7.93,59.21Z"/></g></g></svg>