<?xml version="1.0" encoding="utf-8"?>
<!-- Generator: Adobe Illustrator 24.0.0, SVG Export Plug-In . SVG Version: 6.00 Build 0)  -->
<svg version="1.1" id="Layer_1" xmlns="http://www.w3.org/2000/svg" xmlns:xlink="http://www.w3.org/1999/xlink" x="0px" y="0px"
	 viewBox="0 0 502 423" style="enable-background:new 0 0 502 423;" xml:space="preserve">
<style type="text/css">
	.st0{fill:#FFFFFF;}
</style>
<g id="layer101">
	<path class="st0" d="M61,375.3c0-2.2,0.8-3.2,3.7-4.8c5.1-2.8,7.4-7.9,8.5-18.5c0.5-4.9,0.7-48.5,0.6-96.9
		c-0.3-101,0.7-91.1-10.6-96.6c-5.2-2.5-6.2-3.4-6.2-5.6c0-2.8-1.1-2.5,38.5-11.5c8.3-1.9,15.8-3.7,16.8-4c1.5-0.5,1.7,0.5,1.7,11.4
		c0,6.5,0.3,12.2,0.6,12.5c0.4,0.3,1.9-1.1,3.5-3.3c1.6-2.1,5.2-5.7,8.1-7.8c20.2-15.1,45-17.2,68.3-5.7c14.3,7,24.3,17.4,31.5,32.6
		c5.7,12.4,7.3,20.6,7.4,38.9c0.1,9.9-0.4,18.6-1.1,21.8c-3.8,15.9-12.4,30.3-23.7,39.3c-11.2,9.1-28.8,15.7-42.6,16.2
		c-6.3,0.2-6.5,0.1-6.5-2.3c0-2,0.8-2.7,4.4-4.1c17.3-6.4,24-27.9,22.8-73.8c-0.4-16.8-1-23.6-2.6-30.6c-4.7-20.2-13-29.8-28-32.5
		s-28.3,3.1-35.6,15.6C115,175,114,182.5,114,214c0,32.7,1.1,42.2,6.2,53.3c4,8.6,12.1,16.5,19.9,19.3c4.6,1.6,5.4,2.3,5.4,4.4
		c0,2.3-0.3,2.5-4,2.2c-5.9-0.5-15.1-3-20.8-5.8c-2.8-1.3-5.5-2.4-6-2.4c-0.6,0-0.7,14-0.4,35.3c0.3,28.7,0.7,36.1,2,40.2
		c1.6,5,5.1,9.2,9.5,11.4c1.4,0.7,2.2,2.1,2.2,3.6v2.5H94.5H61V375.3z"/>
	<path class="st0" d="M330.5,292.1c-9-2.2-17.7-6.2-23.2-10.7l-4.3-3.5l-4.5,3.1c-7,4.8-17.3,9.3-22.6,9.8l-4.9,0.5V186.4
		c0-68.7-0.4-106.2-1-108.6c-1.2-4.3-7.5-10.1-12.6-11.8c-2.6-0.9-3.4-1.7-3.4-3.5c0-3.2,1.7-4,14-6.4c5.8-1.1,17-3.4,25-5.1
		s15.4-3.2,16.5-3.3c2-0.2,2,0.5,2.5,57.6l0.5,57.8l3.7-4.9c4.9-6.6,16.8-14.4,27.1-17.9c7.1-2.3,9.8-2.7,19.7-2.7
		c9.7,0.1,12.7,0.5,19.5,2.7c10.3,3.5,16.8,7.3,24.6,14.4c10.9,10.1,17.2,21.4,22,39.5c3.3,12.2,3.3,33.7,0,46.3
		c-6.7,26.2-24.4,43.8-50.6,50.5c-4.4,1.1-10.9,2.2-14.5,2.3c-6.2,0.2-6.5,0.1-6.5-2.2c0-1.3,0.7-2.7,1.5-3.1
		c13.1-6.1,16.3-9.5,20.3-21.7c3.9-11.9,5.1-22.6,5-45.8c0-40.3-5.8-58-21.7-66.3c-4.6-2.3-6.2-2.6-15.6-2.7
		c-9.1,0-11.1,0.3-15.4,2.4c-6.9,3.4-13,10.1-16.3,18l-2.8,6.6l-0.3,34.3c-0.3,32-0.2,34.8,1.8,42.5c4.4,17.7,11.5,26.4,26.3,32.1
		c2.9,1.2,3.7,2,3.7,4c0,2.3-0.4,2.6-3.2,2.5C339,293.9,334.4,293.1,330.5,292.1z"/>
</g>
</svg>
