<!DOCTYPE svg PUBLIC "-//W3C//DTD SVG 20010904//EN" "http://www.w3.org/TR/2001/REC-SVG-20010904/DTD/svg10.dtd">
<svg version="1.0" xmlns="http://www.w3.org/2000/svg" width="320px" height="320px" viewBox="0 0 3200 3200" preserveAspectRatio="xMidYMid meet">
<g id="layer101" fill="#7fbba5" stroke="none">
<path d="M1078 2893 c-16 -2 -28 -10 -28 -16 0 -7 52 -64 115 -127 l115 -115 243 -6 c216 -5 249 -8 307 -28 196 -68 345 -202 433 -388 30 -65 51 -153 37 -153 -4 0 -27 17 -51 38 -203 175 -394 247 -654 246 -156 0 -263 -24 -400 -89 -103 -49 -241 -146 -250 -176 -5 -16 7 -35 51 -82 110 -119 107 -118 174 -68 149 111 267 153 430 153 315 -1 572 -186 671 -484 27 -80 32 -108 32 -203 2 -166 -38 -289 -139 -432 -24 -34 -44 -70 -44 -81 0 -20 131 -144 174 -163 l26 -12 0 -153 c0 -84 3 -159 6 -168 9 -24 229 -24 238 0 10 26 6 1509 -4 1639 -16 209 -91 387 -224 540 -67 76 -195 177 -286 224 -179 93 -292 111 -670 109 -151 0 -287 -3 -302 -5z"/>
<path d="M655 2796 c-20 -14 -20 -29 -20 -1201 1 -1025 3 -1188 15 -1196 17 -10 199 -12 224 -3 14 5 16 29 16 160 0 85 3 154 6 154 3 0 31 -23 62 -51 176 -161 400 -249 632 -249 161 1 325 37 449 100 77 39 183 118 179 134 -6 25 -140 166 -158 166 -9 0 -29 -9 -43 -20 -48 -38 -183 -99 -253 -116 -108 -25 -276 -16 -379 20 -178 63 -305 166 -394 320 -96 168 -118 394 -54 576 16 47 46 111 66 141 53 79 50 104 -17 162 -100 86 -99 79 -100 526 l-1 386 -105 3 c-80 2 -110 -1 -125 -12z"/>
</g>
<g id="layer102" fill="#7fbba5" stroke="none">
<path d="M1078 2893 c-16 -2 -28 -10 -28 -16 0 -7 52 -64 115 -127 l115 -115 243 -6 c216 -5 249 -8 307 -28 196 -68 345 -202 433 -388 30 -65 51 -153 37 -153 -4 0 -27 17 -51 38 -203 175 -394 247 -654 246 -156 0 -263 -24 -400 -89 -102 -49 -241 -146 -250 -175 -5 -16 10 -38 65 -98 81 -88 103 -95 160 -53 149 111 267 153 430 153 116 -1 209 -22 315 -73 133 -63 240 -166 311 -299 12 -22 25 -36 29 -32 5 4 5 2 2 -4 -3 -6 5 -46 19 -90 21 -63 26 -101 27 -189 2 -166 -38 -289 -139 -432 -24 -34 -44 -70 -44 -81 0 -24 67 -85 82 -76 6 4 8 3 5 -3 -8 -13 61 -78 92 -88 20 -6 21 -12 21 -160 0 -84 3 -160 6 -169 9 -24 229 -24 238 0 10 26 6 1509 -4 1639 -16 209 -91 387 -224 540 -67 76 -195 177 -286 224 -179 93 -292 111 -670 109 -151 0 -287 -3 -302 -5z m1229 -690 c-4 -3 -7 0 -7 7 0 7 3 10 7 7 3 -4 3 -10 0 -14z"/>
<path d="M655 2796 c-20 -14 -20 -29 -20 -1201 1 -1025 3 -1188 15 -1196 17 -10 199 -12 224 -3 14 5 16 29 16 160 0 85 3 154 6 154 3 0 31 -23 62 -51 176 -161 400 -249 632 -249 161 1 325 37 449 100 77 39 183 118 179 134 -6 25 -140 166 -158 166 -9 0 -29 -9 -43 -20 -48 -38 -183 -99 -253 -116 -108 -25 -276 -16 -379 20 -178 63 -305 166 -394 320 -96 168 -118 394 -54 576 16 47 46 111 67 142 28 43 37 65 34 90 -2 20 -8 32 -15 31 -7 -2 -12 0 -10 5 1 4 -17 25 -40 45 -23 21 -52 59 -64 84 -21 44 -22 55 -23 432 l-1 386 -105 3 c-80 2 -110 -1 -125 -12z"/>
</g>
<g id="layer103" fill="#7fbba5" stroke="none">
<path d="M1105 2890 c3 -5 -3 -10 -13 -10 -11 0 -22 -6 -25 -14 -7 -16 22 -45 41 -40 7 1 8 0 1 -3 -6 -3 0 -16 17 -34 15 -15 32 -25 38 -22 6 3 8 2 3 -2 -9 -11 43 -66 55 -59 5 3 7 0 6 -8 -2 -7 3 -12 10 -10 8 1 11 -2 8 -6 -9 -15 26 -39 64 -45 19 -4 135 -7 258 -8 122 -1 220 -4 218 -7 -6 -6 120 -54 146 -55 9 -1 14 -6 11 -11 -4 -5 1 -7 11 -3 10 4 15 3 11 -3 -7 -11 50 -42 60 -32 3 4 5 2 3 -4 -5 -16 59 -67 73 -58 7 4 9 3 5 -4 -3 -6 11 -25 31 -42 21 -18 31 -29 23 -24 -13 7 -13 5 -2 -9 8 -9 19 -15 25 -14 6 1 11 -5 12 -13 0 -25 25 -61 37 -54 7 4 8 3 4 -4 -8 -14 12 -55 23 -47 10 5 24 -25 16 -33 -3 -3 -5 1 -5 8 0 7 -2 11 -5 8 -3 -3 2 -22 11 -44 29 -67 36 -158 9 -114 -4 7 -14 6 -28 -1 -12 -7 -19 -8 -15 -4 4 5 2 15 -5 23 -10 13 -9 14 3 7 13 -8 13 -7 1 9 -9 11 -17 13 -21 6 -4 -6 -28 13 -58 46 -35 38 -57 54 -67 50 -10 -3 -13 -2 -10 4 4 6 -22 23 -57 39 -79 37 -113 47 -104 32 5 -7 1 -9 -8 -5 -9 3 -13 11 -10 16 4 6 -2 7 -16 3 -14 -5 -20 -3 -16 3 7 12 -94 36 -193 47 -46 5 -62 4 -57 -4 5 -7 -4 -11 -24 -11 -21 0 -29 4 -24 11 5 9 -9 10 -52 5 -92 -11 -164 -27 -164 -36 0 -5 -6 -7 -12 -5 -20 8 -73 -11 -70 -24 2 -9 -5 -10 -19 -6 -16 5 -19 4 -14 -6 6 -9 3 -11 -8 -6 -22 8 -69 -12 -60 -26 3 -6 1 -7 -5 -3 -16 10 -54 -12 -46 -26 4 -7 3 -8 -4 -4 -16 10 -54 -12 -46 -26 4 -7 3 -8 -4 -4 -7 4 -36 -12 -67 -35 -50 -38 -74 -61 -42 -43 9 6 9 4 2 -7 -19 -26 -5 -76 17 -63 6 4 8 3 5 -3 -4 -5 8 -23 26 -39 l32 -29 -25 30 -25 30 27 -24 c15 -13 24 -29 22 -35 -7 -18 34 -51 65 -52 15 -1 39 7 52 18 19 15 20 18 5 14 -16 -6 -17 -4 -6 9 7 9 19 14 27 11 7 -3 13 2 14 12 0 10 3 12 6 5 3 -10 10 -10 24 -2 11 5 16 15 13 21 -4 6 -3 8 3 5 12 -8 89 30 86 42 -1 5 8 7 20 4 18 -4 20 -3 7 7 -13 10 -12 11 3 6 11 -3 47 1 80 10 41 11 97 15 167 14 139 -3 150 -4 150 -14 0 -5 15 -6 33 -2 24 4 28 3 17 -5 -12 -8 -9 -10 13 -6 15 2 25 2 22 -1 -9 -9 96 -53 108 -45 6 4 7 1 2 -7 -6 -10 -4 -12 9 -7 9 4 15 3 12 -2 -6 -10 41 -44 61 -44 7 0 10 -4 8 -8 -8 -11 23 -31 36 -23 7 4 9 3 6 -3 -8 -12 37 -56 47 -46 4 4 4 0 1 -8 -3 -9 2 -22 11 -30 15 -12 17 -12 9 0 -6 10 -4 12 4 7 7 -5 10 -10 7 -13 -11 -12 15 -42 30 -36 13 5 15 2 10 -15 -4 -12 -2 -23 5 -28 8 -5 9 -3 4 6 -6 9 -4 11 4 6 7 -5 10 -14 7 -21 -6 -17 28 -88 37 -78 4 4 7 -2 6 -13 -4 -36 1 -60 9 -47 4 6 7 -6 7 -28 0 -22 6 -44 13 -48 8 -4 10 -15 6 -26 -5 -13 -4 -16 4 -11 8 5 12 0 12 -14 0 -12 -4 -18 -10 -15 -6 4 -8 -6 -5 -25 3 -16 7 -43 10 -60 2 -16 0 -32 -5 -35 -6 -3 -10 -18 -10 -33 0 -15 -9 -58 -19 -96 -11 -38 -17 -76 -13 -84 3 -9 1 -13 -5 -9 -12 7 -38 -47 -38 -78 0 -11 -5 -19 -12 -18 -7 2 -17 -7 -24 -18 -8 -15 -8 -19 0 -15 7 5 9 1 5 -8 -3 -9 -10 -14 -14 -11 -7 4 -30 -17 -45 -44 -5 -9 -4 -12 3 -7 8 5 10 2 6 -8 -3 -9 -10 -13 -15 -10 -5 3 -9 -4 -9 -15 0 -14 5 -19 16 -14 11 4 15 1 12 -13 -2 -12 2 -18 10 -16 8 1 11 -2 7 -7 -5 -10 19 -28 40 -30 6 -1 10 -7 10 -13 1 -7 7 -11 15 -10 8 2 12 0 8 -4 -12 -11 12 -34 28 -27 9 3 14 0 12 -8 -2 -8 4 -13 14 -13 10 1 15 -2 12 -7 -3 -5 0 -9 5 -9 7 0 11 -50 11 -146 0 -102 3 -143 11 -138 7 4 10 -4 7 -22 l-3 -29 113 -1 c92 0 112 2 108 13 -3 8 -1 11 4 8 7 -4 10 255 10 752 0 830 -10 1057 -41 1037 -6 -3 -7 6 -3 22 5 18 3 25 -3 21 -11 -7 -28 22 -18 31 3 3 5 -1 5 -8 0 -7 2 -11 5 -8 8 8 -6 39 -15 33 -5 -3 -8 7 -7 22 1 19 -2 27 -11 25 -9 -2 -12 4 -8 16 7 21 -90 185 -105 176 -5 -3 -8 0 -7 8 2 7 -2 12 -9 11 -7 -2 -10 4 -7 12 4 9 0 15 -9 15 -9 0 -19 5 -23 12 -5 7 -2 8 7 3 8 -4 -4 11 -25 33 -24 25 -43 38 -47 31 -3 -6 -9 -1 -12 11 -4 14 -10 19 -18 14 -7 -4 -10 -3 -6 3 9 14 -19 37 -34 27 -7 -4 -9 -3 -6 3 9 14 -19 37 -34 27 -7 -4 -9 -3 -6 3 9 14 -40 46 -55 37 -6 -4 -8 -3 -4 4 6 10 -23 25 -50 26 -6 1 -18 9 -28 19 -12 11 -25 15 -38 11 -13 -4 -18 -2 -14 4 9 15 -75 39 -194 57 -113 18 -655 22 -645 5z m702 -27 c-4 -3 -10 -3 -14 0 -3 4 0 7 7 7 7 0 10 -3 7 -7z m80 -20 c-4 -3 -10 -3 -14 0 -3 4 0 7 7 7 7 0 10 -3 7 -7z m-612 -173 c3 -5 4 -10 1 -10 -3 0 -8 5 -11 10 -3 6 -4 10 -1 10 3 0 8 -4 11 -10z m1020 -71 c11 -16 1 -19 -13 -3 -7 8 -8 14 -3 14 5 0 13 -5 16 -11z m85 -103 c0 -3 -5 -8 -12 -12 -7 -4 -8 -3 -4 4 7 12 16 16 16 8z m-299 -23 c13 -16 12 -17 -3 -4 -10 7 -18 15 -18 17 0 8 8 3 21 -13z m60 -50 c13 -16 12 -17 -3 -4 -10 7 -18 15 -18 17 0 8 8 3 21 -13z m324 -63 c3 -5 4 -10 1 -10 -3 0 -8 5 -11 10 -3 6 -4 10 -1 10 3 0 8 -4 11 -10z m-978 -37 c-4 -3 -10 -3 -14 0 -3 4 0 7 7 7 7 0 10 -3 7 -7z m-330 -110 c-4 -3 -10 -3 -14 0 -3 4 0 7 7 7 7 0 10 -3 7 -7z m1150 -10 c-4 -3 -7 0 -7 7 0 7 3 10 7 7 3 -4 3 -10 0 -14z m-1197 -7 c0 -3 -5 -8 -12 -12 -7 -4 -8 -3 -4 4 7 12 16 16 16 8z m1005 -6 c3 -5 4 -10 1 -10 -3 0 -8 5 -11 10 -3 6 -4 10 -1 10 3 0 8 -4 11 -10z m182 -27 c-4 -3 -7 0 -7 7 0 7 3 10 7 7 3 -4 3 -10 0 -14z m20 -30 c-4 -3 -7 0 -7 7 0 7 3 10 7 7 3 -4 3 -10 0 -14z m-1288 4 c-2 -1 -15 -11 -29 -22 l-25 -20 19 23 c11 12 24 22 29 22 6 0 8 -1 6 -3z m1288 -44 c-4 -3 -7 0 -7 7 0 7 3 10 7 7 3 -4 3 -10 0 -14z m-1020 -70 c-4 -3 -10 -3 -14 0 -3 4 0 7 7 7 7 0 10 -3 7 -7z m-210 -110 c-4 -3 -7 0 -7 7 0 7 3 10 7 7 3 -4 3 -10 0 -14z m1028 -23 c3 -5 4 -10 1 -10 -3 0 -8 5 -11 10 -3 6 -4 10 -1 10 3 0 8 -4 11 -10z m192 -657 c-4 -3 -7 0 -7 7 0 7 3 10 7 7 3 -4 3 -10 0 -14z"/>
<path d="M671 2793 c-6 -11 -11 -13 -11 -5 0 7 -5 10 -10 7 -6 -4 -10 -12 -9 -18 1 -7 -1 -20 -6 -30 -5 -12 0 -2149 6 -2330 0 -14 5 -16 21 -11 14 4 18 2 14 -5 -8 -12 168 -16 198 -5 14 5 16 29 16 159 0 146 1 154 19 152 11 0 19 -6 18 -12 -1 -5 3 -9 10 -8 6 1 17 -5 25 -14 11 -14 11 -16 -2 -8 -10 5 -9 1 3 -13 11 -11 25 -18 32 -16 7 3 16 0 21 -7 5 -8 3 -10 -7 -5 -8 4 -1 -4 14 -18 16 -15 34 -23 40 -20 7 4 9 4 5 -1 -11 -11 29 -38 44 -29 7 4 8 3 4 -4 -7 -12 49 -46 63 -37 13 7 42 -5 35 -16 -5 -10 45 -33 54 -25 2 3 11 -1 19 -9 9 -10 24 -13 40 -9 17 5 24 3 19 -4 -4 -7 13 -14 46 -21 91 -17 108 -18 102 -10 -3 5 2 9 11 9 9 0 13 -4 10 -10 -4 -6 27 -10 85 -10 50 0 89 4 86 9 -3 5 15 6 41 3 35 -4 44 -2 38 8 -5 9 -2 10 15 5 15 -5 20 -4 16 4 -4 6 0 11 9 11 10 0 13 -5 9 -12 -5 -8 0 -9 17 -5 13 4 28 7 32 7 5 0 5 5 1 12 -5 8 -2 9 11 4 24 -9 87 12 78 27 -4 7 0 8 11 4 22 -8 59 10 50 25 -4 7 1 8 16 3 17 -5 21 -4 15 5 -5 9 -4 11 4 6 10 -7 81 29 81 40 0 3 -4 2 -10 -1 -16 -10 -11 1 7 16 14 12 16 12 9 0 -6 -9 -5 -12 5 -9 8 3 12 12 11 19 -2 8 0 11 3 7 13 -12 45 11 39 27 -5 11 -2 13 10 9 11 -4 16 -1 16 10 0 10 -5 13 -17 9 -12 -5 -15 -2 -10 10 3 9 -1 21 -11 29 -16 12 -16 11 -2 -7 12 -17 12 -18 0 -7 -8 7 -16 17 -16 22 -1 6 -2 15 -3 21 0 6 -7 9 -15 6 -7 -3 -20 3 -29 14 -9 10 -13 19 -7 19 5 0 14 -8 19 -18 6 -9 11 -12 11 -6 0 16 -35 45 -44 37 -4 -5 -6 -2 -4 5 1 8 -5 19 -14 25 -22 14 -68 -6 -75 -33 -3 -13 -13 -19 -27 -17 -11 1 -20 -3 -19 -9 1 -6 -9 -16 -23 -23 -14 -6 -23 -7 -20 -2 3 5 -3 7 -14 4 -11 -3 -17 -10 -13 -16 3 -5 1 -7 -5 -4 -15 10 -43 -3 -35 -16 4 -6 0 -8 -9 -5 -8 4 -41 0 -74 -7 -74 -17 -285 -25 -277 -12 4 6 -7 8 -28 4 -24 -5 -30 -4 -19 3 12 8 10 10 -10 11 -14 1 -31 2 -37 2 -7 -1 -13 3 -13 7 0 11 -60 31 -71 24 -5 -3 -9 -1 -9 4 0 6 -9 8 -20 5 -15 -4 -19 -2 -14 10 5 13 -1 16 -30 13 -26 -2 -33 1 -26 9 12 15 3 25 -16 18 -10 -4 -12 0 -8 11 3 9 2 16 -2 17 -43 4 -75 23 -71 42 1 7 -4 11 -11 9 -6 -1 -11 4 -10 10 2 7 -2 12 -9 11 -7 -2 -10 3 -7 10 2 7 -6 22 -18 32 -13 11 -17 13 -10 5 6 -8 12 -18 12 -24 0 -5 -6 -1 -14 9 -8 11 -11 26 -8 34 4 10 1 13 -11 8 -9 -3 -19 -2 -22 3 -4 6 0 10 7 10 9 0 9 3 -2 10 -8 5 -12 10 -7 10 12 0 -22 60 -34 60 -6 0 -7 4 -4 10 3 6 1 10 -5 10 -6 0 -9 4 -6 9 8 13 -35 122 -45 115 -5 -3 -9 2 -9 11 0 10 5 13 12 9 8 -5 9 -2 4 12 -8 19 -11 54 -20 192 -3 51 -2 70 6 66 7 -5 9 2 6 20 -3 14 -1 26 5 26 5 0 7 11 5 25 -3 15 -1 22 5 18 6 -4 8 2 5 15 -4 12 -3 20 1 18 11 -7 33 62 25 75 -4 7 -3 9 3 6 12 -8 55 67 45 78 -4 5 -2 5 5 1 7 -4 17 2 23 14 15 28 9 86 -8 82 -8 -1 -11 2 -7 7 7 12 -29 33 -40 23 -5 -4 -5 -2 -2 4 8 14 -26 47 -37 37 -4 -5 -7 -3 -6 2 5 21 -1 33 -27 60 -16 16 -22 25 -15 21 10 -6 11 -1 6 20 -4 15 -7 197 -8 403 l-1 376 -102 3 c-89 2 -103 0 -112 -15z m236 -1210 c-4 -3 -7 0 -7 7 0 7 3 10 7 7 3 -4 3 -10 0 -14z m30 -495 c-3 -8 -6 -5 -6 6 -1 11 2 17 5 13 3 -3 4 -12 1 -19z m400 -395 c-4 -3 -10 -3 -14 0 -3 4 0 7 7 7 7 0 10 -3 7 -7z m460 -30 c-4 -3 -10 -3 -14 0 -3 4 0 7 7 7 7 0 10 -3 7 -7z m-200 -20 c-4 -3 -10 -3 -14 0 -3 4 0 7 7 7 7 0 10 -3 7 -7z m-200 -200 c-4 -3 -10 -3 -14 0 -3 4 0 7 7 7 7 0 10 -3 7 -7z m200 -20 c-4 -3 -10 -3 -14 0 -3 4 0 7 7 7 7 0 10 -3 7 -7z"/>
<path d="M2175 2150 c10 -11 20 -20 23 -20 3 0 -3 9 -13 20 -10 11 -20 20 -23 20 -3 0 3 -9 13 -20z"/>
<path d="M2210 1030 c0 -7 3 -10 7 -7 3 4 3 10 0 14 -4 3 -7 0 -7 -7z"/>
</g>
<g id="layer104" fill="#7fbba5" stroke="none">
<path d="M1105 2890 c3 -5 -3 -10 -13 -10 -11 0 -22 -6 -25 -14 -7 -16 22 -45 41 -40 7 1 8 0 1 -3 -6 -3 0 -16 17 -34 15 -15 32 -25 38 -22 6 3 8 2 3 -2 -9 -11 43 -66 55 -59 5 3 7 0 6 -8 -2 -7 3 -12 10 -10 8 1 11 -2 8 -6 -9 -15 26 -39 64 -45 19 -4 135 -7 257 -8 123 -1 220 -5 217 -10 -3 -5 2 -9 11 -9 8 0 43 -11 77 -25 48 -20 64 -22 71 -13 6 9 7 7 3 -6 -5 -14 -2 -17 9 -12 9 3 13 2 10 -4 -7 -11 50 -42 60 -32 3 4 5 2 3 -4 -5 -16 59 -67 73 -58 7 4 9 3 5 -4 -3 -6 11 -25 31 -42 21 -18 31 -29 23 -25 -10 6 -8 1 4 -13 21 -24 32 -29 20 -10 -4 7 -3 8 5 4 6 -4 9 -11 6 -16 -8 -13 25 -61 36 -54 5 3 6 -1 4 -8 -3 -8 2 -22 11 -33 16 -20 16 -20 9 0 -4 13 -3 16 3 10 5 -5 13 -21 17 -35 5 -19 4 -21 -4 -10 -16 22 -13 8 6 -36 28 -67 35 -158 8 -114 -4 7 -14 6 -28 -1 -12 -7 -19 -8 -15 -4 4 5 2 15 -5 23 -10 13 -9 14 3 7 13 -8 13 -7 0 9 -9 12 -16 14 -18 7 -3 -9 -7 -9 -18 0 -8 6 -12 15 -9 19 2 4 -5 16 -18 26 l-22 19 19 -25 c11 -14 1 -5 -22 19 -27 28 -47 41 -57 37 -10 -3 -13 -2 -10 4 4 6 -22 23 -57 39 -79 37 -113 47 -104 32 5 -7 1 -9 -8 -5 -9 3 -13 11 -10 16 4 6 -2 7 -16 3 -14 -5 -20 -3 -16 3 7 12 -94 36 -193 47 -46 5 -62 4 -57 -4 5 -7 -4 -11 -24 -11 -21 0 -29 4 -24 11 5 9 -9 10 -52 5 -85 -10 -164 -26 -164 -34 0 -4 -13 -7 -29 -8 -16 -1 -37 -4 -47 -8 -18 -7 -18 -8 -1 -21 16 -11 16 -13 2 -19 -9 -3 -13 -2 -10 4 3 6 4 10 1 10 -2 0 -12 3 -22 7 -13 5 -15 3 -9 -7 6 -10 4 -12 -8 -7 -22 8 -69 -12 -60 -26 3 -6 1 -7 -5 -3 -16 10 -54 -12 -46 -26 4 -7 3 -8 -4 -4 -16 10 -54 -12 -46 -26 4 -7 3 -8 -4 -4 -7 4 -36 -12 -67 -35 -50 -38 -74 -61 -42 -43 9 6 9 4 2 -7 -19 -26 -5 -76 17 -63 6 4 8 3 5 -3 -4 -5 8 -23 26 -39 l32 -29 -25 30 -25 30 27 -24 c15 -13 24 -29 22 -35 -7 -18 34 -51 65 -52 15 -1 39 7 52 18 19 15 20 18 5 14 -16 -6 -17 -4 -6 9 7 9 19 14 27 11 7 -3 13 2 14 12 0 10 3 12 6 5 3 -10 10 -10 24 -2 11 5 16 15 13 21 -4 6 -3 8 3 5 13 -8 89 31 85 44 -1 6 2 8 7 5 5 -4 44 3 87 15 59 16 101 21 183 19 140 -3 151 -4 151 -14 0 -5 15 -6 33 -2 24 4 28 3 17 -5 -12 -8 -9 -10 13 -6 15 2 25 2 22 -1 -9 -9 96 -53 108 -45 6 4 7 1 2 -7 -6 -10 -4 -12 9 -7 9 4 15 3 12 -2 -6 -10 41 -44 61 -44 7 0 10 -4 8 -8 -7 -10 22 -32 33 -25 5 3 18 -4 28 -17 l19 -22 -25 20 -25 20 24 -27 c13 -15 28 -25 32 -22 5 3 6 -1 3 -9 -3 -8 3 -20 12 -28 15 -12 17 -12 9 0 -6 10 -4 12 4 7 7 -5 10 -10 7 -13 -11 -12 15 -42 30 -36 13 5 15 2 10 -15 -4 -12 -2 -23 5 -28 8 -5 9 -3 4 6 -6 9 -4 11 4 6 7 -5 10 -14 7 -21 -6 -17 28 -88 37 -78 4 4 7 -2 6 -13 -4 -36 1 -60 9 -47 4 6 7 -6 7 -28 0 -22 6 -44 13 -48 8 -4 10 -15 6 -26 -5 -13 -4 -16 4 -11 8 5 12 0 12 -14 0 -12 -4 -18 -10 -15 -6 4 -8 -6 -5 -25 3 -16 7 -43 10 -60 2 -16 0 -32 -5 -35 -6 -3 -10 -18 -10 -33 0 -15 -8 -58 -19 -95 -10 -38 -16 -78 -13 -89 3 -14 1 -19 -6 -14 -14 8 -44 -47 -36 -67 3 -8 1 -18 -5 -22 -7 -4 -9 1 -5 12 5 15 4 16 -5 3 -23 -30 -34 -53 -22 -46 7 5 9 1 5 -8 -3 -9 -10 -14 -14 -11 -7 4 -30 -17 -45 -44 -5 -9 -4 -12 3 -7 8 5 10 2 6 -8 -3 -9 -10 -13 -15 -10 -5 3 -9 -4 -9 -15 0 -14 5 -19 16 -14 11 4 15 1 12 -13 -2 -12 2 -18 10 -16 8 1 11 -2 7 -7 -5 -9 20 -29 38 -29 5 0 12 -4 15 -8 4 -4 0 -3 -8 1 -13 8 -13 6 -1 -8 7 -9 18 -14 25 -10 6 3 8 3 4 -2 -11 -12 11 -35 28 -28 9 3 14 0 12 -8 -2 -8 4 -13 14 -13 10 1 15 -2 12 -7 -3 -5 0 -9 5 -9 7 0 11 -50 11 -146 0 -102 3 -143 11 -138 7 4 10 -4 7 -22 l-3 -29 113 -1 c92 0 112 2 108 13 -3 8 -1 11 4 8 7 -4 10 255 10 752 0 830 -10 1057 -41 1037 -6 -3 -7 6 -3 22 5 18 3 25 -3 21 -11 -7 -28 22 -18 31 3 3 5 -1 5 -8 0 -7 2 -11 5 -8 8 8 -6 39 -15 33 -5 -3 -8 7 -7 22 1 19 -2 27 -11 25 -9 -2 -12 4 -8 16 7 21 -90 185 -105 176 -5 -3 -8 0 -7 8 2 7 -2 12 -9 11 -7 -2 -10 4 -7 12 4 9 0 15 -9 15 -9 0 -19 5 -23 12 -5 7 -2 8 7 3 8 -4 -4 11 -25 33 -24 25 -43 38 -47 31 -3 -6 -9 -1 -12 11 -4 14 -10 19 -18 14 -7 -4 -10 -3 -6 3 9 14 -19 37 -34 27 -7 -4 -9 -3 -6 3 9 14 -19 37 -34 27 -7 -4 -9 -3 -6 3 9 14 -40 46 -55 37 -6 -4 -8 -3 -4 4 6 10 -23 25 -50 26 -6 1 -18 9 -28 19 -12 11 -25 15 -38 11 -13 -4 -18 -2 -14 4 9 15 -75 39 -194 57 -113 18 -655 22 -645 5z m702 -26 c-3 -3 -12 -4 -19 -1 -8 3 -5 6 6 6 11 1 17 -2 13 -5z m80 -21 c-4 -3 -10 -3 -14 0 -3 4 0 7 7 7 7 0 10 -3 7 -7z m-100 -9 c-3 -3 -12 -4 -19 -1 -8 3 -5 6 6 6 11 1 17 -2 13 -5z m16 -21 c-7 -2 -21 -2 -30 0 -10 3 -4 5 12 5 17 0 24 -2 18 -5z m134 -30 c-4 -3 -7 0 -7 7 0 7 3 10 7 7 3 -4 3 -10 0 -14z m-662 -113 c3 -5 4 -10 1 -10 -3 0 -8 5 -11 10 -3 6 -4 10 -1 10 3 0 8 -4 11 -10z m912 -27 c-4 -3 -10 -3 -14 0 -3 4 0 7 7 7 7 0 10 -3 7 -7z m-282 -23 c-3 -5 -12 -10 -18 -10 -7 0 -6 4 3 10 19 12 23 12 15 0z m353 -35 c-3 -3 -9 2 -12 12 -6 14 -5 15 5 6 7 -7 10 -15 7 -18z m37 14 c11 -16 1 -19 -13 -3 -7 8 -8 14 -3 14 5 0 13 -5 16 -11z m-290 -59 c3 -6 -1 -7 -9 -4 -18 7 -21 14 -7 14 6 0 13 -4 16 -10z m329 -46 c3 -8 2 -12 -4 -9 -6 3 -10 10 -10 16 0 14 7 11 14 -7z m46 2 c0 -3 -5 -8 -12 -12 -7 -4 -8 -3 -4 4 7 12 16 16 16 8z m-299 -23 c13 -16 12 -17 -3 -4 -10 7 -18 15 -18 17 0 8 8 3 21 -13z m74 -3 c3 -5 4 -10 1 -10 -3 0 -8 5 -11 10 -3 6 -4 10 -1 10 3 0 8 -4 11 -10z m-14 -47 c13 -16 12 -17 -3 -4 -10 7 -18 15 -18 17 0 8 8 3 21 -13z m67 -48 c-3 -3 -9 2 -12 12 -6 14 -5 15 5 6 7 -7 10 -15 7 -18z m209 -17 c-3 -8 -6 -5 -6 6 -1 11 2 17 5 13 3 -3 4 -12 1 -19z m48 2 c3 -5 4 -10 1 -10 -3 0 -8 5 -11 10 -3 6 -4 10 -1 10 3 0 8 -4 11 -10z m-978 -37 c-4 -3 -10 -3 -14 0 -3 4 0 7 7 7 7 0 10 -3 7 -7z m370 -70 c-4 -3 -10 -3 -14 0 -3 4 0 7 7 7 7 0 10 -3 7 -7z m60 -10 c-4 -3 -10 -3 -14 0 -3 4 0 7 7 7 7 0 10 -3 7 -7z m394 -7 c12 7 11 -7 -1 -26 -6 -9 -10 -10 -10 -3 0 6 -2 17 -3 25 -2 7 -2 10 0 5 3 -4 9 -5 14 -1z m-1154 -23 c-4 -3 -10 -3 -14 0 -3 4 0 7 7 7 7 0 10 -3 7 -7z m-47 -17 c0 -3 -5 -8 -12 -12 -7 -4 -8 -3 -4 4 7 12 16 16 16 8z m87 -13 c-4 -3 -7 0 -7 7 0 7 3 10 7 7 3 -4 3 -10 0 -14z m918 7 c3 -5 4 -10 1 -10 -3 0 -8 5 -11 10 -3 6 -4 10 -1 10 3 0 8 -4 11 -10z m-985 -14 c0 -3 -5 -8 -12 -12 -7 -4 -8 -3 -4 4 7 12 16 16 16 8z m1167 -13 c-4 -3 -7 0 -7 7 0 7 3 10 7 7 3 -4 3 -10 0 -14z m20 -30 c-4 -3 -7 0 -7 7 0 7 3 10 7 7 3 -4 3 -10 0 -14z m-1288 4 c-2 -1 -15 -11 -29 -22 l-25 -20 19 23 c11 12 24 22 29 22 6 0 8 -1 6 -3z m1158 -34 c-4 -3 -10 -3 -14 0 -3 4 0 7 7 7 7 0 10 -3 7 -7z m130 -10 c-4 -3 -7 0 -7 7 0 7 3 10 7 7 3 -4 3 -10 0 -14z m180 -15 c-3 -8 -6 -5 -6 6 -1 11 2 17 5 13 3 -3 4 -12 1 -19z m-567 -5 c0 -1 -10 -7 -21 -14 -17 -8 -20 -8 -14 1 5 9 1 10 -16 5 -17 -4 -20 -3 -10 3 11 8 61 12 61 5z m-613 -10 c-4 -3 -10 -3 -14 0 -3 4 0 7 7 7 7 0 10 -3 7 -7z m-30 -20 c-4 -3 -7 0 -7 7 0 7 3 10 7 7 3 -4 3 -10 0 -14z m80 10 c-4 -3 -10 -3 -14 0 -3 4 0 7 7 7 7 0 10 -3 7 -7z m619 -18 c25 -19 14 -19 -22 0 -16 8 -22 15 -13 15 8 0 24 -7 35 -15z m-689 -12 c-4 -3 -10 -3 -14 0 -3 4 0 7 7 7 7 0 10 -3 7 -7z m640 0 c-4 -3 -10 -3 -14 0 -3 4 0 7 7 7 7 0 10 -3 7 -7z m320 -20 c-4 -3 -7 0 -7 7 0 7 3 10 7 7 3 -4 3 -10 0 -14z m-1212 -3 c3 -5 4 -10 1 -10 -3 0 -8 5 -11 10 -3 6 -4 10 -1 10 3 0 8 -4 11 -10z m1015 -4 c0 -2 -7 -6 -15 -10 -8 -3 -15 -1 -15 4 0 6 7 10 15 10 8 0 15 -2 15 -4z m12 -28 c-6 -6 -15 -8 -19 -4 -4 4 -1 11 7 16 19 12 27 3 12 -12z m-965 -35 c-4 -3 -7 0 -7 7 0 7 3 10 7 7 3 -4 3 -10 0 -14z m-20 -20 c-4 -3 -7 0 -7 7 0 7 3 10 7 7 3 -4 3 -10 0 -14z m1069 -4 c3 -6 1 -16 -5 -22 -9 -9 -10 -7 -5 7 6 16 4 18 -10 13 -10 -4 -15 -3 -11 3 8 13 22 13 31 -1z m81 -136 c-4 -3 -7 0 -7 7 0 7 3 10 7 7 3 -4 3 -10 0 -14z m77 -69 c9 -24 7 -36 -5 -28 -8 4 -9 -1 -4 -17 5 -16 4 -21 -3 -14 -10 10 -16 36 -13 63 1 17 18 15 25 -4z m-7 -471 c-4 -3 -7 0 -7 7 0 7 3 10 7 7 3 -4 3 -10 0 -14z m10 -110 c-4 -3 -7 0 -7 7 0 7 3 10 7 7 3 -4 3 -10 0 -14z m-81 -143 c0 -12 -4 -16 -9 -11 -5 5 -6 14 -3 20 10 15 12 14 12 -9z m-39 -107 c-4 -3 -10 -3 -14 0 -3 4 0 7 7 7 7 0 10 -3 7 -7z m190 -230 c-4 -3 -7 0 -7 7 0 7 3 10 7 7 3 -4 3 -10 0 -14z"/>
<path d="M671 2793 c-6 -11 -11 -13 -11 -5 0 7 -5 10 -10 7 -6 -4 -10 -12 -9 -18 1 -7 -1 -20 -6 -30 -5 -12 0 -2149 6 -2330 0 -14 5 -16 21 -11 14 4 18 2 14 -5 -8 -12 168 -16 198 -5 14 5 16 29 16 159 0 146 1 154 19 152 11 0 19 -6 18 -12 -1 -5 3 -9 8 -8 6 1 22 -7 35 -18 l25 -20 -25 12 c-25 12 -25 12 -7 -9 11 -11 25 -18 32 -16 7 3 16 0 21 -7 5 -8 3 -10 -6 -4 -9 5 -11 4 -6 -3 14 -23 96 -73 108 -66 7 4 8 3 4 -4 -7 -12 49 -46 63 -37 13 7 42 -5 35 -16 -5 -10 45 -33 54 -25 2 3 11 -1 19 -9 9 -10 24 -13 40 -9 17 5 24 3 19 -4 -4 -7 13 -14 46 -21 91 -17 108 -18 102 -10 -3 5 2 9 11 9 9 0 13 -4 10 -10 -4 -6 27 -10 85 -10 50 0 89 4 86 9 -3 5 15 6 41 3 35 -4 44 -2 38 8 -5 9 -2 10 15 5 15 -5 20 -4 16 4 -4 6 0 11 9 11 10 0 13 -5 9 -12 -5 -8 0 -9 17 -5 13 4 28 7 32 7 5 0 5 5 1 12 -5 8 -2 9 11 4 24 -9 87 12 78 27 -4 7 0 8 11 4 22 -8 59 10 50 25 -4 7 1 8 16 3 17 -5 21 -4 15 5 -5 9 -4 11 4 6 16 -10 113 53 104 68 -3 6 -3 8 2 4 13 -12 45 11 39 27 -5 11 -2 13 10 9 11 -4 16 -1 16 10 0 10 -5 13 -17 9 -12 -5 -15 -2 -10 10 3 9 -1 21 -11 29 -16 12 -16 11 -2 -7 12 -17 12 -18 0 -7 -8 7 -16 17 -16 22 -1 6 -2 15 -3 21 0 6 -7 9 -15 6 -7 -3 -20 3 -29 14 -9 10 -13 19 -7 19 5 0 14 -8 19 -18 6 -9 11 -12 11 -6 0 16 -35 45 -44 37 -4 -5 -6 -2 -4 5 1 8 -5 19 -14 25 -22 14 -68 -6 -75 -33 -3 -13 -13 -19 -27 -17 -11 1 -20 -3 -19 -9 1 -6 -9 -16 -23 -23 -14 -6 -23 -7 -20 -2 3 5 -3 7 -14 4 -11 -3 -17 -10 -13 -16 3 -5 1 -7 -5 -4 -15 10 -43 -3 -35 -16 4 -6 0 -8 -9 -5 -8 4 -41 0 -74 -7 -74 -17 -285 -25 -277 -12 4 6 -7 8 -28 4 -24 -5 -30 -4 -19 3 12 8 10 10 -10 11 -14 1 -31 2 -37 2 -7 -1 -13 3 -13 7 0 11 -60 31 -71 24 -5 -3 -9 -1 -9 4 0 6 -9 8 -20 5 -15 -4 -19 -2 -14 10 5 13 -1 16 -30 13 -26 -2 -33 1 -26 9 12 15 3 25 -16 18 -10 -4 -12 0 -8 11 3 9 2 16 -2 17 -43 4 -75 23 -71 42 1 7 -4 11 -11 9 -6 -1 -11 4 -10 10 2 7 -2 12 -9 11 -7 -2 -10 3 -7 10 2 7 -6 22 -18 33 -15 12 -18 13 -10 3 10 -13 10 -22 1 -43 -13 -28 -39 -35 -39 -11 0 8 8 15 18 15 15 0 15 2 2 11 -13 9 -12 10 3 5 18 -6 24 9 7 19 -5 3 -6 13 -3 22 5 12 2 15 -10 10 -9 -3 -19 -2 -22 3 -4 6 0 10 7 10 9 0 9 3 -2 10 -8 5 -12 10 -7 10 12 0 -22 60 -34 60 -6 0 -7 4 -4 10 3 6 1 10 -5 10 -6 0 -9 4 -6 9 4 5 -4 35 -16 66 -14 38 -24 52 -29 43 -6 -9 -9 -6 -9 10 0 15 4 21 12 16 8 -5 9 -2 4 12 -8 19 -11 54 -20 192 -3 51 -2 70 6 66 7 -5 9 2 6 20 -3 14 -1 26 5 26 5 0 7 11 5 25 -3 15 -1 22 5 18 6 -4 8 2 5 15 -4 12 -3 20 1 18 11 -7 33 62 25 75 -4 7 -3 9 3 6 12 -8 55 67 45 78 -4 5 -2 5 5 1 7 -4 17 2 23 14 15 28 9 86 -8 82 -8 -1 -11 2 -7 7 7 12 -29 33 -40 23 -5 -4 -5 -2 -2 4 8 14 -26 47 -37 37 -4 -5 -7 -3 -6 2 5 21 -1 33 -27 60 -16 16 -22 25 -15 21 10 -6 11 -1 6 20 -4 15 -7 197 -8 403 l-1 376 -102 3 c-89 2 -103 0 -112 -15z m166 -475 c-1 -46 -3 -9 -3 82 0 91 2 128 3 83 2 -46 2 -120 0 -165z m63 -388 c0 -5 -2 -10 -4 -10 -3 0 -8 5 -11 10 -3 6 -1 10 4 10 6 0 11 -4 11 -10z m73 -185 c-3 -9 -8 -14 -10 -11 -3 3 -2 9 2 15 9 16 15 13 8 -4z m-76 -122 c-4 -3 -7 0 -7 7 0 7 3 10 7 7 3 -4 3 -10 0 -14z m10 -40 c-4 -3 -7 0 -7 7 0 7 3 10 7 7 3 -4 3 -10 0 -14z m-20 -20 c-4 -3 -7 0 -7 7 0 7 3 10 7 7 3 -4 3 -10 0 -14z m10 -440 c-4 -3 -7 0 -7 7 0 7 3 10 7 7 3 -4 3 -10 0 -14z m40 -35 c-3 -8 -6 -5 -6 6 -1 11 2 17 5 13 3 -3 4 -12 1 -19z m40 -120 c1 -38 0 -40 -7 -15 -7 23 -5 57 4 57 1 0 2 -19 3 -42z m173 -208 c0 -5 -2 -10 -4 -10 -3 0 -8 5 -11 10 -3 6 -1 10 4 10 6 0 11 -4 11 -10z m950 -24 c0 -3 -5 -8 -12 -12 -7 -4 -8 -3 -4 4 7 12 16 16 16 8z m-763 -43 c-4 -3 -10 -3 -14 0 -3 4 0 7 7 7 7 0 10 -3 7 -7z m560 -20 c-4 -3 -10 -3 -14 0 -3 4 0 7 7 7 7 0 10 -3 7 -7z m-100 -10 c-4 -3 -10 -3 -14 0 -3 4 0 7 7 7 7 0 10 -3 7 -7z m48 -13 c3 -6 -1 -7 -9 -4 -18 7 -21 14 -7 14 6 0 13 -4 16 -10z m32 3 c-4 -3 -10 -3 -14 0 -3 4 0 7 7 7 7 0 10 -3 7 -7z m-280 -10 c-4 -3 -10 -3 -14 0 -3 4 0 7 7 7 7 0 10 -3 7 -7z m200 1 c-3 -3 -12 -4 -19 -1 -8 3 -5 6 6 6 11 1 17 -2 13 -5z m-752 -14 c3 -5 4 -10 1 -10 -3 0 -8 5 -11 10 -3 6 -4 10 -1 10 3 0 8 -4 11 -10z m1084 7 c-2 -1 -15 -11 -29 -22 l-25 -20 19 23 c11 12 24 22 29 22 6 0 8 -1 6 -3z m-1052 -34 c-4 -3 -7 0 -7 7 0 7 3 10 7 7 3 -4 3 -10 0 -14z m30 -10 c-4 -3 -10 -3 -14 0 -3 4 0 7 7 7 7 0 10 -3 7 -7z m1033 -7 c0 -2 -8 -10 -17 -17 -16 -13 -17 -12 -4 4 13 16 21 21 21 13z m-125 -44 c-3 -3 -11 0 -18 7 -9 10 -8 11 6 5 10 -3 15 -9 12 -12z m-818 1 c-4 -3 -10 -3 -14 0 -3 4 0 7 7 7 7 0 10 -3 7 -7z m783 -3 c8 -5 11 -10 5 -10 -5 0 -17 5 -25 10 -8 5 -10 10 -5 10 6 0 17 -5 25 -10z m-23 -27 c-4 -3 -10 -3 -14 0 -3 4 0 7 7 7 7 0 10 -3 7 -7z m40 -10 c-4 -3 -10 -3 -14 0 -3 4 0 7 7 7 7 0 10 -3 7 -7z m-590 -30 c-4 -3 -10 -3 -14 0 -3 4 0 7 7 7 7 0 10 -3 7 -7z m370 -9 c-3 -3 -12 -4 -19 -1 -8 3 -5 6 6 6 11 1 17 -2 13 -5z m60 -1 c-4 -3 -10 -3 -14 0 -3 4 0 7 7 7 7 0 10 -3 7 -7z m-440 -20 c-4 -3 -10 -3 -14 0 -3 4 0 7 7 7 7 0 10 -3 7 -7z m200 -20 c-4 -3 -10 -3 -14 0 -3 4 0 7 7 7 7 0 10 -3 7 -7z"/>
<path d="M1120 835 c0 -2 10 -10 23 -16 20 -11 21 -11 8 4 -13 16 -31 23 -31 12z"/>
</g>


</svg>