<svg width="83" height="82" viewBox="0 0 83 82" fill="none" xmlns="http://www.w3.org/2000/svg">
<g clip-path="url(#clip0)">
<path d="M70.4912 12.0086C62.7475 4.26465 52.4516 0 41.5 0C30.5486 0 20.2525 4.26465 12.5086 12.0086C4.76465 19.7525 0.5 30.0486 0.5 41C0.5 51.9514 4.76465 62.2475 12.5086 69.9914C20.2525 77.7354 30.5486 82 41.5 82C52.4516 82 62.7475 77.7354 70.4912 69.9914C78.2354 62.2475 82.5 51.9514 82.5 41C82.5 30.0486 78.2354 19.7525 70.4912 12.0086ZM41.5 78.7331C20.6939 78.7331 3.76693 61.8061 3.76693 41C3.76693 20.1939 20.6939 3.26693 41.5 3.26693C62.3061 3.26693 79.2331 20.1939 79.2331 41C79.2331 61.8061 62.3061 78.7331 41.5 78.7331Z" fill="white"/>
<path d="M41.5001 6.75603C29.8811 6.75603 20.4283 16.2087 20.4283 27.8277C20.4283 30.9802 22.993 33.5449 26.1455 33.5449C29.2979 33.5449 31.8626 30.9802 31.8626 27.8277C31.8626 22.5136 36.1859 18.1903 41.5001 18.1903C46.814 18.1903 51.1375 22.5136 51.1375 27.8277C51.1375 33.187 46.814 37.5469 41.5001 37.5469C38.3476 37.5469 35.7829 40.1116 35.7829 43.264V54.4991C35.7829 57.6516 38.3476 60.2163 41.5001 60.2163C44.6525 60.2163 47.2172 57.6514 47.2172 54.4993V48.1879C51.3458 47.0149 55.0709 44.5678 57.8136 41.2027C60.8819 37.4382 62.5718 32.6883 62.5718 27.8277C62.5718 16.2087 53.1191 6.75603 41.5001 6.75603ZM45.2396 45.316C44.4873 45.478 43.9503 46.1432 43.9503 46.9127V54.499C43.9503 55.85 42.8511 56.9492 41.5001 56.9492C40.149 56.9492 39.0499 55.85 39.0499 54.499V43.2638C39.0499 41.9128 40.149 40.8136 41.5001 40.8136C48.6156 40.8136 54.4044 34.988 54.4044 27.8276C54.4044 20.712 48.6156 14.9232 41.5001 14.9232C34.3845 14.9232 28.5957 20.7122 28.5957 27.8276C28.5957 29.1786 27.4965 30.2778 26.1455 30.2778C24.7944 30.2778 23.6953 29.1786 23.6953 27.8276C23.6953 18.01 31.6824 10.0228 41.5001 10.0228C51.3177 10.0228 59.3048 18.01 59.3048 27.8276C59.3048 36.2043 53.3896 43.5592 45.2396 45.316Z" fill="white"/>
<path d="M41.5 63.1565C38.3475 63.1565 35.7828 65.7212 35.7828 68.8736V69.527C35.7828 72.6794 38.3475 75.2441 41.5 75.2441C44.6524 75.2441 47.2171 72.6793 47.2171 69.527V68.8736C47.2171 65.7212 44.6524 63.1565 41.5 63.1565ZM43.9502 69.527C43.9502 70.878 42.851 71.9772 41.5 71.9772C40.1489 71.9772 39.0498 70.878 39.0498 69.527V68.8736C39.0498 67.5226 40.1489 66.4234 41.5 66.4234C42.851 66.4234 43.9502 67.5226 43.9502 68.8736V69.527Z" fill="white"/>
<path d="M10.1501 47.5293C9.70821 45.3958 9.4841 43.199 9.4841 41C9.4841 40.0978 8.75279 39.3665 7.85063 39.3665C6.94847 39.3665 6.21716 40.0978 6.21716 41C6.21716 43.4211 6.46414 45.8409 6.95092 48.1918C7.11083 48.9635 7.79052 49.4943 8.54877 49.4943C8.65854 49.4943 8.77011 49.4832 8.88184 49.46C9.76521 49.2771 10.333 48.4127 10.1501 47.5293Z" fill="white"/>
<path d="M28.756 70.3793C21.5689 67.2573 15.7851 61.6251 12.4701 54.5204C12.0887 53.7028 11.1165 53.3493 10.2993 53.7307C9.48172 54.1122 9.12824 55.0841 9.50965 55.9016C13.1621 63.73 19.5351 69.9357 27.4543 73.3758C27.6661 73.4679 27.887 73.5115 28.1042 73.5115C28.7351 73.5115 29.3358 73.144 29.6034 72.5283C29.9628 71.7008 29.5833 70.7387 28.756 70.3793Z" fill="white"/>
</g>
<defs>
<clipPath id="clip0">
<rect x="0.5" width="82" height="82" fill="white"/>
</clipPath>
</defs>
</svg>
