<?xml version="1.0" encoding="utf-8"?>
<!-- Generator: Adobe Illustrator 24.0.0, SVG Export Plug-In . SVG Version: 6.00 Build 0)  -->
<svg version="1.1" id="Layer_1" xmlns="http://www.w3.org/2000/svg" xmlns:xlink="http://www.w3.org/1999/xlink" x="0px" y="0px"
	 viewBox="0 0 42 42" style="enable-background:new 0 0 42 42;" xml:space="preserve">
<style type="text/css">
	.st0{clip-path:url(#SVGID_2_);}
	.st1{fill:#7FFFD4;}
</style>
<g>
	<defs>
		<rect id="SVGID_1_" width="42" height="42"/>
	</defs>
	<clipPath id="SVGID_2_">
		<use xlink:href="#SVGID_1_"  style="overflow:visible;"/>
	</clipPath>
	<g class="st0">
		<path class="st1" d="M21,37.9c-0.1,0-0.3-0.1-0.3-0.1c-0.1-0.1-0.1-0.2-0.1-0.3c0-0.1,0.1-0.3,0.1-0.3c0.1-0.1,0.2-0.1,0.3-0.1
			c0.1,0,0.3,0.1,0.3,0.1c0.1,0.1,0.1,0.2,0.1,0.3c0,0.1-0.1,0.3-0.1,0.3C21.3,37.8,21.1,37.9,21,37.9z"/>
		<path class="st1" d="M21,40.2c-0.1,0-0.3-0.1-0.3-0.1c-0.1-0.1-0.1-0.2-0.1-0.3c0-0.1,0.1-0.3,0.1-0.3c0.1-0.1,0.2-0.1,0.3-0.1
			c0.1,0,0.3,0.1,0.3,0.1c0.1,0.1,0.1,0.2,0.1,0.3c0,0.1-0.1,0.3-0.1,0.3C21.3,40.2,21.1,40.2,21,40.2z"/>
		<path class="st1" d="M17.5,39c-0.1,0-0.3-0.1-0.3-0.1c-0.1-0.1-0.1-0.2-0.1-0.3c0-0.1,0.1-0.3,0.1-0.3c0.1-0.1,0.2-0.1,0.3-0.1
			c0.1,0,0.3,0.1,0.3,0.1c0.1,0.1,0.1,0.2,0.1,0.3c0,0.1-0.1,0.3-0.1,0.3C17.8,39,17.6,39,17.5,39z"/>
		<path class="st1" d="M24.5,39c-0.1,0-0.3-0.1-0.3-0.1c-0.1-0.1-0.1-0.2-0.1-0.3c0-0.1,0.1-0.3,0.1-0.3c0.1-0.1,0.2-0.1,0.3-0.1
			c0.1,0,0.3,0.1,0.3,0.1c0.1,0.1,0.1,0.2,0.1,0.3c0,0.1-0.1,0.3-0.1,0.3C24.8,39,24.6,39,24.5,39z"/>
		<path class="st1" d="M33.4,41.3c-0.8-1.9-2.4-3.5-4.6-4.7c-2.1-1.1-4.6-1.8-7.3-1.8v-6.7l1.4-1.3c0.1,0,0.3,0,0.5,0
			c0.8,0,2.4-0.2,3.9-1.2c1.7-1.2,2.6-3.2,2.8-6c0-0.1,0-0.3-0.1-0.4c-0.1-0.1-0.2-0.2-0.4-0.2c0,0,0,0,0,0c-0.2,0-4.1,0-6.2,2.5
			c-1,1.2-1.4,2.7-1.2,4.5l-0.7,0.7V18l1.4-1.3c0.1,0,0.3,0,0.5,0c0,0,0,0,0,0c0.8,0,2.4-0.2,3.9-1.2c1.7-1.2,2.6-3.2,2.8-6
			c0-0.1,0-0.3-0.1-0.4C29.9,9.1,29.8,9,29.6,9h0c-0.2,0-4.1,0-6.2,2.5c-1,1.2-1.4,2.7-1.2,4.5l-0.7,0.6V9.8c1.3-0.9,2.1-2,2.3-3.4
			c0.4-3.1-2.3-6.1-2.4-6.2C21.3,0.1,21.1,0,21,0c-0.1,0-0.3,0.1-0.4,0.2c-1.9,2.3-2.7,4.5-2.3,6.4c0.4,1.8,1.7,2.8,2.2,3.2v6.9
			L19.8,16c0.2-1.8-0.2-3.4-1.2-4.5c-2.1-2.4-6-2.5-6.2-2.5h0c-0.1,0-0.3,0.1-0.4,0.2c-0.1,0.1-0.1,0.2-0.1,0.4
			c0.2,2.8,1.2,4.8,2.8,6c1.4,1,3,1.2,3.9,1.2c0.2,0,0.4,0,0.5,0l1.4,1.3v8.7L19.8,26c0.2-1.8-0.2-3.4-1.2-4.5
			c-2.1-2.4-6-2.5-6.2-2.5h0c-0.1,0-0.3,0.1-0.4,0.2c-0.1,0.1-0.1,0.2-0.1,0.4c0.2,2.8,1.2,4.8,2.8,6c1.4,1,3,1.2,3.9,1.2
			c0.2,0,0.4,0,0.5,0l1.4,1.3v6.7c-2.6,0.1-5.1,0.7-7.3,1.8c-2.2,1.2-3.8,2.9-4.6,4.7c-0.1,0.2,0,0.3,0,0.5C8.8,41.9,8.9,42,9.1,42
			h23.8c0.2,0,0.3-0.1,0.4-0.2C33.4,41.6,33.4,41.5,33.4,41.3z M24.2,22.1c1.4-1.6,3.8-2,4.9-2.1c-0.5,4.6-3.3,5.6-5.2,5.7l3-2.9
			c0.2-0.2,0.2-0.5,0-0.7c-0.2-0.2-0.5-0.2-0.7,0l-3.1,2.9C23.2,23.9,23.5,22.9,24.2,22.1z M24.2,12.1c1.4-1.6,3.8-2,4.9-2.1
			c-0.5,4.7-3.5,5.6-5.2,5.7l3-2.9c0.2-0.2,0.2-0.5,0-0.7c-0.2-0.2-0.5-0.2-0.7,0l-3.1,3C23.1,13.9,23.5,12.9,24.2,12.1z M15.8,12.2
			c-0.2-0.2-0.5-0.2-0.7,0c-0.2,0.2-0.2,0.5,0,0.7l3,2.9c-1.7-0.1-4.6-1-5.2-5.7c1.1,0.1,3.5,0.5,4.9,2.1c0.7,0.8,1,1.8,1.1,3
			L15.8,12.2z M15.8,22.2c-0.2-0.2-0.5-0.2-0.7,0c-0.2,0.2-0.2,0.5,0,0.7l3,2.9c-1.9-0.1-4.7-1.1-5.2-5.7c1.1,0.1,3.5,0.5,4.9,2.1
			c0.7,0.8,1,1.8,1.1,3L15.8,22.2z M19.2,6.4c-0.3-1.5,0.3-3.2,1.8-5.1c0.7,0.9,2.1,3,1.8,5c-0.1,0.9-0.6,1.6-1.3,2.3v-3
			c0-0.3-0.2-0.5-0.5-0.5s-0.5,0.2-0.5,0.5v3C20,8.1,19.4,7.4,19.2,6.4z M9.9,41c1.7-3.1,6.2-5.3,11.1-5.3c5,0,9.4,2.1,11.1,5.3H9.9
			z"/>
	</g>
</g>
</svg>
