<svg width="36" height="36" viewBox="0 0 36 36" fill="none" xmlns="http://www.w3.org/2000/svg">
<path d="M18.6973 31.9927C20.7771 31.8704 22.5533 31.4006 24.3229 30.5093C28.1767 28.5649 30.9164 24.9579 31.7488 20.7327C31.9345 19.7932 32 19.0788 32 18.0236C32 17.1454 31.976 16.7783 31.8689 16.0355C31.3817 12.623 29.658 9.53164 27.0014 7.30323C24.9259 5.56201 22.3763 4.45873 19.6913 4.14194C19.0774 4.06985 18.7825 4.05237 18.0309 4.05237C17.2466 4.05237 16.9713 4.06766 16.2941 4.15287C11.6647 4.72308 7.60983 7.59598 5.51687 11.7863C4.84834 13.1255 4.40703 14.5412 4.19293 16.0355C4.08588 16.7762 4.06185 17.1454 4.06185 18.0127C4.06185 18.8822 4.08806 19.2864 4.19293 20.0117C5.069 26.1464 9.91252 30.9899 16.0428 31.8638C16.6939 31.9556 17.109 31.9862 17.8561 31.9927C18.2472 31.9971 18.6252 31.9971 18.6973 31.9927ZM17.1177 30.4394C16.4142 29.6988 16.0996 29.3448 15.678 28.8249C14.7451 27.667 13.9258 26.4042 13.3294 25.1895C13.1503 24.8268 12.875 24.2217 12.8859 24.2107C12.9056 24.1911 13.4518 24.0338 13.8581 23.9333C14.4982 23.7716 14.9789 23.6777 15.6933 23.5728C16.021 23.5247 16.4754 23.4811 17.1723 23.4308L17.3537 23.4199V27.0247C17.3537 29.8735 17.3471 30.6294 17.3274 30.6294C17.3122 30.6294 17.2182 30.5442 17.1177 30.4394ZM18.7082 26.981V23.4177L18.8655 23.4308C18.9529 23.4374 19.167 23.4526 19.3418 23.4636C19.9972 23.5116 20.705 23.6099 21.4063 23.7498C21.9831 23.8656 23.0339 24.1408 23.0339 24.1758C23.0339 24.1823 22.9596 24.3549 22.8679 24.5625C22.0901 26.3146 21.0109 27.9881 19.6498 29.5524C19.333 29.915 18.7497 30.5421 18.7257 30.5421C18.7169 30.5421 18.7082 28.9385 18.7082 26.981ZM20.7968 30.3192C20.8077 30.3039 20.8885 30.2034 20.9803 30.0942C22.278 28.5605 23.4141 26.745 24.1591 25.0125C24.2464 24.8072 24.3251 24.6346 24.3316 24.628C24.3622 24.5974 25.6097 25.172 26.1406 25.4626C26.7501 25.7969 27.5344 26.2819 27.5344 26.3256C27.5344 26.3692 26.4508 27.4354 26.169 27.667C24.7708 28.8249 23.3179 29.6114 21.6488 30.116C21.4981 30.1597 20.823 30.3411 20.788 30.3454C20.7837 30.3454 20.788 30.3323 20.7968 30.3192ZM14.8412 30.234C12.8597 29.7075 11.1294 28.7746 9.61102 27.4201C9.32046 27.1579 8.58858 26.4195 8.54707 26.3452C8.52959 26.3103 8.55799 26.284 8.77646 26.142C9.3139 25.7925 9.99772 25.408 10.592 25.1218C10.9918 24.9295 11.5358 24.687 11.5729 24.687C11.586 24.687 11.6603 24.8312 11.7389 25.0104C12.4577 26.6533 13.4867 28.3071 14.7407 29.8298C14.898 30.0199 15.0488 30.2056 15.0772 30.2384C15.1056 30.2733 15.1209 30.3017 15.11 30.3017C15.1012 30.3017 14.9789 30.2711 14.8412 30.234ZM27.4973 24.6674C26.7698 24.2304 26.0554 23.8677 25.2601 23.5291C25.0264 23.4286 24.8276 23.3412 24.8188 23.3325C24.8101 23.3238 24.8254 23.2407 24.856 23.1446C25.081 22.4193 25.2951 21.5257 25.4131 20.7982C25.507 20.2302 25.6119 19.258 25.6119 18.9674C25.6119 18.8953 25.6184 18.8058 25.625 18.7686L25.6403 18.7009L28.1331 18.7053L30.6258 18.7118L30.6193 18.8429C30.569 19.8959 30.3178 21.1259 29.9223 22.2511C29.5859 23.2058 29.0004 24.3637 28.4826 25.0956L28.3865 25.231L28.1025 25.0475C27.9474 24.9448 27.6743 24.7744 27.4973 24.6674ZM7.49404 24.9645C6.77526 23.8699 6.24875 22.7208 5.8839 21.4493C5.68072 20.737 5.50594 19.7627 5.45788 19.0723C5.45132 18.9696 5.4404 18.8451 5.43385 18.7948L5.42292 18.7009H7.83485H10.2468L10.2621 18.9805C10.3342 20.2651 10.5898 21.6874 10.9765 22.9502C11.0376 23.1555 11.0901 23.339 11.0923 23.3609C11.0944 23.3915 11.0049 23.4374 10.6925 23.5728C9.84261 23.942 8.94687 24.4183 8.15382 24.923C7.94409 25.0562 7.75402 25.1786 7.72998 25.1961C7.70595 25.2157 7.67974 25.2245 7.671 25.2201C7.66007 25.2135 7.58142 25.0999 7.49404 24.9645ZM12.3485 22.7754C11.9902 21.6459 11.7695 20.5579 11.6647 19.4109C11.6472 19.2187 11.6297 18.9827 11.6253 18.8866L11.6188 18.7118L14.4851 18.7053L17.3537 18.7009V20.3788V22.0566L16.9211 22.0828C15.5338 22.1659 13.9783 22.4433 12.733 22.8278C12.5757 22.8759 12.4359 22.913 12.4184 22.9108C12.4031 22.9087 12.3703 22.8475 12.3485 22.7754ZM23.1606 22.7776C21.8695 22.4018 20.4844 22.1637 19.1386 22.0828L18.7082 22.0566V20.3788V18.7009H21.4828H24.2574V18.797C24.2574 18.9565 24.194 19.6709 24.1459 20.0336C24.0564 20.7174 23.9078 21.4667 23.7308 22.1222C23.6282 22.5067 23.5167 22.8737 23.5036 22.8737C23.4993 22.8737 23.3442 22.83 23.1606 22.7776ZM25.625 17.2983C25.6184 17.2699 25.6119 17.1891 25.6119 17.117C25.6119 16.9335 25.5551 16.3108 25.5027 15.8935C25.3672 14.8449 25.1094 13.7023 24.7817 12.7082C24.7227 12.5269 24.6812 12.3696 24.6899 12.363C24.6987 12.3543 24.8276 12.2975 24.9783 12.2385C25.8762 11.8802 26.8943 11.3581 27.825 10.7747C28.0282 10.6502 28.2008 10.5541 28.2095 10.565C28.2576 10.6174 28.5525 11.05 28.688 11.2663C29.5619 12.6492 30.1474 14.1436 30.4379 15.7297C30.51 16.1142 30.5821 16.6691 30.604 16.975C30.6105 17.0776 30.6214 17.2022 30.628 17.2546L30.6389 17.3464H28.1396H25.6381L25.625 17.2983ZM18.7082 15.4697V13.593L18.9201 13.5799C20.2353 13.4947 21.0939 13.3746 22.2103 13.1189C22.5183 13.0468 23.3332 12.8306 23.3638 12.8109C23.3791 12.8022 23.5473 13.309 23.6653 13.7197C23.9734 14.799 24.1787 15.9853 24.2486 17.1126L24.2639 17.3464H21.485H18.7082V15.4697ZM11.6188 17.1891C11.6668 16.5577 11.6821 16.3916 11.7302 16.0137C11.8263 15.2753 11.9814 14.5128 12.1781 13.8071C12.2917 13.4095 12.5014 12.7585 12.5167 12.7585C12.5211 12.7585 12.6369 12.7912 12.7723 12.8327C13.5457 13.0665 14.5026 13.2784 15.3437 13.4008C15.9554 13.4903 16.3378 13.5275 17.1396 13.5799L17.3537 13.593V15.4697V17.3464H14.4808H11.6057L11.6188 17.1891ZM5.43385 17.2655C5.4404 17.2197 5.45132 17.0951 5.45788 16.9859C5.57585 15.26 6.16573 13.3505 7.06801 11.7753C7.29304 11.3865 7.75183 10.6764 7.85233 10.565C7.86107 10.5541 8.03366 10.648 8.23684 10.7747C9.13476 11.3362 10.238 11.9064 11.0224 12.2145C11.1294 12.256 11.2146 12.2997 11.2146 12.315C11.2146 12.3303 11.1949 12.3914 11.1709 12.4548C11.0944 12.6492 10.8432 13.4969 10.7427 13.9054C10.4893 14.9301 10.332 15.9372 10.2708 16.9269L10.2446 17.3464H7.83267H5.42074L5.43385 17.2655ZM18.7082 8.8653L18.7104 5.51613L18.9529 5.76737C20.4844 7.35566 21.8214 9.27384 22.6844 11.1177C22.7805 11.3275 22.857 11.5088 22.8526 11.5219C22.8329 11.5678 21.8695 11.8103 21.1988 11.937C20.4123 12.0856 19.4772 12.1948 18.8873 12.2079L18.7082 12.2123V8.8653ZM16.4033 12.1555C15.3525 12.0528 14.2077 11.8365 13.301 11.5656C13.1918 11.535 13.0869 11.5023 13.0651 11.4979C13.0454 11.4913 13.0279 11.476 13.0279 11.4607C13.0279 11.4105 13.6243 10.2395 13.8537 9.84187C14.5485 8.63153 15.3415 7.53699 16.3443 6.40531C16.7944 5.89627 17.2641 5.41782 17.3122 5.41782C17.3537 5.41782 17.3537 5.50084 17.3537 8.81723V12.2188L17.0412 12.2035C16.8708 12.1948 16.5825 12.173 16.4033 12.1555ZM23.8095 10.3225C23.0754 8.8085 22.1688 7.41465 21.024 6.04046C20.8689 5.85476 20.7465 5.70183 20.7531 5.70183C20.788 5.70183 21.2709 5.82417 21.5221 5.89627C23.6151 6.50362 25.4546 7.59816 27.0188 9.17334L27.3225 9.47702L27.139 9.59718C26.4246 10.0603 25.2601 10.6568 24.3666 11.0172L24.1809 11.0915L24.1285 10.9801C24.0979 10.9189 23.9559 10.624 23.8095 10.3225ZM11.3304 10.8643C10.6422 10.5716 9.52145 9.98387 8.92284 9.59718L8.73932 9.47702L9.05392 9.16023C10.4434 7.76202 12.0776 6.73083 13.9105 6.09726C14.3409 5.9487 15.0816 5.7346 15.0816 5.76082C15.0816 5.76519 14.9658 5.90938 14.8238 6.07978C13.6506 7.48456 12.6456 9.04881 11.9356 10.5716C11.822 10.8141 11.7171 11.0107 11.704 11.0107C11.6887 11.0107 11.5205 10.9451 11.3304 10.8643Z" fill="#7FFFD4"/>
</svg>
