<svg width="88" height="88" viewBox="0 0 88 88" fill="none" xmlns="http://www.w3.org/2000/svg">
<path fill-rule="evenodd" clip-rule="evenodd" d="M44 0C43.2249 0 42.5965 0.628375 42.5965 1.40353V9.03186C42.5965 9.80702 43.2249 10.4354 44 10.4354C44.7752 10.4354 45.4036 9.80702 45.4036 9.03186V1.40353C45.4036 0.628375 44.7752 0 44 0ZM28.0081 12.7471L24.3592 6.04805C23.9884 5.36725 23.1359 5.11597 22.4553 5.48688C21.7747 5.85778 21.5234 6.71011 21.8941 7.39074L25.5432 14.0897C25.7979 14.5574 26.2795 14.8221 26.7769 14.8221C27.0038 14.8221 27.2338 14.7671 27.4471 14.6509C28.1277 14.2802 28.3788 13.4277 28.0081 12.7471ZM8.10047 20.1933L14.5093 24.3308C15.1606 24.7512 15.3477 25.6199 14.9272 26.2709C14.6585 26.6869 14.2072 26.9134 13.7467 26.9134C13.486 26.9134 13.2223 26.8409 12.9869 26.6888L6.578 22.5514C5.92677 22.1312 5.73977 21.2623 6.16017 20.6111C6.58058 19.9597 7.44906 19.7725 8.10047 20.1933ZM65.5444 5.48696C64.8632 5.11606 64.0111 5.36751 63.6405 6.04813L59.9918 12.7471C59.621 13.4279 59.8721 14.2801 60.5528 14.651C60.7661 14.7672 60.996 14.8222 61.2229 14.8222C61.7203 14.8222 62.2019 14.5572 62.4566 14.0898L66.1054 7.39082C66.4763 6.71003 66.225 5.85787 65.5444 5.48696ZM79.8996 20.1934C80.5501 19.7733 81.4195 19.96 81.8399 20.6112C82.2603 21.2623 82.0733 22.131 81.422 22.5517L75.0132 26.6891C74.778 26.841 74.5142 26.9135 74.2533 26.9135C73.7925 26.9135 73.3413 26.6868 73.0729 26.2711C72.6523 25.6198 72.8395 24.7512 73.4907 24.3308L79.8996 20.1934ZM61.4677 20.6091C56.9073 15.9903 50.8241 13.3981 44.3388 13.3104C37.5872 13.2252 31.0052 16.0171 26.269 20.9865C25.7341 21.5477 25.7556 22.436 26.3168 22.9708C26.878 23.5055 27.7666 23.4844 28.3011 22.9231C32.5003 18.5167 38.3321 16.0328 44.3011 16.117C50.0445 16.1948 55.4319 18.4906 59.4706 22.5812C63.5133 26.6756 65.7396 32.0998 65.7396 37.8543C65.7396 42.4878 64.3008 46.9108 61.5787 50.6453C61.5541 50.679 61.5312 50.7135 61.5096 50.7493L61.3381 51.0348L61.3115 51.079C60.6516 52.1775 60.0451 53.1872 59.487 54.1278C59.0913 54.7945 59.3111 55.6556 59.9777 56.0511C60.2023 56.1843 60.4491 56.2477 60.6925 56.2477C61.1717 56.2477 61.6387 56.0023 61.9008 55.5602C62.464 54.611 63.0766 53.5912 63.744 52.4802L63.8839 52.2473C66.9345 48.0403 68.5463 43.0649 68.5463 37.8542C68.5462 31.3566 66.0323 25.2322 61.4677 20.6091ZM56.7033 59.0666C57.0577 58.377 57.904 58.1056 58.5931 58.4597C59.2823 58.8139 59.5542 59.6601 59.1998 60.3494C58.0032 62.6782 57.337 64.4863 56.9864 66.3927C58.2761 67.2269 59.1321 68.677 59.1321 70.324C59.1321 71.5988 58.619 72.7557 57.7894 73.6007C58.6192 74.4456 59.1321 75.6023 59.1321 76.8773C59.1321 79.458 57.0328 81.5576 54.4521 81.5576H52.4898C51.4429 85.305 47.9889 88 44 88C40.0111 88 36.5571 85.3048 35.5104 81.5578H33.5481C30.9678 81.5578 28.8681 79.4582 28.8681 76.8775C28.8681 75.6027 29.381 74.4458 30.2108 73.6008C29.381 72.7559 28.8681 71.5992 28.8681 70.3242C28.8681 68.6771 29.7241 67.2272 31.0138 66.3929C30.3057 62.5517 28.3468 59.29 24.336 52.6128L24.1165 52.2476C21.0659 48.0404 19.454 43.065 19.454 37.8544C19.454 33.6167 20.5844 29.4205 22.7231 25.7196C23.111 25.0484 23.9695 24.8188 24.6403 25.2067C25.3113 25.5944 25.5411 26.4529 25.1532 27.1239C23.2607 30.3985 22.2606 34.1091 22.2606 37.8544C22.2606 42.4879 23.6993 46.9109 26.4215 50.6454C26.4461 50.6792 26.4691 50.7138 26.4906 50.7495L26.7417 51.1674L26.7436 51.1706C30.7349 57.8149 32.8927 61.4072 33.7284 65.6439H54.2716C54.6839 63.5561 55.439 61.527 56.7033 59.0666ZM38.4799 81.5576C39.4082 83.7107 41.557 85.1931 44 85.1931C46.4427 85.1931 48.5915 83.7107 49.5201 81.5576H38.4799ZM54.4519 75.0042H50.549C49.7738 75.0042 49.1456 74.376 49.1454 73.6008C49.1454 72.8257 49.7738 72.1973 50.549 72.1973H54.4519C55.4845 72.1973 56.325 71.3572 56.325 70.3242C56.325 69.4777 55.7606 68.7617 54.9887 68.5302C54.9168 68.5087 54.8434 68.4924 54.7694 68.4798C54.7467 68.4759 54.7243 68.4723 54.7015 68.4693C54.619 68.4583 54.536 68.4506 54.4517 68.4506H33.5478C33.4637 68.4506 33.3805 68.4585 33.298 68.4693C33.2753 68.4724 33.253 68.4757 33.2305 68.4797C33.1557 68.4924 33.0818 68.5087 33.0095 68.5303C32.2383 68.7624 31.6747 69.4782 31.6747 70.324C31.6747 71.3567 32.5148 72.1971 33.5478 72.1971H45C45.7751 72.1971 46.4035 72.8255 46.4035 73.6007C46.4035 74.3758 45.7751 75.0042 45 75.0042H33.5478C32.5151 75.0042 31.6747 75.8445 31.6747 76.8773C31.6747 77.9101 32.5148 78.7506 33.5478 78.7506H54.4519C55.4845 78.7506 56.325 77.9103 56.325 76.8773C56.325 75.8447 55.4849 75.0042 54.4519 75.0042Z" fill="#7FFFD4"/>
</svg>
