<svg width="88" height="88" viewBox="0 0 88 88" fill="none" xmlns="http://www.w3.org/2000/svg">
<path fill-rule="evenodd" clip-rule="evenodd" d="M68.7486 19.2512C62.1381 12.6406 53.3489 9 44 9C34.6512 9 25.8619 12.6406 19.2512 19.2512C12.6406 25.8619 9 34.6512 9 44C9 53.3488 12.6406 62.1381 19.2512 68.7488C25.8619 75.3594 34.6512 79 44 79C53.3489 79 62.1381 75.3594 68.7486 68.7488C75.3594 62.1381 79 53.3488 79 44C79 34.6512 75.3594 25.8619 68.7486 19.2512ZM44 76.2112C26.2387 76.2112 11.7888 61.7613 11.7888 44C11.7888 26.2387 26.2387 11.7888 44 11.7888C61.7613 11.7888 76.2112 26.2387 76.2112 44C76.2112 61.7613 61.7613 76.2112 44 76.2112ZM44 14.7673C34.0813 14.7673 26.012 22.8367 26.012 32.7554C26.012 35.4465 28.2013 37.6359 30.8924 37.6359C33.5835 37.6359 35.7729 35.4465 35.7729 32.7554C35.7729 28.2189 39.4635 24.5283 44 24.5283C48.5363 24.5283 52.2271 28.2189 52.2271 32.7554C52.2271 37.3303 48.5363 41.0522 44 41.0522C41.3089 41.0522 39.1195 43.2416 39.1195 45.9327V55.5237C39.1195 58.2147 41.3089 60.4041 44 60.4041C46.6911 60.4041 48.8805 58.2146 48.8805 55.5238V50.136C52.4049 49.1347 55.5849 47.0457 57.9262 44.173C60.5455 40.9595 61.9881 36.9046 61.9881 32.7554C61.9881 22.8367 53.9187 14.7673 44 14.7673ZM47.1923 47.6843C46.5501 47.8227 46.0916 48.3905 46.0916 49.0474V55.5235C46.0916 56.6768 45.1533 57.6151 44 57.6151C42.8467 57.6151 41.9084 56.6768 41.9084 55.5235V45.9325C41.9084 44.7792 42.8467 43.8409 44 43.8409C50.0743 43.8409 55.0159 38.8678 55.0159 32.7552C55.0159 26.681 50.0743 21.7393 44 21.7393C37.9258 21.7393 32.9841 26.6811 32.9841 32.7552C32.9841 33.9086 32.0458 34.8469 30.8924 34.8469C29.7391 34.8469 28.8008 33.9086 28.8008 32.7552C28.8008 24.3743 35.6191 17.556 44 17.556C52.3809 17.556 59.1992 24.3743 59.1992 32.7552C59.1992 39.9061 54.1496 46.1846 47.1923 47.6843ZM39.1195 67.7946C39.1195 65.1035 41.3089 62.9141 44 62.9141C46.6911 62.9141 48.8805 65.1035 48.8805 67.7946V68.3524C48.8805 71.0433 46.6911 73.2328 44 73.2328C41.3089 73.2328 39.1195 71.0435 39.1195 68.3524V67.7946ZM44 70.444C45.1533 70.444 46.0916 69.5057 46.0916 68.3524V67.7946C46.0916 66.6413 45.1533 65.703 44 65.703C42.8467 65.703 41.9084 66.6413 41.9084 67.7946V68.3524C41.9084 69.5057 42.8467 70.444 44 70.444ZM17.2378 49.5738C16.8606 47.7525 16.6693 45.8772 16.6693 44C16.6693 43.2299 16.045 42.6056 15.2749 42.6056C14.5048 42.6056 13.8805 43.2299 13.8805 44C13.8805 46.0668 14.0913 48.1325 14.5069 50.1394C14.6434 50.7981 15.2236 51.2513 15.8709 51.2513C15.9646 51.2513 16.0598 51.2418 16.1552 51.222C16.9093 51.0658 17.394 50.3279 17.2378 49.5738ZM19.2185 55.5418C22.0483 61.6068 26.9857 66.4148 33.121 69.08C33.8273 69.3867 34.1512 70.208 33.8444 70.9145C33.616 71.44 33.1031 71.7538 32.5646 71.7538C32.3792 71.7538 32.1906 71.7165 32.0098 71.6379C25.2495 68.7012 19.8091 63.4037 16.6912 56.7209C16.3656 56.023 16.6674 55.1933 17.3653 54.8677C18.0629 54.5421 18.8929 54.8439 19.2185 55.5418Z" fill="#7FFFD4"/>
</svg>
